%TF.GenerationSoftware,KiCad,Pcbnew,(6.0.9)*%
%TF.CreationDate,2023-10-21T14:44:12-07:00*%
%TF.ProjectId,pegoste2023,7065676f-7374-4653-9230-32332e6b6963,rev?*%
%TF.SameCoordinates,Original*%
%TF.FileFunction,Legend,Bot*%
%TF.FilePolarity,Positive*%
%FSLAX46Y46*%
G04 Gerber Fmt 4.6, Leading zero omitted, Abs format (unit mm)*
G04 Created by KiCad (PCBNEW (6.0.9)) date 2023-10-21 14:44:12*
%MOMM*%
%LPD*%
G01*
G04 APERTURE LIST*
%ADD10C,0.010000*%
G04 APERTURE END LIST*
%TO.C,Ref\u002A\u002A*%
G36*
X148575508Y-100797995D02*
G01*
X148579711Y-100795269D01*
X148610801Y-100776214D01*
X148676769Y-100736649D01*
X148776005Y-100677525D01*
X148906896Y-100599794D01*
X149067832Y-100504407D01*
X149257200Y-100392316D01*
X149473390Y-100264471D01*
X149714791Y-100121824D01*
X149979790Y-99965326D01*
X150266776Y-99795929D01*
X150574138Y-99614584D01*
X150900264Y-99422242D01*
X151243544Y-99219854D01*
X151602365Y-99008373D01*
X151975116Y-98788748D01*
X152360186Y-98561933D01*
X152755963Y-98328877D01*
X153160836Y-98090532D01*
X153285502Y-98017156D01*
X153719046Y-97761989D01*
X154157919Y-97503685D01*
X154599585Y-97243736D01*
X155041512Y-96983632D01*
X155481163Y-96724865D01*
X155916005Y-96468928D01*
X156343503Y-96217312D01*
X156761123Y-95971509D01*
X157166330Y-95733011D01*
X157556589Y-95503308D01*
X157929368Y-95283894D01*
X158282130Y-95076260D01*
X158612342Y-94881897D01*
X158917468Y-94702297D01*
X159194976Y-94538953D01*
X159442329Y-94393355D01*
X159656994Y-94266995D01*
X159750823Y-94211763D01*
X160036041Y-94043613D01*
X160327865Y-93871087D01*
X160622068Y-93696711D01*
X160914422Y-93523008D01*
X161200700Y-93352504D01*
X161476676Y-93187722D01*
X161738124Y-93031187D01*
X161980815Y-92885424D01*
X162200523Y-92752957D01*
X162393022Y-92636310D01*
X162554084Y-92538009D01*
X162582917Y-92520302D01*
X162762574Y-92410189D01*
X162931522Y-92307333D01*
X163086309Y-92213789D01*
X163223482Y-92131610D01*
X163339586Y-92062850D01*
X163431168Y-92009565D01*
X163494775Y-91973807D01*
X163526953Y-91957632D01*
X163530048Y-91956928D01*
X163547199Y-91974880D01*
X163586534Y-92022687D01*
X163644892Y-92096298D01*
X163719109Y-92191661D01*
X163806024Y-92304725D01*
X163902475Y-92431438D01*
X163964291Y-92513241D01*
X164079412Y-92666492D01*
X164170879Y-92789619D01*
X164240932Y-92885990D01*
X164291807Y-92958973D01*
X164325745Y-93011937D01*
X164344982Y-93048248D01*
X164351757Y-93071277D01*
X164348309Y-93084390D01*
X164345546Y-93086945D01*
X164320235Y-93102654D01*
X164262453Y-93136934D01*
X164176459Y-93187307D01*
X164066512Y-93251294D01*
X163936871Y-93326419D01*
X163791794Y-93410202D01*
X163635540Y-93500165D01*
X163619209Y-93509553D01*
X163463500Y-93599048D01*
X163319721Y-93681694D01*
X163191911Y-93755168D01*
X163084105Y-93817149D01*
X163000343Y-93865316D01*
X162944661Y-93897348D01*
X162921096Y-93910924D01*
X162920595Y-93911217D01*
X162928287Y-93929725D01*
X162953064Y-93977993D01*
X162991174Y-94048928D01*
X163038868Y-94135438D01*
X163044482Y-94145499D01*
X163317632Y-94661981D01*
X163579535Y-95211431D01*
X163826994Y-95785258D01*
X164056814Y-96374876D01*
X164265799Y-96971695D01*
X164450754Y-97567126D01*
X164608483Y-98152581D01*
X164723131Y-98657106D01*
X164789604Y-98995859D01*
X164843241Y-99307423D01*
X164885118Y-99602535D01*
X164916310Y-99891930D01*
X164937892Y-100186347D01*
X164950940Y-100496520D01*
X164956530Y-100833188D01*
X164956905Y-100991216D01*
X164955403Y-101252700D01*
X164951134Y-101479982D01*
X164943386Y-101681141D01*
X164931450Y-101864257D01*
X164914617Y-102037411D01*
X164892177Y-102208682D01*
X164863420Y-102386150D01*
X164827638Y-102577896D01*
X164809639Y-102668104D01*
X164679734Y-103207514D01*
X164512599Y-103727795D01*
X164308588Y-104228106D01*
X164068051Y-104707606D01*
X163791341Y-105165453D01*
X163723566Y-105266224D01*
X163402289Y-105697470D01*
X163044399Y-106107478D01*
X162649914Y-106496232D01*
X162218851Y-106863714D01*
X161751230Y-107209906D01*
X161604817Y-107308948D01*
X161415275Y-107432678D01*
X161242370Y-107541004D01*
X161075126Y-107640232D01*
X160902566Y-107736670D01*
X160713714Y-107836627D01*
X160497595Y-107946410D01*
X160482183Y-107954116D01*
X159988682Y-108184856D01*
X159506667Y-108377627D01*
X159031711Y-108533691D01*
X158559387Y-108654306D01*
X158085268Y-108740733D01*
X157604928Y-108794233D01*
X157506624Y-108801163D01*
X157363735Y-108809974D01*
X157250604Y-108815745D01*
X157154958Y-108818449D01*
X157064527Y-108818064D01*
X156967039Y-108814566D01*
X156850224Y-108807930D01*
X156724136Y-108799641D01*
X156225528Y-108744858D01*
X155731031Y-108648201D01*
X155241094Y-108509968D01*
X154756164Y-108330458D01*
X154276688Y-108109973D01*
X153803115Y-107848810D01*
X153335890Y-107547269D01*
X152875462Y-107205651D01*
X152422278Y-106824253D01*
X151976785Y-106403377D01*
X151539431Y-105943320D01*
X151110663Y-105444384D01*
X150690929Y-104906866D01*
X150483763Y-104622575D01*
X150076430Y-104024534D01*
X149690424Y-103403263D01*
X149322070Y-102752597D01*
X149011884Y-102155382D01*
X148920807Y-101970404D01*
X148827958Y-101777119D01*
X148736720Y-101582910D01*
X148650474Y-101395158D01*
X148572603Y-101221245D01*
X148506487Y-101068553D01*
X148455508Y-100944462D01*
X148446288Y-100920766D01*
X148454432Y-100893525D01*
X148492466Y-100857382D01*
X150805411Y-100857382D01*
X150990632Y-101067174D01*
X151175297Y-101270375D01*
X151383808Y-101489485D01*
X151608598Y-101717163D01*
X151842103Y-101946070D01*
X152076756Y-102168867D01*
X152304991Y-102378214D01*
X152519244Y-102566771D01*
X152649406Y-102676340D01*
X153082778Y-103015427D01*
X153519151Y-103321777D01*
X153955789Y-103593812D01*
X154389957Y-103829950D01*
X154818922Y-104028612D01*
X155239949Y-104188216D01*
X155299005Y-104207644D01*
X155683134Y-104317901D01*
X156051176Y-104394433D01*
X156411429Y-104438117D01*
X156772193Y-104449832D01*
X157141769Y-104430455D01*
X157274323Y-104416538D01*
X157607570Y-104359679D01*
X157945095Y-104268763D01*
X158278946Y-104147267D01*
X158601174Y-103998670D01*
X158903826Y-103826449D01*
X159178953Y-103634082D01*
X159309533Y-103526340D01*
X159565894Y-103273943D01*
X159789094Y-102995505D01*
X159979100Y-102691339D01*
X160135881Y-102361757D01*
X160259405Y-102007072D01*
X160349640Y-101627595D01*
X160406555Y-101223639D01*
X160430119Y-100795517D01*
X160420300Y-100343540D01*
X160377066Y-99868021D01*
X160300385Y-99369272D01*
X160190227Y-98847606D01*
X160046560Y-98303335D01*
X159888790Y-97795049D01*
X159841705Y-97657141D01*
X159786813Y-97503474D01*
X159725897Y-97338444D01*
X159660743Y-97166447D01*
X159593136Y-96991881D01*
X159524859Y-96819142D01*
X159457699Y-96652626D01*
X159393439Y-96496731D01*
X159333864Y-96355853D01*
X159280760Y-96234388D01*
X159235911Y-96136734D01*
X159201101Y-96067287D01*
X159178115Y-96030444D01*
X159170635Y-96025873D01*
X159132427Y-96047803D01*
X159060516Y-96089196D01*
X158956904Y-96148898D01*
X158823596Y-96225750D01*
X158662594Y-96318597D01*
X158475902Y-96426282D01*
X158265524Y-96547648D01*
X158033461Y-96681540D01*
X157781719Y-96826800D01*
X157512299Y-96982272D01*
X157227206Y-97146799D01*
X156928442Y-97319226D01*
X156618012Y-97498395D01*
X156297917Y-97683151D01*
X155970162Y-97872335D01*
X155636750Y-98064794D01*
X155299684Y-98259368D01*
X154960968Y-98454903D01*
X154622604Y-98650241D01*
X154286597Y-98844227D01*
X153954948Y-99035703D01*
X153629662Y-99223513D01*
X153312743Y-99406501D01*
X153006192Y-99583511D01*
X152712014Y-99753385D01*
X152432212Y-99914967D01*
X152168789Y-100067100D01*
X151923748Y-100208629D01*
X151699093Y-100338397D01*
X151496827Y-100455247D01*
X151318954Y-100558022D01*
X151167476Y-100645567D01*
X151044397Y-100716725D01*
X150951720Y-100770338D01*
X150891449Y-100805252D01*
X150865586Y-100820309D01*
X150864867Y-100820741D01*
X150805411Y-100857382D01*
X148492466Y-100857382D01*
X148496775Y-100853288D01*
X148575508Y-100797995D01*
G37*
D10*
X148575508Y-100797995D02*
X148579711Y-100795269D01*
X148610801Y-100776214D01*
X148676769Y-100736649D01*
X148776005Y-100677525D01*
X148906896Y-100599794D01*
X149067832Y-100504407D01*
X149257200Y-100392316D01*
X149473390Y-100264471D01*
X149714791Y-100121824D01*
X149979790Y-99965326D01*
X150266776Y-99795929D01*
X150574138Y-99614584D01*
X150900264Y-99422242D01*
X151243544Y-99219854D01*
X151602365Y-99008373D01*
X151975116Y-98788748D01*
X152360186Y-98561933D01*
X152755963Y-98328877D01*
X153160836Y-98090532D01*
X153285502Y-98017156D01*
X153719046Y-97761989D01*
X154157919Y-97503685D01*
X154599585Y-97243736D01*
X155041512Y-96983632D01*
X155481163Y-96724865D01*
X155916005Y-96468928D01*
X156343503Y-96217312D01*
X156761123Y-95971509D01*
X157166330Y-95733011D01*
X157556589Y-95503308D01*
X157929368Y-95283894D01*
X158282130Y-95076260D01*
X158612342Y-94881897D01*
X158917468Y-94702297D01*
X159194976Y-94538953D01*
X159442329Y-94393355D01*
X159656994Y-94266995D01*
X159750823Y-94211763D01*
X160036041Y-94043613D01*
X160327865Y-93871087D01*
X160622068Y-93696711D01*
X160914422Y-93523008D01*
X161200700Y-93352504D01*
X161476676Y-93187722D01*
X161738124Y-93031187D01*
X161980815Y-92885424D01*
X162200523Y-92752957D01*
X162393022Y-92636310D01*
X162554084Y-92538009D01*
X162582917Y-92520302D01*
X162762574Y-92410189D01*
X162931522Y-92307333D01*
X163086309Y-92213789D01*
X163223482Y-92131610D01*
X163339586Y-92062850D01*
X163431168Y-92009565D01*
X163494775Y-91973807D01*
X163526953Y-91957632D01*
X163530048Y-91956928D01*
X163547199Y-91974880D01*
X163586534Y-92022687D01*
X163644892Y-92096298D01*
X163719109Y-92191661D01*
X163806024Y-92304725D01*
X163902475Y-92431438D01*
X163964291Y-92513241D01*
X164079412Y-92666492D01*
X164170879Y-92789619D01*
X164240932Y-92885990D01*
X164291807Y-92958973D01*
X164325745Y-93011937D01*
X164344982Y-93048248D01*
X164351757Y-93071277D01*
X164348309Y-93084390D01*
X164345546Y-93086945D01*
X164320235Y-93102654D01*
X164262453Y-93136934D01*
X164176459Y-93187307D01*
X164066512Y-93251294D01*
X163936871Y-93326419D01*
X163791794Y-93410202D01*
X163635540Y-93500165D01*
X163619209Y-93509553D01*
X163463500Y-93599048D01*
X163319721Y-93681694D01*
X163191911Y-93755168D01*
X163084105Y-93817149D01*
X163000343Y-93865316D01*
X162944661Y-93897348D01*
X162921096Y-93910924D01*
X162920595Y-93911217D01*
X162928287Y-93929725D01*
X162953064Y-93977993D01*
X162991174Y-94048928D01*
X163038868Y-94135438D01*
X163044482Y-94145499D01*
X163317632Y-94661981D01*
X163579535Y-95211431D01*
X163826994Y-95785258D01*
X164056814Y-96374876D01*
X164265799Y-96971695D01*
X164450754Y-97567126D01*
X164608483Y-98152581D01*
X164723131Y-98657106D01*
X164789604Y-98995859D01*
X164843241Y-99307423D01*
X164885118Y-99602535D01*
X164916310Y-99891930D01*
X164937892Y-100186347D01*
X164950940Y-100496520D01*
X164956530Y-100833188D01*
X164956905Y-100991216D01*
X164955403Y-101252700D01*
X164951134Y-101479982D01*
X164943386Y-101681141D01*
X164931450Y-101864257D01*
X164914617Y-102037411D01*
X164892177Y-102208682D01*
X164863420Y-102386150D01*
X164827638Y-102577896D01*
X164809639Y-102668104D01*
X164679734Y-103207514D01*
X164512599Y-103727795D01*
X164308588Y-104228106D01*
X164068051Y-104707606D01*
X163791341Y-105165453D01*
X163723566Y-105266224D01*
X163402289Y-105697470D01*
X163044399Y-106107478D01*
X162649914Y-106496232D01*
X162218851Y-106863714D01*
X161751230Y-107209906D01*
X161604817Y-107308948D01*
X161415275Y-107432678D01*
X161242370Y-107541004D01*
X161075126Y-107640232D01*
X160902566Y-107736670D01*
X160713714Y-107836627D01*
X160497595Y-107946410D01*
X160482183Y-107954116D01*
X159988682Y-108184856D01*
X159506667Y-108377627D01*
X159031711Y-108533691D01*
X158559387Y-108654306D01*
X158085268Y-108740733D01*
X157604928Y-108794233D01*
X157506624Y-108801163D01*
X157363735Y-108809974D01*
X157250604Y-108815745D01*
X157154958Y-108818449D01*
X157064527Y-108818064D01*
X156967039Y-108814566D01*
X156850224Y-108807930D01*
X156724136Y-108799641D01*
X156225528Y-108744858D01*
X155731031Y-108648201D01*
X155241094Y-108509968D01*
X154756164Y-108330458D01*
X154276688Y-108109973D01*
X153803115Y-107848810D01*
X153335890Y-107547269D01*
X152875462Y-107205651D01*
X152422278Y-106824253D01*
X151976785Y-106403377D01*
X151539431Y-105943320D01*
X151110663Y-105444384D01*
X150690929Y-104906866D01*
X150483763Y-104622575D01*
X150076430Y-104024534D01*
X149690424Y-103403263D01*
X149322070Y-102752597D01*
X149011884Y-102155382D01*
X148920807Y-101970404D01*
X148827958Y-101777119D01*
X148736720Y-101582910D01*
X148650474Y-101395158D01*
X148572603Y-101221245D01*
X148506487Y-101068553D01*
X148455508Y-100944462D01*
X148446288Y-100920766D01*
X148454432Y-100893525D01*
X148492466Y-100857382D01*
X150805411Y-100857382D01*
X150990632Y-101067174D01*
X151175297Y-101270375D01*
X151383808Y-101489485D01*
X151608598Y-101717163D01*
X151842103Y-101946070D01*
X152076756Y-102168867D01*
X152304991Y-102378214D01*
X152519244Y-102566771D01*
X152649406Y-102676340D01*
X153082778Y-103015427D01*
X153519151Y-103321777D01*
X153955789Y-103593812D01*
X154389957Y-103829950D01*
X154818922Y-104028612D01*
X155239949Y-104188216D01*
X155299005Y-104207644D01*
X155683134Y-104317901D01*
X156051176Y-104394433D01*
X156411429Y-104438117D01*
X156772193Y-104449832D01*
X157141769Y-104430455D01*
X157274323Y-104416538D01*
X157607570Y-104359679D01*
X157945095Y-104268763D01*
X158278946Y-104147267D01*
X158601174Y-103998670D01*
X158903826Y-103826449D01*
X159178953Y-103634082D01*
X159309533Y-103526340D01*
X159565894Y-103273943D01*
X159789094Y-102995505D01*
X159979100Y-102691339D01*
X160135881Y-102361757D01*
X160259405Y-102007072D01*
X160349640Y-101627595D01*
X160406555Y-101223639D01*
X160430119Y-100795517D01*
X160420300Y-100343540D01*
X160377066Y-99868021D01*
X160300385Y-99369272D01*
X160190227Y-98847606D01*
X160046560Y-98303335D01*
X159888790Y-97795049D01*
X159841705Y-97657141D01*
X159786813Y-97503474D01*
X159725897Y-97338444D01*
X159660743Y-97166447D01*
X159593136Y-96991881D01*
X159524859Y-96819142D01*
X159457699Y-96652626D01*
X159393439Y-96496731D01*
X159333864Y-96355853D01*
X159280760Y-96234388D01*
X159235911Y-96136734D01*
X159201101Y-96067287D01*
X159178115Y-96030444D01*
X159170635Y-96025873D01*
X159132427Y-96047803D01*
X159060516Y-96089196D01*
X158956904Y-96148898D01*
X158823596Y-96225750D01*
X158662594Y-96318597D01*
X158475902Y-96426282D01*
X158265524Y-96547648D01*
X158033461Y-96681540D01*
X157781719Y-96826800D01*
X157512299Y-96982272D01*
X157227206Y-97146799D01*
X156928442Y-97319226D01*
X156618012Y-97498395D01*
X156297917Y-97683151D01*
X155970162Y-97872335D01*
X155636750Y-98064794D01*
X155299684Y-98259368D01*
X154960968Y-98454903D01*
X154622604Y-98650241D01*
X154286597Y-98844227D01*
X153954948Y-99035703D01*
X153629662Y-99223513D01*
X153312743Y-99406501D01*
X153006192Y-99583511D01*
X152712014Y-99753385D01*
X152432212Y-99914967D01*
X152168789Y-100067100D01*
X151923748Y-100208629D01*
X151699093Y-100338397D01*
X151496827Y-100455247D01*
X151318954Y-100558022D01*
X151167476Y-100645567D01*
X151044397Y-100716725D01*
X150951720Y-100770338D01*
X150891449Y-100805252D01*
X150865586Y-100820309D01*
X150864867Y-100820741D01*
X150805411Y-100857382D01*
X148492466Y-100857382D01*
X148496775Y-100853288D01*
X148575508Y-100797995D01*
G36*
X126201433Y-77690001D02*
G01*
X126364767Y-77690551D01*
X126542943Y-77691526D01*
X126577365Y-77691756D01*
X127386990Y-77697299D01*
X127841954Y-78485757D01*
X128296918Y-79274216D01*
X129404519Y-79274216D01*
X129720015Y-79819257D01*
X130035511Y-80364299D01*
X129489125Y-80369942D01*
X129342041Y-80371773D01*
X129209942Y-80374015D01*
X129098405Y-80376525D01*
X129013006Y-80379160D01*
X128959325Y-80381775D01*
X128942740Y-80384002D01*
X128953133Y-80402979D01*
X128983532Y-80456573D01*
X129032763Y-80542748D01*
X129099654Y-80659466D01*
X129183032Y-80804690D01*
X129281725Y-80976381D01*
X129394559Y-81172503D01*
X129520363Y-81391019D01*
X129657964Y-81629890D01*
X129806189Y-81887079D01*
X129963865Y-82160549D01*
X130129819Y-82448262D01*
X130302880Y-82748181D01*
X130481874Y-83058269D01*
X130490332Y-83072919D01*
X130669463Y-83383452D01*
X130842525Y-83683995D01*
X131008356Y-83972507D01*
X131165796Y-84246945D01*
X131313684Y-84505267D01*
X131450858Y-84745433D01*
X131576158Y-84965399D01*
X131688420Y-85163123D01*
X131786486Y-85336566D01*
X131869193Y-85483683D01*
X131935380Y-85602434D01*
X131983886Y-85690776D01*
X132013550Y-85746668D01*
X132023211Y-85768068D01*
X132023152Y-85768192D01*
X132000561Y-85770064D01*
X131938141Y-85771983D01*
X131838398Y-85773928D01*
X131703837Y-85775879D01*
X131536962Y-85777815D01*
X131340279Y-85779717D01*
X131116292Y-85781565D01*
X130867507Y-85783336D01*
X130596429Y-85785012D01*
X130305562Y-85786573D01*
X129997411Y-85787997D01*
X129674482Y-85789265D01*
X129339280Y-85790356D01*
X129260487Y-85790580D01*
X126512594Y-85798196D01*
X126481153Y-85748247D01*
X126458957Y-85711451D01*
X126421080Y-85647014D01*
X126370869Y-85560762D01*
X126311668Y-85458521D01*
X126246823Y-85346117D01*
X126179680Y-85229376D01*
X126113584Y-85114122D01*
X126051882Y-85006183D01*
X125997918Y-84911383D01*
X125955039Y-84835548D01*
X125926590Y-84784504D01*
X125915917Y-84764076D01*
X125915906Y-84763994D01*
X125936582Y-84762890D01*
X125996644Y-84761835D01*
X126093147Y-84760838D01*
X126223144Y-84759913D01*
X126383688Y-84759070D01*
X126571833Y-84758321D01*
X126784633Y-84757677D01*
X127019141Y-84757150D01*
X127272411Y-84756752D01*
X127541496Y-84756493D01*
X127823450Y-84756385D01*
X127873823Y-84756382D01*
X128157723Y-84756293D01*
X128429269Y-84756033D01*
X128685515Y-84755616D01*
X128923514Y-84755054D01*
X129140320Y-84754360D01*
X129332986Y-84753547D01*
X129498566Y-84752628D01*
X129634114Y-84751614D01*
X129736682Y-84750519D01*
X129803325Y-84749356D01*
X129831096Y-84748138D01*
X129831740Y-84747920D01*
X129821366Y-84728868D01*
X129791112Y-84675425D01*
X129742279Y-84589855D01*
X129676170Y-84474420D01*
X129594084Y-84331384D01*
X129497325Y-84163009D01*
X129387194Y-83971558D01*
X129264991Y-83759294D01*
X129132019Y-83528479D01*
X128989578Y-83281378D01*
X128838972Y-83020252D01*
X128681500Y-82747364D01*
X128574756Y-82562462D01*
X127317772Y-80385466D01*
X121732631Y-80380033D01*
X116147490Y-80374601D01*
X115839139Y-79840283D01*
X115530789Y-79305966D01*
X117087972Y-79300113D01*
X117276611Y-79299403D01*
X117504312Y-79298543D01*
X117767804Y-79297547D01*
X118063817Y-79296426D01*
X118389080Y-79295192D01*
X118740323Y-79293860D01*
X119114274Y-79292439D01*
X119507663Y-79290945D01*
X119917219Y-79289387D01*
X120339672Y-79287780D01*
X120771751Y-79286136D01*
X121210184Y-79284466D01*
X121651702Y-79282784D01*
X122093033Y-79281101D01*
X122530908Y-79279431D01*
X122657739Y-79278947D01*
X126670321Y-79263632D01*
X126219030Y-78482039D01*
X126123529Y-78316477D01*
X126034913Y-78162541D01*
X125955358Y-78024033D01*
X125887039Y-77904753D01*
X125832132Y-77808502D01*
X125792810Y-77739083D01*
X125771250Y-77700295D01*
X125767740Y-77693329D01*
X125788142Y-77691883D01*
X125846294Y-77690818D01*
X125937614Y-77690143D01*
X126057521Y-77689868D01*
X126201433Y-77690001D01*
G37*
X126201433Y-77690001D02*
X126364767Y-77690551D01*
X126542943Y-77691526D01*
X126577365Y-77691756D01*
X127386990Y-77697299D01*
X127841954Y-78485757D01*
X128296918Y-79274216D01*
X129404519Y-79274216D01*
X129720015Y-79819257D01*
X130035511Y-80364299D01*
X129489125Y-80369942D01*
X129342041Y-80371773D01*
X129209942Y-80374015D01*
X129098405Y-80376525D01*
X129013006Y-80379160D01*
X128959325Y-80381775D01*
X128942740Y-80384002D01*
X128953133Y-80402979D01*
X128983532Y-80456573D01*
X129032763Y-80542748D01*
X129099654Y-80659466D01*
X129183032Y-80804690D01*
X129281725Y-80976381D01*
X129394559Y-81172503D01*
X129520363Y-81391019D01*
X129657964Y-81629890D01*
X129806189Y-81887079D01*
X129963865Y-82160549D01*
X130129819Y-82448262D01*
X130302880Y-82748181D01*
X130481874Y-83058269D01*
X130490332Y-83072919D01*
X130669463Y-83383452D01*
X130842525Y-83683995D01*
X131008356Y-83972507D01*
X131165796Y-84246945D01*
X131313684Y-84505267D01*
X131450858Y-84745433D01*
X131576158Y-84965399D01*
X131688420Y-85163123D01*
X131786486Y-85336566D01*
X131869193Y-85483683D01*
X131935380Y-85602434D01*
X131983886Y-85690776D01*
X132013550Y-85746668D01*
X132023211Y-85768068D01*
X132023152Y-85768192D01*
X132000561Y-85770064D01*
X131938141Y-85771983D01*
X131838398Y-85773928D01*
X131703837Y-85775879D01*
X131536962Y-85777815D01*
X131340279Y-85779717D01*
X131116292Y-85781565D01*
X130867507Y-85783336D01*
X130596429Y-85785012D01*
X130305562Y-85786573D01*
X129997411Y-85787997D01*
X129674482Y-85789265D01*
X129339280Y-85790356D01*
X129260487Y-85790580D01*
X126512594Y-85798196D01*
X126481153Y-85748247D01*
X126458957Y-85711451D01*
X126421080Y-85647014D01*
X126370869Y-85560762D01*
X126311668Y-85458521D01*
X126246823Y-85346117D01*
X126179680Y-85229376D01*
X126113584Y-85114122D01*
X126051882Y-85006183D01*
X125997918Y-84911383D01*
X125955039Y-84835548D01*
X125926590Y-84784504D01*
X125915917Y-84764076D01*
X125915906Y-84763994D01*
X125936582Y-84762890D01*
X125996644Y-84761835D01*
X126093147Y-84760838D01*
X126223144Y-84759913D01*
X126383688Y-84759070D01*
X126571833Y-84758321D01*
X126784633Y-84757677D01*
X127019141Y-84757150D01*
X127272411Y-84756752D01*
X127541496Y-84756493D01*
X127823450Y-84756385D01*
X127873823Y-84756382D01*
X128157723Y-84756293D01*
X128429269Y-84756033D01*
X128685515Y-84755616D01*
X128923514Y-84755054D01*
X129140320Y-84754360D01*
X129332986Y-84753547D01*
X129498566Y-84752628D01*
X129634114Y-84751614D01*
X129736682Y-84750519D01*
X129803325Y-84749356D01*
X129831096Y-84748138D01*
X129831740Y-84747920D01*
X129821366Y-84728868D01*
X129791112Y-84675425D01*
X129742279Y-84589855D01*
X129676170Y-84474420D01*
X129594084Y-84331384D01*
X129497325Y-84163009D01*
X129387194Y-83971558D01*
X129264991Y-83759294D01*
X129132019Y-83528479D01*
X128989578Y-83281378D01*
X128838972Y-83020252D01*
X128681500Y-82747364D01*
X128574756Y-82562462D01*
X127317772Y-80385466D01*
X121732631Y-80380033D01*
X116147490Y-80374601D01*
X115839139Y-79840283D01*
X115530789Y-79305966D01*
X117087972Y-79300113D01*
X117276611Y-79299403D01*
X117504312Y-79298543D01*
X117767804Y-79297547D01*
X118063817Y-79296426D01*
X118389080Y-79295192D01*
X118740323Y-79293860D01*
X119114274Y-79292439D01*
X119507663Y-79290945D01*
X119917219Y-79289387D01*
X120339672Y-79287780D01*
X120771751Y-79286136D01*
X121210184Y-79284466D01*
X121651702Y-79282784D01*
X122093033Y-79281101D01*
X122530908Y-79279431D01*
X122657739Y-79278947D01*
X126670321Y-79263632D01*
X126219030Y-78482039D01*
X126123529Y-78316477D01*
X126034913Y-78162541D01*
X125955358Y-78024033D01*
X125887039Y-77904753D01*
X125832132Y-77808502D01*
X125792810Y-77739083D01*
X125771250Y-77700295D01*
X125767740Y-77693329D01*
X125788142Y-77691883D01*
X125846294Y-77690818D01*
X125937614Y-77690143D01*
X126057521Y-77689868D01*
X126201433Y-77690001D01*
G36*
X134154823Y-86256007D02*
G01*
X134232912Y-86298608D01*
X134294517Y-86334201D01*
X134331672Y-86358068D01*
X134338939Y-86365049D01*
X134322293Y-86380739D01*
X134277987Y-86414858D01*
X134213307Y-86461940D01*
X134155577Y-86502632D01*
X134072780Y-86562792D01*
X133969187Y-86641860D01*
X133856031Y-86731061D01*
X133744545Y-86821622D01*
X133704393Y-86855038D01*
X133435688Y-87080444D01*
X133258414Y-86985725D01*
X133180666Y-86943710D01*
X133117934Y-86908921D01*
X133078998Y-86886273D01*
X133070894Y-86880759D01*
X133081330Y-86863094D01*
X133120202Y-86823957D01*
X133182337Y-86767615D01*
X133262562Y-86698337D01*
X133355703Y-86620389D01*
X133456587Y-86538039D01*
X133560041Y-86455554D01*
X133660892Y-86377202D01*
X133753966Y-86307251D01*
X133834090Y-86249967D01*
X133842823Y-86243988D01*
X133969823Y-86157548D01*
X134154823Y-86256007D01*
G37*
X134154823Y-86256007D02*
X134232912Y-86298608D01*
X134294517Y-86334201D01*
X134331672Y-86358068D01*
X134338939Y-86365049D01*
X134322293Y-86380739D01*
X134277987Y-86414858D01*
X134213307Y-86461940D01*
X134155577Y-86502632D01*
X134072780Y-86562792D01*
X133969187Y-86641860D01*
X133856031Y-86731061D01*
X133744545Y-86821622D01*
X133704393Y-86855038D01*
X133435688Y-87080444D01*
X133258414Y-86985725D01*
X133180666Y-86943710D01*
X133117934Y-86908921D01*
X133078998Y-86886273D01*
X133070894Y-86880759D01*
X133081330Y-86863094D01*
X133120202Y-86823957D01*
X133182337Y-86767615D01*
X133262562Y-86698337D01*
X133355703Y-86620389D01*
X133456587Y-86538039D01*
X133560041Y-86455554D01*
X133660892Y-86377202D01*
X133753966Y-86307251D01*
X133834090Y-86249967D01*
X133842823Y-86243988D01*
X133969823Y-86157548D01*
X134154823Y-86256007D01*
G36*
X165993056Y-80829966D02*
G01*
X166396999Y-81528466D01*
X166800941Y-82226966D01*
X164170382Y-82237549D01*
X161539822Y-82248132D01*
X162101576Y-83221799D01*
X162209546Y-83408819D01*
X162311875Y-83585836D01*
X162406473Y-83749252D01*
X162491254Y-83895473D01*
X162564129Y-84020902D01*
X162623012Y-84121944D01*
X162665813Y-84195002D01*
X162690445Y-84236481D01*
X162694864Y-84243611D01*
X162726398Y-84291757D01*
X165959592Y-84285945D01*
X169192787Y-84280132D01*
X169607619Y-84999799D01*
X170022452Y-85719466D01*
X168776012Y-85724925D01*
X168550668Y-85726101D01*
X168338424Y-85727576D01*
X168142974Y-85729298D01*
X167968009Y-85731219D01*
X167817223Y-85733287D01*
X167694308Y-85735453D01*
X167602958Y-85737667D01*
X167546865Y-85739878D01*
X167529573Y-85741858D01*
X167539957Y-85761234D01*
X167570298Y-85815144D01*
X167619376Y-85901467D01*
X167685973Y-86018080D01*
X167768868Y-86162860D01*
X167866844Y-86333687D01*
X167978681Y-86528437D01*
X168103160Y-86744988D01*
X168239062Y-86981218D01*
X168385168Y-87235005D01*
X168540260Y-87504227D01*
X168703117Y-87786761D01*
X168872521Y-88080485D01*
X168961135Y-88234065D01*
X169133532Y-88532811D01*
X169300126Y-88821504D01*
X169459689Y-89098017D01*
X169610993Y-89360220D01*
X169752810Y-89605988D01*
X169883913Y-89833190D01*
X170003073Y-90039700D01*
X170109062Y-90223389D01*
X170200653Y-90382129D01*
X170276618Y-90513792D01*
X170335729Y-90616251D01*
X170376758Y-90687377D01*
X170398476Y-90725042D01*
X170401718Y-90730674D01*
X170383128Y-90733909D01*
X170326335Y-90736923D01*
X170235470Y-90739648D01*
X170114663Y-90742015D01*
X169968044Y-90743956D01*
X169799743Y-90745403D01*
X169613891Y-90746288D01*
X169438785Y-90746549D01*
X168466833Y-90746549D01*
X167019244Y-88238507D01*
X165571656Y-85730465D01*
X163616253Y-85724965D01*
X161660850Y-85719466D01*
X160530099Y-83761549D01*
X160370193Y-83484659D01*
X160211513Y-83209876D01*
X160055929Y-82940438D01*
X159905311Y-82679584D01*
X159761529Y-82430552D01*
X159626452Y-82196581D01*
X159501950Y-81980910D01*
X159389892Y-81786777D01*
X159292149Y-81617422D01*
X159210590Y-81476082D01*
X159147085Y-81365997D01*
X159115631Y-81311446D01*
X158831914Y-80819260D01*
X165993056Y-80829966D01*
G37*
X165993056Y-80829966D02*
X166396999Y-81528466D01*
X166800941Y-82226966D01*
X164170382Y-82237549D01*
X161539822Y-82248132D01*
X162101576Y-83221799D01*
X162209546Y-83408819D01*
X162311875Y-83585836D01*
X162406473Y-83749252D01*
X162491254Y-83895473D01*
X162564129Y-84020902D01*
X162623012Y-84121944D01*
X162665813Y-84195002D01*
X162690445Y-84236481D01*
X162694864Y-84243611D01*
X162726398Y-84291757D01*
X165959592Y-84285945D01*
X169192787Y-84280132D01*
X169607619Y-84999799D01*
X170022452Y-85719466D01*
X168776012Y-85724925D01*
X168550668Y-85726101D01*
X168338424Y-85727576D01*
X168142974Y-85729298D01*
X167968009Y-85731219D01*
X167817223Y-85733287D01*
X167694308Y-85735453D01*
X167602958Y-85737667D01*
X167546865Y-85739878D01*
X167529573Y-85741858D01*
X167539957Y-85761234D01*
X167570298Y-85815144D01*
X167619376Y-85901467D01*
X167685973Y-86018080D01*
X167768868Y-86162860D01*
X167866844Y-86333687D01*
X167978681Y-86528437D01*
X168103160Y-86744988D01*
X168239062Y-86981218D01*
X168385168Y-87235005D01*
X168540260Y-87504227D01*
X168703117Y-87786761D01*
X168872521Y-88080485D01*
X168961135Y-88234065D01*
X169133532Y-88532811D01*
X169300126Y-88821504D01*
X169459689Y-89098017D01*
X169610993Y-89360220D01*
X169752810Y-89605988D01*
X169883913Y-89833190D01*
X170003073Y-90039700D01*
X170109062Y-90223389D01*
X170200653Y-90382129D01*
X170276618Y-90513792D01*
X170335729Y-90616251D01*
X170376758Y-90687377D01*
X170398476Y-90725042D01*
X170401718Y-90730674D01*
X170383128Y-90733909D01*
X170326335Y-90736923D01*
X170235470Y-90739648D01*
X170114663Y-90742015D01*
X169968044Y-90743956D01*
X169799743Y-90745403D01*
X169613891Y-90746288D01*
X169438785Y-90746549D01*
X168466833Y-90746549D01*
X167019244Y-88238507D01*
X165571656Y-85730465D01*
X163616253Y-85724965D01*
X161660850Y-85719466D01*
X160530099Y-83761549D01*
X160370193Y-83484659D01*
X160211513Y-83209876D01*
X160055929Y-82940438D01*
X159905311Y-82679584D01*
X159761529Y-82430552D01*
X159626452Y-82196581D01*
X159501950Y-81980910D01*
X159389892Y-81786777D01*
X159292149Y-81617422D01*
X159210590Y-81476082D01*
X159147085Y-81365997D01*
X159115631Y-81311446D01*
X158831914Y-80819260D01*
X165993056Y-80829966D01*
G36*
X158237406Y-88651049D02*
G01*
X157866990Y-88651049D01*
X157714060Y-88652306D01*
X157601066Y-88656049D01*
X157528728Y-88662234D01*
X157497767Y-88670818D01*
X157496573Y-88673208D01*
X157506785Y-88696441D01*
X157535698Y-88751600D01*
X157580724Y-88834021D01*
X157639274Y-88939037D01*
X157708761Y-89061985D01*
X157786598Y-89198200D01*
X157819365Y-89255136D01*
X158142156Y-89814905D01*
X158570781Y-89815060D01*
X158999406Y-89815216D01*
X158999406Y-90258553D01*
X158406418Y-90270299D01*
X158687184Y-90757132D01*
X158967950Y-91243966D01*
X159930740Y-91255344D01*
X159930740Y-91677882D01*
X159327977Y-91677882D01*
X159152694Y-91677820D01*
X159014931Y-91677390D01*
X158909876Y-91676233D01*
X158832716Y-91673984D01*
X158778638Y-91670284D01*
X158742830Y-91664769D01*
X158720479Y-91657078D01*
X158706771Y-91646849D01*
X158696895Y-91633720D01*
X158694663Y-91630257D01*
X158679935Y-91605481D01*
X158645927Y-91547231D01*
X158594492Y-91458717D01*
X158527481Y-91343146D01*
X158446746Y-91203727D01*
X158354139Y-91043669D01*
X158251511Y-90866181D01*
X158140715Y-90674471D01*
X158023602Y-90471747D01*
X157902024Y-90261219D01*
X157777833Y-90046095D01*
X157652881Y-89829583D01*
X157529019Y-89614893D01*
X157408099Y-89405232D01*
X157291974Y-89203810D01*
X157182494Y-89013835D01*
X157081512Y-88838515D01*
X156990879Y-88681060D01*
X156912448Y-88544677D01*
X156848070Y-88432576D01*
X156799596Y-88347965D01*
X156768880Y-88294052D01*
X156758420Y-88275341D01*
X156733083Y-88227716D01*
X158237406Y-88227716D01*
X158237406Y-88651049D01*
G37*
X158237406Y-88651049D02*
X157866990Y-88651049D01*
X157714060Y-88652306D01*
X157601066Y-88656049D01*
X157528728Y-88662234D01*
X157497767Y-88670818D01*
X157496573Y-88673208D01*
X157506785Y-88696441D01*
X157535698Y-88751600D01*
X157580724Y-88834021D01*
X157639274Y-88939037D01*
X157708761Y-89061985D01*
X157786598Y-89198200D01*
X157819365Y-89255136D01*
X158142156Y-89814905D01*
X158570781Y-89815060D01*
X158999406Y-89815216D01*
X158999406Y-90258553D01*
X158406418Y-90270299D01*
X158687184Y-90757132D01*
X158967950Y-91243966D01*
X159930740Y-91255344D01*
X159930740Y-91677882D01*
X159327977Y-91677882D01*
X159152694Y-91677820D01*
X159014931Y-91677390D01*
X158909876Y-91676233D01*
X158832716Y-91673984D01*
X158778638Y-91670284D01*
X158742830Y-91664769D01*
X158720479Y-91657078D01*
X158706771Y-91646849D01*
X158696895Y-91633720D01*
X158694663Y-91630257D01*
X158679935Y-91605481D01*
X158645927Y-91547231D01*
X158594492Y-91458717D01*
X158527481Y-91343146D01*
X158446746Y-91203727D01*
X158354139Y-91043669D01*
X158251511Y-90866181D01*
X158140715Y-90674471D01*
X158023602Y-90471747D01*
X157902024Y-90261219D01*
X157777833Y-90046095D01*
X157652881Y-89829583D01*
X157529019Y-89614893D01*
X157408099Y-89405232D01*
X157291974Y-89203810D01*
X157182494Y-89013835D01*
X157081512Y-88838515D01*
X156990879Y-88681060D01*
X156912448Y-88544677D01*
X156848070Y-88432576D01*
X156799596Y-88347965D01*
X156768880Y-88294052D01*
X156758420Y-88275341D01*
X156733083Y-88227716D01*
X158237406Y-88227716D01*
X158237406Y-88651049D01*
G36*
X125767740Y-87254049D02*
G01*
X123819742Y-87254049D01*
X123479767Y-87253958D01*
X123179817Y-87253662D01*
X122917585Y-87253129D01*
X122690762Y-87252325D01*
X122497042Y-87251218D01*
X122334116Y-87249774D01*
X122199678Y-87247960D01*
X122091418Y-87245743D01*
X122007030Y-87243091D01*
X121944206Y-87239970D01*
X121900638Y-87236347D01*
X121874018Y-87232190D01*
X121862039Y-87227464D01*
X121860982Y-87226003D01*
X121856897Y-87193520D01*
X121854902Y-87129770D01*
X121855221Y-87045780D01*
X121856355Y-86998461D01*
X121862490Y-86798966D01*
X125767740Y-86788162D01*
X125767740Y-87254049D01*
G37*
X125767740Y-87254049D02*
X123819742Y-87254049D01*
X123479767Y-87253958D01*
X123179817Y-87253662D01*
X122917585Y-87253129D01*
X122690762Y-87252325D01*
X122497042Y-87251218D01*
X122334116Y-87249774D01*
X122199678Y-87247960D01*
X122091418Y-87245743D01*
X122007030Y-87243091D01*
X121944206Y-87239970D01*
X121900638Y-87236347D01*
X121874018Y-87232190D01*
X121862039Y-87227464D01*
X121860982Y-87226003D01*
X121856897Y-87193520D01*
X121854902Y-87129770D01*
X121855221Y-87045780D01*
X121856355Y-86998461D01*
X121862490Y-86798966D01*
X125767740Y-86788162D01*
X125767740Y-87254049D01*
G36*
X126826073Y-88502882D02*
G01*
X123877565Y-88502882D01*
X123890055Y-88783341D01*
X123918202Y-89070694D01*
X123977063Y-89331647D01*
X124068629Y-89570897D01*
X124194893Y-89793141D01*
X124357847Y-90003080D01*
X124447895Y-90099057D01*
X124553013Y-90196861D01*
X124679019Y-90301338D01*
X124812213Y-90401947D01*
X124938894Y-90488150D01*
X125006488Y-90528802D01*
X125063341Y-90562468D01*
X125101327Y-90588287D01*
X125111145Y-90598382D01*
X125093226Y-90612418D01*
X125045213Y-90640765D01*
X124975124Y-90679299D01*
X124890973Y-90723897D01*
X124800776Y-90770436D01*
X124712550Y-90814792D01*
X124634310Y-90852842D01*
X124574072Y-90880463D01*
X124539852Y-90893531D01*
X124536372Y-90894043D01*
X124507915Y-90882119D01*
X124454274Y-90850606D01*
X124384391Y-90804966D01*
X124338990Y-90773500D01*
X124151710Y-90627413D01*
X123969273Y-90459682D01*
X123798265Y-90277899D01*
X123645267Y-90089656D01*
X123516866Y-89902545D01*
X123419644Y-89724158D01*
X123409520Y-89701734D01*
X123312081Y-89433027D01*
X123245165Y-89143488D01*
X123210911Y-88843694D01*
X123206698Y-88698674D01*
X123206573Y-88502882D01*
X120793573Y-88502882D01*
X120793573Y-88058382D01*
X126826073Y-88058382D01*
X126826073Y-88502882D01*
G37*
X126826073Y-88502882D02*
X123877565Y-88502882D01*
X123890055Y-88783341D01*
X123918202Y-89070694D01*
X123977063Y-89331647D01*
X124068629Y-89570897D01*
X124194893Y-89793141D01*
X124357847Y-90003080D01*
X124447895Y-90099057D01*
X124553013Y-90196861D01*
X124679019Y-90301338D01*
X124812213Y-90401947D01*
X124938894Y-90488150D01*
X125006488Y-90528802D01*
X125063341Y-90562468D01*
X125101327Y-90588287D01*
X125111145Y-90598382D01*
X125093226Y-90612418D01*
X125045213Y-90640765D01*
X124975124Y-90679299D01*
X124890973Y-90723897D01*
X124800776Y-90770436D01*
X124712550Y-90814792D01*
X124634310Y-90852842D01*
X124574072Y-90880463D01*
X124539852Y-90893531D01*
X124536372Y-90894043D01*
X124507915Y-90882119D01*
X124454274Y-90850606D01*
X124384391Y-90804966D01*
X124338990Y-90773500D01*
X124151710Y-90627413D01*
X123969273Y-90459682D01*
X123798265Y-90277899D01*
X123645267Y-90089656D01*
X123516866Y-89902545D01*
X123419644Y-89724158D01*
X123409520Y-89701734D01*
X123312081Y-89433027D01*
X123245165Y-89143488D01*
X123210911Y-88843694D01*
X123206698Y-88698674D01*
X123206573Y-88502882D01*
X120793573Y-88502882D01*
X120793573Y-88058382D01*
X126826073Y-88058382D01*
X126826073Y-88502882D01*
G36*
X160100712Y-88405002D02*
G01*
X160048928Y-88313136D01*
X160014160Y-88250652D01*
X159998204Y-88220669D01*
X159997371Y-88218439D01*
X160019523Y-88216619D01*
X160079124Y-88214394D01*
X160171292Y-88211876D01*
X160291144Y-88209177D01*
X160433801Y-88206407D01*
X160594379Y-88203679D01*
X160737485Y-88201530D01*
X161470146Y-88191162D01*
X162457276Y-89901219D01*
X162599903Y-90148426D01*
X162736352Y-90385172D01*
X162865153Y-90608895D01*
X162984837Y-90817031D01*
X163093934Y-91007015D01*
X163190976Y-91176284D01*
X163274493Y-91322275D01*
X163343014Y-91442424D01*
X163395072Y-91534167D01*
X163429196Y-91594941D01*
X163443917Y-91622182D01*
X163444406Y-91623412D01*
X163424039Y-91626240D01*
X163366138Y-91628834D01*
X163275500Y-91631116D01*
X163156924Y-91633007D01*
X163015209Y-91634427D01*
X162855153Y-91635299D01*
X162706165Y-91635549D01*
X162498016Y-91635192D01*
X162328867Y-91634044D01*
X162195391Y-91631989D01*
X162094259Y-91628911D01*
X162022143Y-91624693D01*
X161975717Y-91619220D01*
X161951652Y-91612376D01*
X161947432Y-91609091D01*
X161932017Y-91584595D01*
X161897742Y-91527101D01*
X161846401Y-91439726D01*
X161779787Y-91325589D01*
X161699695Y-91187810D01*
X161607918Y-91029508D01*
X161506251Y-90853802D01*
X161396486Y-90663811D01*
X161280418Y-90462653D01*
X161159841Y-90253448D01*
X161036549Y-90039315D01*
X160912335Y-89823374D01*
X160788994Y-89608742D01*
X160668318Y-89398539D01*
X160552103Y-89195885D01*
X160442142Y-89003898D01*
X160340228Y-88825697D01*
X160248156Y-88664401D01*
X160234476Y-88640373D01*
X160735073Y-88640373D01*
X160745317Y-88659760D01*
X160774660Y-88712171D01*
X160821013Y-88793978D01*
X160882288Y-88901552D01*
X160956400Y-89031267D01*
X161041260Y-89179494D01*
X161134782Y-89342607D01*
X161234877Y-89516976D01*
X161339459Y-89698975D01*
X161446441Y-89884976D01*
X161553734Y-90071351D01*
X161659253Y-90254472D01*
X161760908Y-90430712D01*
X161856614Y-90596444D01*
X161944283Y-90748038D01*
X162021827Y-90881868D01*
X162087160Y-90994306D01*
X162138193Y-91081724D01*
X162172840Y-91140494D01*
X162187449Y-91164591D01*
X162203116Y-91185139D01*
X162224427Y-91198743D01*
X162259543Y-91206826D01*
X162316625Y-91210810D01*
X162403837Y-91212120D01*
X162460644Y-91212216D01*
X162556226Y-91210925D01*
X162633894Y-91207417D01*
X162685338Y-91202237D01*
X162702363Y-91196341D01*
X162691819Y-91175821D01*
X162661741Y-91121678D01*
X162613843Y-91036905D01*
X162549838Y-90924492D01*
X162471440Y-90787433D01*
X162380363Y-90628718D01*
X162278319Y-90451341D01*
X162167023Y-90258293D01*
X162048187Y-90052566D01*
X161965978Y-89910466D01*
X161230802Y-88640466D01*
X160982938Y-88634502D01*
X160886187Y-88633119D01*
X160807112Y-88633785D01*
X160753987Y-88636306D01*
X160735073Y-88640373D01*
X160234476Y-88640373D01*
X160167719Y-88523129D01*
X160100712Y-88405002D01*
G37*
X160100712Y-88405002D02*
X160048928Y-88313136D01*
X160014160Y-88250652D01*
X159998204Y-88220669D01*
X159997371Y-88218439D01*
X160019523Y-88216619D01*
X160079124Y-88214394D01*
X160171292Y-88211876D01*
X160291144Y-88209177D01*
X160433801Y-88206407D01*
X160594379Y-88203679D01*
X160737485Y-88201530D01*
X161470146Y-88191162D01*
X162457276Y-89901219D01*
X162599903Y-90148426D01*
X162736352Y-90385172D01*
X162865153Y-90608895D01*
X162984837Y-90817031D01*
X163093934Y-91007015D01*
X163190976Y-91176284D01*
X163274493Y-91322275D01*
X163343014Y-91442424D01*
X163395072Y-91534167D01*
X163429196Y-91594941D01*
X163443917Y-91622182D01*
X163444406Y-91623412D01*
X163424039Y-91626240D01*
X163366138Y-91628834D01*
X163275500Y-91631116D01*
X163156924Y-91633007D01*
X163015209Y-91634427D01*
X162855153Y-91635299D01*
X162706165Y-91635549D01*
X162498016Y-91635192D01*
X162328867Y-91634044D01*
X162195391Y-91631989D01*
X162094259Y-91628911D01*
X162022143Y-91624693D01*
X161975717Y-91619220D01*
X161951652Y-91612376D01*
X161947432Y-91609091D01*
X161932017Y-91584595D01*
X161897742Y-91527101D01*
X161846401Y-91439726D01*
X161779787Y-91325589D01*
X161699695Y-91187810D01*
X161607918Y-91029508D01*
X161506251Y-90853802D01*
X161396486Y-90663811D01*
X161280418Y-90462653D01*
X161159841Y-90253448D01*
X161036549Y-90039315D01*
X160912335Y-89823374D01*
X160788994Y-89608742D01*
X160668318Y-89398539D01*
X160552103Y-89195885D01*
X160442142Y-89003898D01*
X160340228Y-88825697D01*
X160248156Y-88664401D01*
X160234476Y-88640373D01*
X160735073Y-88640373D01*
X160745317Y-88659760D01*
X160774660Y-88712171D01*
X160821013Y-88793978D01*
X160882288Y-88901552D01*
X160956400Y-89031267D01*
X161041260Y-89179494D01*
X161134782Y-89342607D01*
X161234877Y-89516976D01*
X161339459Y-89698975D01*
X161446441Y-89884976D01*
X161553734Y-90071351D01*
X161659253Y-90254472D01*
X161760908Y-90430712D01*
X161856614Y-90596444D01*
X161944283Y-90748038D01*
X162021827Y-90881868D01*
X162087160Y-90994306D01*
X162138193Y-91081724D01*
X162172840Y-91140494D01*
X162187449Y-91164591D01*
X162203116Y-91185139D01*
X162224427Y-91198743D01*
X162259543Y-91206826D01*
X162316625Y-91210810D01*
X162403837Y-91212120D01*
X162460644Y-91212216D01*
X162556226Y-91210925D01*
X162633894Y-91207417D01*
X162685338Y-91202237D01*
X162702363Y-91196341D01*
X162691819Y-91175821D01*
X162661741Y-91121678D01*
X162613843Y-91036905D01*
X162549838Y-90924492D01*
X162471440Y-90787433D01*
X162380363Y-90628718D01*
X162278319Y-90451341D01*
X162167023Y-90258293D01*
X162048187Y-90052566D01*
X161965978Y-89910466D01*
X161230802Y-88640466D01*
X160982938Y-88634502D01*
X160886187Y-88633119D01*
X160807112Y-88633785D01*
X160753987Y-88636306D01*
X160735073Y-88640373D01*
X160234476Y-88640373D01*
X160167719Y-88523129D01*
X160100712Y-88405002D01*
G36*
X134765121Y-115079446D02*
G01*
X134863311Y-114692096D01*
X135002465Y-114298367D01*
X135175315Y-113913466D01*
X135408983Y-113479880D01*
X135673895Y-113060892D01*
X135972849Y-112652671D01*
X136308645Y-112251382D01*
X136668573Y-111868802D01*
X136768886Y-111769770D01*
X136878867Y-111664861D01*
X136994243Y-111557785D01*
X137110742Y-111452256D01*
X137224090Y-111351982D01*
X137330015Y-111260677D01*
X137424245Y-111182052D01*
X137502505Y-111119817D01*
X137560525Y-111077684D01*
X137594030Y-111059365D01*
X137599926Y-111059827D01*
X137614414Y-111085079D01*
X137641981Y-111140570D01*
X137678532Y-111217843D01*
X137715888Y-111299382D01*
X137929341Y-111739679D01*
X138162562Y-112156979D01*
X138419801Y-112557422D01*
X138705307Y-112947151D01*
X139023331Y-113332309D01*
X139378122Y-113719036D01*
X139420240Y-113762619D01*
X139868441Y-114195154D01*
X140336876Y-114590552D01*
X140825611Y-114948845D01*
X141334711Y-115270063D01*
X141864241Y-115554237D01*
X142414266Y-115801400D01*
X142984853Y-116011581D01*
X143576066Y-116184813D01*
X144187970Y-116321126D01*
X144820631Y-116420551D01*
X145050573Y-116447017D01*
X145187411Y-116457930D01*
X145357311Y-116466146D01*
X145552198Y-116471713D01*
X145763997Y-116474677D01*
X145984632Y-116475083D01*
X146206029Y-116472978D01*
X146420111Y-116468407D01*
X146618804Y-116461418D01*
X146794033Y-116452056D01*
X146937722Y-116440366D01*
X146976740Y-116436018D01*
X147522533Y-116351947D01*
X148041812Y-116235347D01*
X148535884Y-116085594D01*
X149006060Y-115902066D01*
X149453647Y-115684139D01*
X149879955Y-115431188D01*
X150286293Y-115142592D01*
X150673969Y-114817726D01*
X150968237Y-114534682D01*
X151317003Y-114153439D01*
X151634555Y-113751835D01*
X151923108Y-113326399D01*
X152184876Y-112873659D01*
X152422070Y-112390143D01*
X152592280Y-111987299D01*
X152634443Y-111876355D01*
X152678890Y-111751972D01*
X152723253Y-111621622D01*
X152765166Y-111492779D01*
X152802262Y-111372915D01*
X152832173Y-111269505D01*
X152852533Y-111190021D01*
X152860973Y-111141937D01*
X152861073Y-111138700D01*
X152878423Y-111113470D01*
X152898115Y-111108871D01*
X152926410Y-111112743D01*
X152988382Y-111123467D01*
X153077106Y-111139695D01*
X153185653Y-111160080D01*
X153307096Y-111183274D01*
X153434508Y-111207930D01*
X153560962Y-111232699D01*
X153679531Y-111256235D01*
X153783288Y-111277190D01*
X153865306Y-111294216D01*
X153918657Y-111305966D01*
X153936358Y-111310844D01*
X153935092Y-111333324D01*
X153923389Y-111388866D01*
X153903232Y-111470064D01*
X153876605Y-111569509D01*
X153845491Y-111679793D01*
X153811872Y-111793509D01*
X153777929Y-111902632D01*
X153588432Y-112430734D01*
X153360514Y-112955058D01*
X153097958Y-113468536D01*
X152804550Y-113964102D01*
X152484073Y-114434690D01*
X152275529Y-114708194D01*
X152156554Y-114850786D01*
X152014372Y-115010188D01*
X151856198Y-115179127D01*
X151689245Y-115350330D01*
X151520727Y-115516523D01*
X151357857Y-115670432D01*
X151207847Y-115804785D01*
X151093656Y-115899911D01*
X150638236Y-116235199D01*
X150163826Y-116532729D01*
X149670195Y-116792607D01*
X149157112Y-117014939D01*
X148624345Y-117199833D01*
X148071663Y-117347395D01*
X147855156Y-117393948D01*
X147565490Y-117448370D01*
X147291180Y-117491289D01*
X147021799Y-117523665D01*
X146746920Y-117546464D01*
X146456116Y-117560646D01*
X146138958Y-117567175D01*
X145971323Y-117567872D01*
X145712740Y-117566252D01*
X145483676Y-117561072D01*
X145271405Y-117551541D01*
X145063203Y-117536870D01*
X144846346Y-117516271D01*
X144608110Y-117488953D01*
X144517711Y-117477708D01*
X144164766Y-117433090D01*
X143935628Y-117569881D01*
X143437351Y-117854304D01*
X142929677Y-118118898D01*
X142417486Y-118361703D01*
X141905658Y-118580758D01*
X141399073Y-118774104D01*
X140902612Y-118939779D01*
X140421156Y-119075823D01*
X139959585Y-119180277D01*
X139896490Y-119192331D01*
X139624625Y-119236751D01*
X139340045Y-119271801D01*
X139052778Y-119296836D01*
X138772855Y-119311211D01*
X138510308Y-119314283D01*
X138275167Y-119305406D01*
X138213276Y-119300481D01*
X137787200Y-119243745D01*
X137385988Y-119152958D01*
X137008953Y-119027826D01*
X136655411Y-118868052D01*
X136324677Y-118673342D01*
X136016065Y-118443399D01*
X135820316Y-118268507D01*
X135648912Y-118098217D01*
X135504339Y-117940237D01*
X135377736Y-117784107D01*
X135260245Y-117619369D01*
X135224157Y-117564716D01*
X135035809Y-117237873D01*
X134888372Y-116900689D01*
X134781853Y-116553728D01*
X134716262Y-116197557D01*
X134691604Y-115832742D01*
X134693151Y-115797299D01*
X135791120Y-115797299D01*
X135795372Y-115988574D01*
X135808898Y-116150323D01*
X135834482Y-116294852D01*
X135874908Y-116434467D01*
X135932957Y-116581475D01*
X136001764Y-116728632D01*
X136102509Y-116916588D01*
X136212664Y-117085477D01*
X136341220Y-117247608D01*
X136497169Y-117415292D01*
X136520391Y-117438606D01*
X136764697Y-117652546D01*
X137035434Y-117834321D01*
X137330277Y-117982833D01*
X137646900Y-118096985D01*
X137982978Y-118175679D01*
X138129073Y-118197855D01*
X138224745Y-118206431D01*
X138352151Y-118212564D01*
X138500762Y-118216239D01*
X138660047Y-118217444D01*
X138819477Y-118216163D01*
X138968522Y-118212382D01*
X139096653Y-118206089D01*
X139176823Y-118199257D01*
X139617689Y-118134278D01*
X140078595Y-118036212D01*
X140555078Y-117906489D01*
X141042671Y-117746540D01*
X141536908Y-117557797D01*
X142033325Y-117341691D01*
X142391114Y-117169187D01*
X142489263Y-117118920D01*
X142553296Y-117083260D01*
X142587572Y-117059151D01*
X142596446Y-117043538D01*
X142584656Y-117033521D01*
X142550926Y-117020340D01*
X142485446Y-116995187D01*
X142396064Y-116961062D01*
X142290628Y-116920962D01*
X142224823Y-116896001D01*
X141686117Y-116672437D01*
X141157847Y-116414845D01*
X140649008Y-116127946D01*
X140171438Y-115818436D01*
X139980719Y-115685887D01*
X139906854Y-115748567D01*
X139863448Y-115782267D01*
X139792912Y-115833487D01*
X139703446Y-115896421D01*
X139603246Y-115965263D01*
X139552119Y-115999793D01*
X139313612Y-116151609D01*
X139096965Y-116271400D01*
X138898204Y-116360685D01*
X138713359Y-116420979D01*
X138538460Y-116453801D01*
X138369534Y-116460665D01*
X138347846Y-116459732D01*
X138265428Y-116453969D01*
X138200131Y-116446718D01*
X138162803Y-116439277D01*
X138158525Y-116437057D01*
X138160613Y-116413922D01*
X138173518Y-116355861D01*
X138195775Y-116268457D01*
X138225917Y-116157296D01*
X138262479Y-116027964D01*
X138296390Y-115911700D01*
X138337222Y-115771733D01*
X138373019Y-115645498D01*
X138402289Y-115538547D01*
X138423541Y-115456432D01*
X138435286Y-115404708D01*
X138436759Y-115388846D01*
X138448631Y-115375917D01*
X138490516Y-115353319D01*
X138542684Y-115330407D01*
X138616878Y-115295410D01*
X138713098Y-115243360D01*
X138818848Y-115181710D01*
X138921633Y-115117910D01*
X139008958Y-115059414D01*
X139055455Y-115024593D01*
X139103421Y-114985628D01*
X138757280Y-114640047D01*
X138332517Y-114193066D01*
X137943296Y-113736136D01*
X137592244Y-113272446D01*
X137409947Y-113005907D01*
X137272904Y-112797457D01*
X137219447Y-112859695D01*
X137013240Y-113103599D01*
X136834086Y-113324409D01*
X136678031Y-113527858D01*
X136541127Y-113719680D01*
X136419422Y-113905607D01*
X136308964Y-114091372D01*
X136205804Y-114282708D01*
X136121284Y-114453216D01*
X136009194Y-114702066D01*
X135923104Y-114929181D01*
X135860637Y-115144241D01*
X135819414Y-115356923D01*
X135797059Y-115576906D01*
X135791120Y-115797299D01*
X134693151Y-115797299D01*
X134707888Y-115459850D01*
X134765121Y-115079446D01*
G37*
X134765121Y-115079446D02*
X134863311Y-114692096D01*
X135002465Y-114298367D01*
X135175315Y-113913466D01*
X135408983Y-113479880D01*
X135673895Y-113060892D01*
X135972849Y-112652671D01*
X136308645Y-112251382D01*
X136668573Y-111868802D01*
X136768886Y-111769770D01*
X136878867Y-111664861D01*
X136994243Y-111557785D01*
X137110742Y-111452256D01*
X137224090Y-111351982D01*
X137330015Y-111260677D01*
X137424245Y-111182052D01*
X137502505Y-111119817D01*
X137560525Y-111077684D01*
X137594030Y-111059365D01*
X137599926Y-111059827D01*
X137614414Y-111085079D01*
X137641981Y-111140570D01*
X137678532Y-111217843D01*
X137715888Y-111299382D01*
X137929341Y-111739679D01*
X138162562Y-112156979D01*
X138419801Y-112557422D01*
X138705307Y-112947151D01*
X139023331Y-113332309D01*
X139378122Y-113719036D01*
X139420240Y-113762619D01*
X139868441Y-114195154D01*
X140336876Y-114590552D01*
X140825611Y-114948845D01*
X141334711Y-115270063D01*
X141864241Y-115554237D01*
X142414266Y-115801400D01*
X142984853Y-116011581D01*
X143576066Y-116184813D01*
X144187970Y-116321126D01*
X144820631Y-116420551D01*
X145050573Y-116447017D01*
X145187411Y-116457930D01*
X145357311Y-116466146D01*
X145552198Y-116471713D01*
X145763997Y-116474677D01*
X145984632Y-116475083D01*
X146206029Y-116472978D01*
X146420111Y-116468407D01*
X146618804Y-116461418D01*
X146794033Y-116452056D01*
X146937722Y-116440366D01*
X146976740Y-116436018D01*
X147522533Y-116351947D01*
X148041812Y-116235347D01*
X148535884Y-116085594D01*
X149006060Y-115902066D01*
X149453647Y-115684139D01*
X149879955Y-115431188D01*
X150286293Y-115142592D01*
X150673969Y-114817726D01*
X150968237Y-114534682D01*
X151317003Y-114153439D01*
X151634555Y-113751835D01*
X151923108Y-113326399D01*
X152184876Y-112873659D01*
X152422070Y-112390143D01*
X152592280Y-111987299D01*
X152634443Y-111876355D01*
X152678890Y-111751972D01*
X152723253Y-111621622D01*
X152765166Y-111492779D01*
X152802262Y-111372915D01*
X152832173Y-111269505D01*
X152852533Y-111190021D01*
X152860973Y-111141937D01*
X152861073Y-111138700D01*
X152878423Y-111113470D01*
X152898115Y-111108871D01*
X152926410Y-111112743D01*
X152988382Y-111123467D01*
X153077106Y-111139695D01*
X153185653Y-111160080D01*
X153307096Y-111183274D01*
X153434508Y-111207930D01*
X153560962Y-111232699D01*
X153679531Y-111256235D01*
X153783288Y-111277190D01*
X153865306Y-111294216D01*
X153918657Y-111305966D01*
X153936358Y-111310844D01*
X153935092Y-111333324D01*
X153923389Y-111388866D01*
X153903232Y-111470064D01*
X153876605Y-111569509D01*
X153845491Y-111679793D01*
X153811872Y-111793509D01*
X153777929Y-111902632D01*
X153588432Y-112430734D01*
X153360514Y-112955058D01*
X153097958Y-113468536D01*
X152804550Y-113964102D01*
X152484073Y-114434690D01*
X152275529Y-114708194D01*
X152156554Y-114850786D01*
X152014372Y-115010188D01*
X151856198Y-115179127D01*
X151689245Y-115350330D01*
X151520727Y-115516523D01*
X151357857Y-115670432D01*
X151207847Y-115804785D01*
X151093656Y-115899911D01*
X150638236Y-116235199D01*
X150163826Y-116532729D01*
X149670195Y-116792607D01*
X149157112Y-117014939D01*
X148624345Y-117199833D01*
X148071663Y-117347395D01*
X147855156Y-117393948D01*
X147565490Y-117448370D01*
X147291180Y-117491289D01*
X147021799Y-117523665D01*
X146746920Y-117546464D01*
X146456116Y-117560646D01*
X146138958Y-117567175D01*
X145971323Y-117567872D01*
X145712740Y-117566252D01*
X145483676Y-117561072D01*
X145271405Y-117551541D01*
X145063203Y-117536870D01*
X144846346Y-117516271D01*
X144608110Y-117488953D01*
X144517711Y-117477708D01*
X144164766Y-117433090D01*
X143935628Y-117569881D01*
X143437351Y-117854304D01*
X142929677Y-118118898D01*
X142417486Y-118361703D01*
X141905658Y-118580758D01*
X141399073Y-118774104D01*
X140902612Y-118939779D01*
X140421156Y-119075823D01*
X139959585Y-119180277D01*
X139896490Y-119192331D01*
X139624625Y-119236751D01*
X139340045Y-119271801D01*
X139052778Y-119296836D01*
X138772855Y-119311211D01*
X138510308Y-119314283D01*
X138275167Y-119305406D01*
X138213276Y-119300481D01*
X137787200Y-119243745D01*
X137385988Y-119152958D01*
X137008953Y-119027826D01*
X136655411Y-118868052D01*
X136324677Y-118673342D01*
X136016065Y-118443399D01*
X135820316Y-118268507D01*
X135648912Y-118098217D01*
X135504339Y-117940237D01*
X135377736Y-117784107D01*
X135260245Y-117619369D01*
X135224157Y-117564716D01*
X135035809Y-117237873D01*
X134888372Y-116900689D01*
X134781853Y-116553728D01*
X134716262Y-116197557D01*
X134691604Y-115832742D01*
X134693151Y-115797299D01*
X135791120Y-115797299D01*
X135795372Y-115988574D01*
X135808898Y-116150323D01*
X135834482Y-116294852D01*
X135874908Y-116434467D01*
X135932957Y-116581475D01*
X136001764Y-116728632D01*
X136102509Y-116916588D01*
X136212664Y-117085477D01*
X136341220Y-117247608D01*
X136497169Y-117415292D01*
X136520391Y-117438606D01*
X136764697Y-117652546D01*
X137035434Y-117834321D01*
X137330277Y-117982833D01*
X137646900Y-118096985D01*
X137982978Y-118175679D01*
X138129073Y-118197855D01*
X138224745Y-118206431D01*
X138352151Y-118212564D01*
X138500762Y-118216239D01*
X138660047Y-118217444D01*
X138819477Y-118216163D01*
X138968522Y-118212382D01*
X139096653Y-118206089D01*
X139176823Y-118199257D01*
X139617689Y-118134278D01*
X140078595Y-118036212D01*
X140555078Y-117906489D01*
X141042671Y-117746540D01*
X141536908Y-117557797D01*
X142033325Y-117341691D01*
X142391114Y-117169187D01*
X142489263Y-117118920D01*
X142553296Y-117083260D01*
X142587572Y-117059151D01*
X142596446Y-117043538D01*
X142584656Y-117033521D01*
X142550926Y-117020340D01*
X142485446Y-116995187D01*
X142396064Y-116961062D01*
X142290628Y-116920962D01*
X142224823Y-116896001D01*
X141686117Y-116672437D01*
X141157847Y-116414845D01*
X140649008Y-116127946D01*
X140171438Y-115818436D01*
X139980719Y-115685887D01*
X139906854Y-115748567D01*
X139863448Y-115782267D01*
X139792912Y-115833487D01*
X139703446Y-115896421D01*
X139603246Y-115965263D01*
X139552119Y-115999793D01*
X139313612Y-116151609D01*
X139096965Y-116271400D01*
X138898204Y-116360685D01*
X138713359Y-116420979D01*
X138538460Y-116453801D01*
X138369534Y-116460665D01*
X138347846Y-116459732D01*
X138265428Y-116453969D01*
X138200131Y-116446718D01*
X138162803Y-116439277D01*
X138158525Y-116437057D01*
X138160613Y-116413922D01*
X138173518Y-116355861D01*
X138195775Y-116268457D01*
X138225917Y-116157296D01*
X138262479Y-116027964D01*
X138296390Y-115911700D01*
X138337222Y-115771733D01*
X138373019Y-115645498D01*
X138402289Y-115538547D01*
X138423541Y-115456432D01*
X138435286Y-115404708D01*
X138436759Y-115388846D01*
X138448631Y-115375917D01*
X138490516Y-115353319D01*
X138542684Y-115330407D01*
X138616878Y-115295410D01*
X138713098Y-115243360D01*
X138818848Y-115181710D01*
X138921633Y-115117910D01*
X139008958Y-115059414D01*
X139055455Y-115024593D01*
X139103421Y-114985628D01*
X138757280Y-114640047D01*
X138332517Y-114193066D01*
X137943296Y-113736136D01*
X137592244Y-113272446D01*
X137409947Y-113005907D01*
X137272904Y-112797457D01*
X137219447Y-112859695D01*
X137013240Y-113103599D01*
X136834086Y-113324409D01*
X136678031Y-113527858D01*
X136541127Y-113719680D01*
X136419422Y-113905607D01*
X136308964Y-114091372D01*
X136205804Y-114282708D01*
X136121284Y-114453216D01*
X136009194Y-114702066D01*
X135923104Y-114929181D01*
X135860637Y-115144241D01*
X135819414Y-115356923D01*
X135797059Y-115576906D01*
X135791120Y-115797299D01*
X134693151Y-115797299D01*
X134707888Y-115459850D01*
X134765121Y-115079446D01*
G36*
X119719826Y-80918970D02*
G01*
X120083244Y-80920327D01*
X120435744Y-80921815D01*
X120774940Y-80923415D01*
X121098443Y-80925109D01*
X121403867Y-80926878D01*
X121688824Y-80928706D01*
X121950927Y-80930574D01*
X122187789Y-80932463D01*
X122397022Y-80934355D01*
X122576238Y-80936233D01*
X122723051Y-80938078D01*
X122835073Y-80939871D01*
X122909918Y-80941596D01*
X122945196Y-80943234D01*
X122947005Y-80943485D01*
X122958597Y-80946833D01*
X122971149Y-80953714D01*
X122985916Y-80966193D01*
X123004154Y-80986335D01*
X123027118Y-81016203D01*
X123056064Y-81057862D01*
X123092249Y-81113375D01*
X123136926Y-81184808D01*
X123191353Y-81274224D01*
X123256784Y-81383687D01*
X123334476Y-81515263D01*
X123425684Y-81671014D01*
X123531664Y-81853006D01*
X123653671Y-82063302D01*
X123792961Y-82303967D01*
X123950789Y-82577065D01*
X124128412Y-82884660D01*
X124139750Y-82904299D01*
X124298898Y-83179965D01*
X124456631Y-83453179D01*
X124611094Y-83720729D01*
X124760434Y-83979402D01*
X124902795Y-84225985D01*
X125036323Y-84457266D01*
X125159162Y-84670032D01*
X125269459Y-84861072D01*
X125365359Y-85027172D01*
X125445006Y-85165121D01*
X125506546Y-85271705D01*
X125535929Y-85322591D01*
X125807877Y-85793549D01*
X119273016Y-85793549D01*
X118921853Y-85185007D01*
X118570691Y-84576466D01*
X121044227Y-84565882D01*
X123517763Y-84555299D01*
X123282793Y-84148098D01*
X123047823Y-83740898D01*
X120616791Y-83735348D01*
X118185759Y-83729799D01*
X117403065Y-82375132D01*
X117275453Y-82154198D01*
X117153517Y-81942961D01*
X117091457Y-81835382D01*
X118566891Y-81835382D01*
X118607183Y-81904174D01*
X118629307Y-81942250D01*
X118668907Y-82010707D01*
X118722340Y-82103237D01*
X118785965Y-82213531D01*
X118856138Y-82335280D01*
X118889732Y-82393598D01*
X119131990Y-82814230D01*
X119692906Y-82801209D01*
X119833103Y-82798193D01*
X120008192Y-82794810D01*
X120210736Y-82791182D01*
X120433297Y-82787433D01*
X120668437Y-82783686D01*
X120908718Y-82780063D01*
X121146703Y-82776688D01*
X121306865Y-82774552D01*
X121513501Y-82771557D01*
X121706714Y-82768140D01*
X121882485Y-82764415D01*
X122036796Y-82760498D01*
X122165631Y-82756502D01*
X122264972Y-82752541D01*
X122330802Y-82748732D01*
X122359103Y-82745187D01*
X122359906Y-82744535D01*
X122349765Y-82722365D01*
X122321271Y-82668789D01*
X122277314Y-82589016D01*
X122220788Y-82488256D01*
X122154585Y-82371719D01*
X122103010Y-82281768D01*
X121846114Y-81835382D01*
X118566891Y-81835382D01*
X117091457Y-81835382D01*
X117038991Y-81744434D01*
X116933611Y-81561630D01*
X116839110Y-81397563D01*
X116757225Y-81255245D01*
X116689688Y-81137690D01*
X116638236Y-81047911D01*
X116604603Y-80988922D01*
X116590766Y-80964200D01*
X116561162Y-80907934D01*
X119719826Y-80918970D01*
G37*
X119719826Y-80918970D02*
X120083244Y-80920327D01*
X120435744Y-80921815D01*
X120774940Y-80923415D01*
X121098443Y-80925109D01*
X121403867Y-80926878D01*
X121688824Y-80928706D01*
X121950927Y-80930574D01*
X122187789Y-80932463D01*
X122397022Y-80934355D01*
X122576238Y-80936233D01*
X122723051Y-80938078D01*
X122835073Y-80939871D01*
X122909918Y-80941596D01*
X122945196Y-80943234D01*
X122947005Y-80943485D01*
X122958597Y-80946833D01*
X122971149Y-80953714D01*
X122985916Y-80966193D01*
X123004154Y-80986335D01*
X123027118Y-81016203D01*
X123056064Y-81057862D01*
X123092249Y-81113375D01*
X123136926Y-81184808D01*
X123191353Y-81274224D01*
X123256784Y-81383687D01*
X123334476Y-81515263D01*
X123425684Y-81671014D01*
X123531664Y-81853006D01*
X123653671Y-82063302D01*
X123792961Y-82303967D01*
X123950789Y-82577065D01*
X124128412Y-82884660D01*
X124139750Y-82904299D01*
X124298898Y-83179965D01*
X124456631Y-83453179D01*
X124611094Y-83720729D01*
X124760434Y-83979402D01*
X124902795Y-84225985D01*
X125036323Y-84457266D01*
X125159162Y-84670032D01*
X125269459Y-84861072D01*
X125365359Y-85027172D01*
X125445006Y-85165121D01*
X125506546Y-85271705D01*
X125535929Y-85322591D01*
X125807877Y-85793549D01*
X119273016Y-85793549D01*
X118921853Y-85185007D01*
X118570691Y-84576466D01*
X121044227Y-84565882D01*
X123517763Y-84555299D01*
X123282793Y-84148098D01*
X123047823Y-83740898D01*
X120616791Y-83735348D01*
X118185759Y-83729799D01*
X117403065Y-82375132D01*
X117275453Y-82154198D01*
X117153517Y-81942961D01*
X117091457Y-81835382D01*
X118566891Y-81835382D01*
X118607183Y-81904174D01*
X118629307Y-81942250D01*
X118668907Y-82010707D01*
X118722340Y-82103237D01*
X118785965Y-82213531D01*
X118856138Y-82335280D01*
X118889732Y-82393598D01*
X119131990Y-82814230D01*
X119692906Y-82801209D01*
X119833103Y-82798193D01*
X120008192Y-82794810D01*
X120210736Y-82791182D01*
X120433297Y-82787433D01*
X120668437Y-82783686D01*
X120908718Y-82780063D01*
X121146703Y-82776688D01*
X121306865Y-82774552D01*
X121513501Y-82771557D01*
X121706714Y-82768140D01*
X121882485Y-82764415D01*
X122036796Y-82760498D01*
X122165631Y-82756502D01*
X122264972Y-82752541D01*
X122330802Y-82748732D01*
X122359103Y-82745187D01*
X122359906Y-82744535D01*
X122349765Y-82722365D01*
X122321271Y-82668789D01*
X122277314Y-82589016D01*
X122220788Y-82488256D01*
X122154585Y-82371719D01*
X122103010Y-82281768D01*
X121846114Y-81835382D01*
X118566891Y-81835382D01*
X117091457Y-81835382D01*
X117038991Y-81744434D01*
X116933611Y-81561630D01*
X116839110Y-81397563D01*
X116757225Y-81255245D01*
X116689688Y-81137690D01*
X116638236Y-81047911D01*
X116604603Y-80988922D01*
X116590766Y-80964200D01*
X116561162Y-80907934D01*
X119719826Y-80918970D01*
G36*
X151852373Y-83291829D02*
G01*
X152021006Y-83584002D01*
X152183864Y-83866343D01*
X152339683Y-84136652D01*
X152487198Y-84392727D01*
X152625146Y-84632368D01*
X152752262Y-84853375D01*
X152867281Y-85053548D01*
X152968940Y-85230685D01*
X153055974Y-85382586D01*
X153127119Y-85507051D01*
X153181110Y-85601880D01*
X153216684Y-85664872D01*
X153232576Y-85693826D01*
X153233263Y-85695289D01*
X153232904Y-85700146D01*
X153226557Y-85704531D01*
X153212193Y-85708469D01*
X153187780Y-85711982D01*
X153151287Y-85715095D01*
X153100685Y-85717832D01*
X153033942Y-85720217D01*
X152949028Y-85722273D01*
X152843913Y-85724025D01*
X152716564Y-85725496D01*
X152564953Y-85726710D01*
X152387047Y-85727691D01*
X152180818Y-85728464D01*
X151944233Y-85729051D01*
X151675262Y-85729478D01*
X151371875Y-85729766D01*
X151032041Y-85729942D01*
X150653729Y-85730028D01*
X150279240Y-85730049D01*
X149912696Y-85730178D01*
X149561417Y-85730558D01*
X149227567Y-85731173D01*
X148913311Y-85732012D01*
X148620813Y-85733060D01*
X148352238Y-85734303D01*
X148109750Y-85735729D01*
X147895513Y-85737324D01*
X147711692Y-85739074D01*
X147560452Y-85740966D01*
X147443956Y-85742987D01*
X147364370Y-85745122D01*
X147323857Y-85747358D01*
X147318934Y-85748524D01*
X147330269Y-85769022D01*
X147361374Y-85823742D01*
X147410846Y-85910248D01*
X147477284Y-86026103D01*
X147559287Y-86168869D01*
X147655452Y-86336110D01*
X147764377Y-86525389D01*
X147884662Y-86734269D01*
X148014904Y-86960313D01*
X148153701Y-87201084D01*
X148299653Y-87454146D01*
X148426656Y-87674263D01*
X149527323Y-89581528D01*
X150664648Y-89581955D01*
X151801972Y-89582382D01*
X151699331Y-89407757D01*
X151642377Y-89310460D01*
X151572825Y-89190981D01*
X151492956Y-89053294D01*
X151405052Y-88901373D01*
X151311396Y-88739189D01*
X151214270Y-88570717D01*
X151115957Y-88399929D01*
X151018739Y-88230798D01*
X150924899Y-88067297D01*
X150836718Y-87913400D01*
X150756480Y-87773080D01*
X150686466Y-87650309D01*
X150628959Y-87549060D01*
X150586242Y-87473308D01*
X150560597Y-87427024D01*
X150553906Y-87413871D01*
X150574359Y-87411437D01*
X150632862Y-87409176D01*
X150725133Y-87407141D01*
X150846889Y-87405386D01*
X150993848Y-87403965D01*
X151161726Y-87402931D01*
X151346241Y-87402339D01*
X151480637Y-87402216D01*
X152407368Y-87402216D01*
X153082637Y-88571674D01*
X153211298Y-88794508D01*
X153342245Y-89021326D01*
X153472473Y-89246922D01*
X153598978Y-89466089D01*
X153718754Y-89673623D01*
X153828797Y-89864315D01*
X153926103Y-90032961D01*
X154007666Y-90174354D01*
X154059943Y-90265007D01*
X154361981Y-90788882D01*
X151362568Y-90788879D01*
X148363156Y-90788876D01*
X146553406Y-87654808D01*
X146359231Y-87318498D01*
X146170774Y-86992006D01*
X145989124Y-86677224D01*
X145815372Y-86376044D01*
X145650607Y-86090358D01*
X145495921Y-85822060D01*
X145352402Y-85573040D01*
X145221141Y-85345191D01*
X145103228Y-85140405D01*
X144999752Y-84960575D01*
X144911805Y-84807593D01*
X144840476Y-84683350D01*
X144786854Y-84589740D01*
X144752031Y-84528653D01*
X144737095Y-84501984D01*
X144736601Y-84500977D01*
X144756540Y-84498227D01*
X144817524Y-84495650D01*
X144918262Y-84493257D01*
X145057467Y-84491055D01*
X145233850Y-84489052D01*
X145446121Y-84487257D01*
X145692991Y-84485678D01*
X145973172Y-84484324D01*
X146285375Y-84483204D01*
X146628310Y-84482324D01*
X147000690Y-84481694D01*
X147401224Y-84481322D01*
X147779309Y-84481216D01*
X148135020Y-84481136D01*
X148478963Y-84480903D01*
X148808776Y-84480527D01*
X149122100Y-84480015D01*
X149416573Y-84479377D01*
X149689835Y-84478623D01*
X149939524Y-84477760D01*
X150163280Y-84476799D01*
X150358742Y-84475748D01*
X150523549Y-84474616D01*
X150655341Y-84473413D01*
X150751756Y-84472147D01*
X150810433Y-84470827D01*
X150829073Y-84469536D01*
X150818774Y-84449603D01*
X150789106Y-84396260D01*
X150741914Y-84312735D01*
X150679040Y-84202253D01*
X150602329Y-84068042D01*
X150513625Y-83913326D01*
X150414771Y-83741332D01*
X150307611Y-83555287D01*
X150200028Y-83368870D01*
X149570984Y-82279882D01*
X146071869Y-82279882D01*
X145690361Y-81618424D01*
X145602980Y-81466712D01*
X145522813Y-81327119D01*
X145452198Y-81203748D01*
X145393473Y-81100702D01*
X145348978Y-81022084D01*
X145321049Y-80971997D01*
X145312005Y-80954547D01*
X145333148Y-80954124D01*
X145394056Y-80953490D01*
X145492159Y-80952660D01*
X145624889Y-80951652D01*
X145789679Y-80950483D01*
X145983958Y-80949169D01*
X146205160Y-80947727D01*
X146450714Y-80946173D01*
X146718054Y-80944526D01*
X147004610Y-80942800D01*
X147307813Y-80941014D01*
X147625096Y-80939184D01*
X147899988Y-80937628D01*
X150484821Y-80923128D01*
X151852373Y-83291829D01*
G37*
X151852373Y-83291829D02*
X152021006Y-83584002D01*
X152183864Y-83866343D01*
X152339683Y-84136652D01*
X152487198Y-84392727D01*
X152625146Y-84632368D01*
X152752262Y-84853375D01*
X152867281Y-85053548D01*
X152968940Y-85230685D01*
X153055974Y-85382586D01*
X153127119Y-85507051D01*
X153181110Y-85601880D01*
X153216684Y-85664872D01*
X153232576Y-85693826D01*
X153233263Y-85695289D01*
X153232904Y-85700146D01*
X153226557Y-85704531D01*
X153212193Y-85708469D01*
X153187780Y-85711982D01*
X153151287Y-85715095D01*
X153100685Y-85717832D01*
X153033942Y-85720217D01*
X152949028Y-85722273D01*
X152843913Y-85724025D01*
X152716564Y-85725496D01*
X152564953Y-85726710D01*
X152387047Y-85727691D01*
X152180818Y-85728464D01*
X151944233Y-85729051D01*
X151675262Y-85729478D01*
X151371875Y-85729766D01*
X151032041Y-85729942D01*
X150653729Y-85730028D01*
X150279240Y-85730049D01*
X149912696Y-85730178D01*
X149561417Y-85730558D01*
X149227567Y-85731173D01*
X148913311Y-85732012D01*
X148620813Y-85733060D01*
X148352238Y-85734303D01*
X148109750Y-85735729D01*
X147895513Y-85737324D01*
X147711692Y-85739074D01*
X147560452Y-85740966D01*
X147443956Y-85742987D01*
X147364370Y-85745122D01*
X147323857Y-85747358D01*
X147318934Y-85748524D01*
X147330269Y-85769022D01*
X147361374Y-85823742D01*
X147410846Y-85910248D01*
X147477284Y-86026103D01*
X147559287Y-86168869D01*
X147655452Y-86336110D01*
X147764377Y-86525389D01*
X147884662Y-86734269D01*
X148014904Y-86960313D01*
X148153701Y-87201084D01*
X148299653Y-87454146D01*
X148426656Y-87674263D01*
X149527323Y-89581528D01*
X150664648Y-89581955D01*
X151801972Y-89582382D01*
X151699331Y-89407757D01*
X151642377Y-89310460D01*
X151572825Y-89190981D01*
X151492956Y-89053294D01*
X151405052Y-88901373D01*
X151311396Y-88739189D01*
X151214270Y-88570717D01*
X151115957Y-88399929D01*
X151018739Y-88230798D01*
X150924899Y-88067297D01*
X150836718Y-87913400D01*
X150756480Y-87773080D01*
X150686466Y-87650309D01*
X150628959Y-87549060D01*
X150586242Y-87473308D01*
X150560597Y-87427024D01*
X150553906Y-87413871D01*
X150574359Y-87411437D01*
X150632862Y-87409176D01*
X150725133Y-87407141D01*
X150846889Y-87405386D01*
X150993848Y-87403965D01*
X151161726Y-87402931D01*
X151346241Y-87402339D01*
X151480637Y-87402216D01*
X152407368Y-87402216D01*
X153082637Y-88571674D01*
X153211298Y-88794508D01*
X153342245Y-89021326D01*
X153472473Y-89246922D01*
X153598978Y-89466089D01*
X153718754Y-89673623D01*
X153828797Y-89864315D01*
X153926103Y-90032961D01*
X154007666Y-90174354D01*
X154059943Y-90265007D01*
X154361981Y-90788882D01*
X151362568Y-90788879D01*
X148363156Y-90788876D01*
X146553406Y-87654808D01*
X146359231Y-87318498D01*
X146170774Y-86992006D01*
X145989124Y-86677224D01*
X145815372Y-86376044D01*
X145650607Y-86090358D01*
X145495921Y-85822060D01*
X145352402Y-85573040D01*
X145221141Y-85345191D01*
X145103228Y-85140405D01*
X144999752Y-84960575D01*
X144911805Y-84807593D01*
X144840476Y-84683350D01*
X144786854Y-84589740D01*
X144752031Y-84528653D01*
X144737095Y-84501984D01*
X144736601Y-84500977D01*
X144756540Y-84498227D01*
X144817524Y-84495650D01*
X144918262Y-84493257D01*
X145057467Y-84491055D01*
X145233850Y-84489052D01*
X145446121Y-84487257D01*
X145692991Y-84485678D01*
X145973172Y-84484324D01*
X146285375Y-84483204D01*
X146628310Y-84482324D01*
X147000690Y-84481694D01*
X147401224Y-84481322D01*
X147779309Y-84481216D01*
X148135020Y-84481136D01*
X148478963Y-84480903D01*
X148808776Y-84480527D01*
X149122100Y-84480015D01*
X149416573Y-84479377D01*
X149689835Y-84478623D01*
X149939524Y-84477760D01*
X150163280Y-84476799D01*
X150358742Y-84475748D01*
X150523549Y-84474616D01*
X150655341Y-84473413D01*
X150751756Y-84472147D01*
X150810433Y-84470827D01*
X150829073Y-84469536D01*
X150818774Y-84449603D01*
X150789106Y-84396260D01*
X150741914Y-84312735D01*
X150679040Y-84202253D01*
X150602329Y-84068042D01*
X150513625Y-83913326D01*
X150414771Y-83741332D01*
X150307611Y-83555287D01*
X150200028Y-83368870D01*
X149570984Y-82279882D01*
X146071869Y-82279882D01*
X145690361Y-81618424D01*
X145602980Y-81466712D01*
X145522813Y-81327119D01*
X145452198Y-81203748D01*
X145393473Y-81100702D01*
X145348978Y-81022084D01*
X145321049Y-80971997D01*
X145312005Y-80954547D01*
X145333148Y-80954124D01*
X145394056Y-80953490D01*
X145492159Y-80952660D01*
X145624889Y-80951652D01*
X145789679Y-80950483D01*
X145983958Y-80949169D01*
X146205160Y-80947727D01*
X146450714Y-80946173D01*
X146718054Y-80944526D01*
X147004610Y-80942800D01*
X147307813Y-80941014D01*
X147625096Y-80939184D01*
X147899988Y-80937628D01*
X150484821Y-80923128D01*
X151852373Y-83291829D01*
G36*
X134955343Y-86445903D02*
G01*
X135148065Y-86550179D01*
X135077527Y-86600105D01*
X135031139Y-86635256D01*
X134961336Y-86691033D01*
X134874599Y-86761977D01*
X134777409Y-86842629D01*
X134676247Y-86927532D01*
X134577592Y-87011227D01*
X134487925Y-87088255D01*
X134413727Y-87153158D01*
X134361478Y-87200477D01*
X134341842Y-87219773D01*
X134298586Y-87256650D01*
X134260694Y-87273486D01*
X134257175Y-87273594D01*
X134223735Y-87262957D01*
X134165119Y-87236223D01*
X134092692Y-87198674D01*
X134075656Y-87189275D01*
X134003483Y-87149463D01*
X133944775Y-87117942D01*
X133909972Y-87100295D01*
X133906323Y-87098739D01*
X133903501Y-87079792D01*
X133925587Y-87044592D01*
X133927490Y-87042378D01*
X133977191Y-86991080D01*
X134052751Y-86920092D01*
X134146728Y-86835861D01*
X134251680Y-86744836D01*
X134360164Y-86653464D01*
X134464738Y-86568191D01*
X134557961Y-86495466D01*
X134564241Y-86490732D01*
X134762620Y-86341627D01*
X134955343Y-86445903D01*
G37*
X134955343Y-86445903D02*
X135148065Y-86550179D01*
X135077527Y-86600105D01*
X135031139Y-86635256D01*
X134961336Y-86691033D01*
X134874599Y-86761977D01*
X134777409Y-86842629D01*
X134676247Y-86927532D01*
X134577592Y-87011227D01*
X134487925Y-87088255D01*
X134413727Y-87153158D01*
X134361478Y-87200477D01*
X134341842Y-87219773D01*
X134298586Y-87256650D01*
X134260694Y-87273486D01*
X134257175Y-87273594D01*
X134223735Y-87262957D01*
X134165119Y-87236223D01*
X134092692Y-87198674D01*
X134075656Y-87189275D01*
X134003483Y-87149463D01*
X133944775Y-87117942D01*
X133909972Y-87100295D01*
X133906323Y-87098739D01*
X133903501Y-87079792D01*
X133925587Y-87044592D01*
X133927490Y-87042378D01*
X133977191Y-86991080D01*
X134052751Y-86920092D01*
X134146728Y-86835861D01*
X134251680Y-86744836D01*
X134360164Y-86653464D01*
X134464738Y-86568191D01*
X134557961Y-86495466D01*
X134564241Y-86490732D01*
X134762620Y-86341627D01*
X134955343Y-86445903D01*
G36*
X128957844Y-86934410D02*
G01*
X129036174Y-86945340D01*
X129059156Y-86949221D01*
X129118729Y-86956414D01*
X129218737Y-86964179D01*
X129359429Y-86972527D01*
X129541052Y-86981470D01*
X129763853Y-86991018D01*
X130028080Y-87001181D01*
X130333980Y-87011972D01*
X130681800Y-87023400D01*
X130930000Y-87031161D01*
X131194475Y-87039391D01*
X131446579Y-87047442D01*
X131683130Y-87055200D01*
X131900949Y-87062551D01*
X132096853Y-87069381D01*
X132267662Y-87075575D01*
X132410195Y-87081021D01*
X132521271Y-87085604D01*
X132597710Y-87089210D01*
X132636330Y-87091725D01*
X132640500Y-87092420D01*
X132640279Y-87115237D01*
X132633224Y-87169135D01*
X132621230Y-87243775D01*
X132606192Y-87328813D01*
X132590008Y-87413910D01*
X132574571Y-87488724D01*
X132561778Y-87542913D01*
X132553691Y-87565986D01*
X132531531Y-87566599D01*
X132470375Y-87565393D01*
X132373513Y-87562495D01*
X132244238Y-87558031D01*
X132085840Y-87552127D01*
X131901612Y-87544910D01*
X131694845Y-87536506D01*
X131468831Y-87527041D01*
X131226861Y-87516641D01*
X130972227Y-87505434D01*
X130955112Y-87504671D01*
X130700054Y-87493481D01*
X130457659Y-87483203D01*
X130231191Y-87473952D01*
X130023917Y-87465846D01*
X129839101Y-87459000D01*
X129680009Y-87453533D01*
X129549906Y-87449559D01*
X129452057Y-87447197D01*
X129389728Y-87446562D01*
X129366184Y-87447770D01*
X129366073Y-87447933D01*
X129378990Y-87474793D01*
X129414209Y-87526969D01*
X129466431Y-87597681D01*
X129530356Y-87680145D01*
X129600684Y-87767582D01*
X129672117Y-87853208D01*
X129739355Y-87930244D01*
X129764452Y-87957740D01*
X129996648Y-88193872D01*
X130250259Y-88424290D01*
X130527875Y-88650748D01*
X130832083Y-88875001D01*
X131165474Y-89098805D01*
X131530637Y-89323913D01*
X131930161Y-89552080D01*
X132366634Y-89785062D01*
X132738372Y-89973227D01*
X133348421Y-90275508D01*
X133074518Y-90447529D01*
X132979312Y-90507006D01*
X132897415Y-90557571D01*
X132835190Y-90595342D01*
X132799002Y-90616437D01*
X132792552Y-90619528D01*
X132772229Y-90610411D01*
X132719267Y-90584769D01*
X132638819Y-90545151D01*
X132536039Y-90494105D01*
X132416080Y-90434179D01*
X132308240Y-90380065D01*
X131743677Y-90083104D01*
X131218933Y-89779791D01*
X130731796Y-89468801D01*
X130413823Y-89247158D01*
X130180990Y-89078750D01*
X130022240Y-89164575D01*
X129826366Y-89273977D01*
X129604173Y-89404152D01*
X129363123Y-89550362D01*
X129110679Y-89707867D01*
X128854302Y-89871930D01*
X128601455Y-90037811D01*
X128359602Y-90200771D01*
X128136204Y-90356071D01*
X128057635Y-90412141D01*
X127796948Y-90599715D01*
X127502170Y-90425323D01*
X127404276Y-90366069D01*
X127322082Y-90313738D01*
X127261289Y-90272175D01*
X127227601Y-90245224D01*
X127223107Y-90237187D01*
X127244936Y-90221242D01*
X127295734Y-90185541D01*
X127369536Y-90134233D01*
X127460374Y-90071469D01*
X127545740Y-90012751D01*
X127959235Y-89735071D01*
X128380404Y-89464027D01*
X128798879Y-89206065D01*
X129204293Y-88967627D01*
X129445611Y-88831838D01*
X129705066Y-88688625D01*
X129384594Y-88368212D01*
X129264611Y-88246172D01*
X129132323Y-88108147D01*
X128998965Y-87966080D01*
X128875771Y-87831915D01*
X128791775Y-87737948D01*
X128693225Y-87626935D01*
X128617214Y-87544365D01*
X128559295Y-87486065D01*
X128515022Y-87447858D01*
X128479950Y-87425569D01*
X128449633Y-87415024D01*
X128447460Y-87414596D01*
X128378377Y-87391985D01*
X128341732Y-87358787D01*
X128341768Y-87319745D01*
X128350611Y-87306317D01*
X128374625Y-87285591D01*
X128425568Y-87246324D01*
X128495628Y-87194163D01*
X128576992Y-87134754D01*
X128661846Y-87073745D01*
X128742380Y-87016784D01*
X128810778Y-86969516D01*
X128859229Y-86937589D01*
X128868656Y-86931876D01*
X128898196Y-86929575D01*
X128957844Y-86934410D01*
G37*
X128957844Y-86934410D02*
X129036174Y-86945340D01*
X129059156Y-86949221D01*
X129118729Y-86956414D01*
X129218737Y-86964179D01*
X129359429Y-86972527D01*
X129541052Y-86981470D01*
X129763853Y-86991018D01*
X130028080Y-87001181D01*
X130333980Y-87011972D01*
X130681800Y-87023400D01*
X130930000Y-87031161D01*
X131194475Y-87039391D01*
X131446579Y-87047442D01*
X131683130Y-87055200D01*
X131900949Y-87062551D01*
X132096853Y-87069381D01*
X132267662Y-87075575D01*
X132410195Y-87081021D01*
X132521271Y-87085604D01*
X132597710Y-87089210D01*
X132636330Y-87091725D01*
X132640500Y-87092420D01*
X132640279Y-87115237D01*
X132633224Y-87169135D01*
X132621230Y-87243775D01*
X132606192Y-87328813D01*
X132590008Y-87413910D01*
X132574571Y-87488724D01*
X132561778Y-87542913D01*
X132553691Y-87565986D01*
X132531531Y-87566599D01*
X132470375Y-87565393D01*
X132373513Y-87562495D01*
X132244238Y-87558031D01*
X132085840Y-87552127D01*
X131901612Y-87544910D01*
X131694845Y-87536506D01*
X131468831Y-87527041D01*
X131226861Y-87516641D01*
X130972227Y-87505434D01*
X130955112Y-87504671D01*
X130700054Y-87493481D01*
X130457659Y-87483203D01*
X130231191Y-87473952D01*
X130023917Y-87465846D01*
X129839101Y-87459000D01*
X129680009Y-87453533D01*
X129549906Y-87449559D01*
X129452057Y-87447197D01*
X129389728Y-87446562D01*
X129366184Y-87447770D01*
X129366073Y-87447933D01*
X129378990Y-87474793D01*
X129414209Y-87526969D01*
X129466431Y-87597681D01*
X129530356Y-87680145D01*
X129600684Y-87767582D01*
X129672117Y-87853208D01*
X129739355Y-87930244D01*
X129764452Y-87957740D01*
X129996648Y-88193872D01*
X130250259Y-88424290D01*
X130527875Y-88650748D01*
X130832083Y-88875001D01*
X131165474Y-89098805D01*
X131530637Y-89323913D01*
X131930161Y-89552080D01*
X132366634Y-89785062D01*
X132738372Y-89973227D01*
X133348421Y-90275508D01*
X133074518Y-90447529D01*
X132979312Y-90507006D01*
X132897415Y-90557571D01*
X132835190Y-90595342D01*
X132799002Y-90616437D01*
X132792552Y-90619528D01*
X132772229Y-90610411D01*
X132719267Y-90584769D01*
X132638819Y-90545151D01*
X132536039Y-90494105D01*
X132416080Y-90434179D01*
X132308240Y-90380065D01*
X131743677Y-90083104D01*
X131218933Y-89779791D01*
X130731796Y-89468801D01*
X130413823Y-89247158D01*
X130180990Y-89078750D01*
X130022240Y-89164575D01*
X129826366Y-89273977D01*
X129604173Y-89404152D01*
X129363123Y-89550362D01*
X129110679Y-89707867D01*
X128854302Y-89871930D01*
X128601455Y-90037811D01*
X128359602Y-90200771D01*
X128136204Y-90356071D01*
X128057635Y-90412141D01*
X127796948Y-90599715D01*
X127502170Y-90425323D01*
X127404276Y-90366069D01*
X127322082Y-90313738D01*
X127261289Y-90272175D01*
X127227601Y-90245224D01*
X127223107Y-90237187D01*
X127244936Y-90221242D01*
X127295734Y-90185541D01*
X127369536Y-90134233D01*
X127460374Y-90071469D01*
X127545740Y-90012751D01*
X127959235Y-89735071D01*
X128380404Y-89464027D01*
X128798879Y-89206065D01*
X129204293Y-88967627D01*
X129445611Y-88831838D01*
X129705066Y-88688625D01*
X129384594Y-88368212D01*
X129264611Y-88246172D01*
X129132323Y-88108147D01*
X128998965Y-87966080D01*
X128875771Y-87831915D01*
X128791775Y-87737948D01*
X128693225Y-87626935D01*
X128617214Y-87544365D01*
X128559295Y-87486065D01*
X128515022Y-87447858D01*
X128479950Y-87425569D01*
X128449633Y-87415024D01*
X128447460Y-87414596D01*
X128378377Y-87391985D01*
X128341732Y-87358787D01*
X128341768Y-87319745D01*
X128350611Y-87306317D01*
X128374625Y-87285591D01*
X128425568Y-87246324D01*
X128495628Y-87194163D01*
X128576992Y-87134754D01*
X128661846Y-87073745D01*
X128742380Y-87016784D01*
X128810778Y-86969516D01*
X128859229Y-86937589D01*
X128868656Y-86931876D01*
X128898196Y-86929575D01*
X128957844Y-86934410D01*
G36*
X131079998Y-81019238D02*
G01*
X131297178Y-81019615D01*
X131536730Y-81020256D01*
X131795807Y-81021144D01*
X132071566Y-81022260D01*
X132361162Y-81023586D01*
X132661750Y-81025104D01*
X132970486Y-81026795D01*
X133284524Y-81028642D01*
X133601020Y-81030626D01*
X133917130Y-81032728D01*
X134230009Y-81034931D01*
X134536811Y-81037216D01*
X134834693Y-81039566D01*
X135120809Y-81041961D01*
X135392315Y-81044384D01*
X135646367Y-81046817D01*
X135880119Y-81049240D01*
X136090726Y-81051637D01*
X136275345Y-81053988D01*
X136431131Y-81056275D01*
X136555238Y-81058481D01*
X136644822Y-81060587D01*
X136697038Y-81062575D01*
X136709959Y-81063968D01*
X136724595Y-81086171D01*
X136757981Y-81141236D01*
X136808036Y-81225551D01*
X136872677Y-81335506D01*
X136949823Y-81467489D01*
X137037392Y-81617887D01*
X137133302Y-81783089D01*
X137235472Y-81959483D01*
X137341820Y-82143458D01*
X137450264Y-82331401D01*
X137558723Y-82519701D01*
X137665114Y-82704745D01*
X137767356Y-82882924D01*
X137863368Y-83050624D01*
X137951066Y-83204233D01*
X138028371Y-83340141D01*
X138093199Y-83454734D01*
X138143470Y-83544403D01*
X138177101Y-83605534D01*
X138192011Y-83634516D01*
X138192573Y-83636257D01*
X138171734Y-83639173D01*
X138110526Y-83642006D01*
X138010915Y-83644735D01*
X137874866Y-83647339D01*
X137704344Y-83649798D01*
X137501313Y-83652090D01*
X137267739Y-83654196D01*
X137005587Y-83656094D01*
X136716821Y-83657765D01*
X136403406Y-83659186D01*
X136067309Y-83660338D01*
X135845416Y-83660915D01*
X133498260Y-83666299D01*
X133768738Y-84131966D01*
X134039216Y-84597632D01*
X136290519Y-84603295D01*
X138541823Y-84608958D01*
X138859323Y-85159880D01*
X138939316Y-85298939D01*
X139012381Y-85426446D01*
X139075851Y-85537707D01*
X139127058Y-85628025D01*
X139163331Y-85692704D01*
X139182004Y-85727050D01*
X139183878Y-85731009D01*
X139163915Y-85733909D01*
X139102550Y-85736608D01*
X139000715Y-85739098D01*
X138859343Y-85741373D01*
X138679364Y-85743428D01*
X138461711Y-85745257D01*
X138207315Y-85746853D01*
X137917108Y-85748210D01*
X137592021Y-85749323D01*
X137232986Y-85750186D01*
X136840935Y-85750791D01*
X136416799Y-85751134D01*
X136067575Y-85751216D01*
X132944215Y-85751216D01*
X132913719Y-85703591D01*
X132895883Y-85673934D01*
X132859397Y-85611777D01*
X132806211Y-85520504D01*
X132738277Y-85403501D01*
X132657545Y-85264154D01*
X132565964Y-85105849D01*
X132465485Y-84931970D01*
X132358060Y-84745904D01*
X132245637Y-84551036D01*
X132130168Y-84350753D01*
X132013603Y-84148438D01*
X131897892Y-83947479D01*
X131784986Y-83751261D01*
X131676835Y-83563169D01*
X131575389Y-83386589D01*
X131482599Y-83224907D01*
X131400416Y-83081508D01*
X131330790Y-82959778D01*
X131275670Y-82863102D01*
X131237008Y-82794867D01*
X131216754Y-82758457D01*
X131214198Y-82753450D01*
X131217776Y-82748989D01*
X131233493Y-82744967D01*
X131263426Y-82741357D01*
X131309653Y-82738128D01*
X131374249Y-82735253D01*
X131459291Y-82732704D01*
X131566856Y-82730450D01*
X131699021Y-82728464D01*
X131857862Y-82726717D01*
X132045456Y-82725181D01*
X132263880Y-82723826D01*
X132515211Y-82722625D01*
X132801524Y-82721548D01*
X133124897Y-82720566D01*
X133487406Y-82719653D01*
X133699935Y-82719177D01*
X136196759Y-82713799D01*
X135982448Y-82343382D01*
X135768136Y-81972966D01*
X133352163Y-81967584D01*
X130936190Y-81962203D01*
X130667192Y-81495621D01*
X130594560Y-81368925D01*
X130529969Y-81254877D01*
X130476144Y-81158404D01*
X130435812Y-81084433D01*
X130411697Y-81037890D01*
X130406008Y-81023558D01*
X130429224Y-81021963D01*
X130491880Y-81020743D01*
X130591129Y-81019879D01*
X130724129Y-81019352D01*
X130888033Y-81019144D01*
X131079998Y-81019238D01*
G37*
X131079998Y-81019238D02*
X131297178Y-81019615D01*
X131536730Y-81020256D01*
X131795807Y-81021144D01*
X132071566Y-81022260D01*
X132361162Y-81023586D01*
X132661750Y-81025104D01*
X132970486Y-81026795D01*
X133284524Y-81028642D01*
X133601020Y-81030626D01*
X133917130Y-81032728D01*
X134230009Y-81034931D01*
X134536811Y-81037216D01*
X134834693Y-81039566D01*
X135120809Y-81041961D01*
X135392315Y-81044384D01*
X135646367Y-81046817D01*
X135880119Y-81049240D01*
X136090726Y-81051637D01*
X136275345Y-81053988D01*
X136431131Y-81056275D01*
X136555238Y-81058481D01*
X136644822Y-81060587D01*
X136697038Y-81062575D01*
X136709959Y-81063968D01*
X136724595Y-81086171D01*
X136757981Y-81141236D01*
X136808036Y-81225551D01*
X136872677Y-81335506D01*
X136949823Y-81467489D01*
X137037392Y-81617887D01*
X137133302Y-81783089D01*
X137235472Y-81959483D01*
X137341820Y-82143458D01*
X137450264Y-82331401D01*
X137558723Y-82519701D01*
X137665114Y-82704745D01*
X137767356Y-82882924D01*
X137863368Y-83050624D01*
X137951066Y-83204233D01*
X138028371Y-83340141D01*
X138093199Y-83454734D01*
X138143470Y-83544403D01*
X138177101Y-83605534D01*
X138192011Y-83634516D01*
X138192573Y-83636257D01*
X138171734Y-83639173D01*
X138110526Y-83642006D01*
X138010915Y-83644735D01*
X137874866Y-83647339D01*
X137704344Y-83649798D01*
X137501313Y-83652090D01*
X137267739Y-83654196D01*
X137005587Y-83656094D01*
X136716821Y-83657765D01*
X136403406Y-83659186D01*
X136067309Y-83660338D01*
X135845416Y-83660915D01*
X133498260Y-83666299D01*
X133768738Y-84131966D01*
X134039216Y-84597632D01*
X136290519Y-84603295D01*
X138541823Y-84608958D01*
X138859323Y-85159880D01*
X138939316Y-85298939D01*
X139012381Y-85426446D01*
X139075851Y-85537707D01*
X139127058Y-85628025D01*
X139163331Y-85692704D01*
X139182004Y-85727050D01*
X139183878Y-85731009D01*
X139163915Y-85733909D01*
X139102550Y-85736608D01*
X139000715Y-85739098D01*
X138859343Y-85741373D01*
X138679364Y-85743428D01*
X138461711Y-85745257D01*
X138207315Y-85746853D01*
X137917108Y-85748210D01*
X137592021Y-85749323D01*
X137232986Y-85750186D01*
X136840935Y-85750791D01*
X136416799Y-85751134D01*
X136067575Y-85751216D01*
X132944215Y-85751216D01*
X132913719Y-85703591D01*
X132895883Y-85673934D01*
X132859397Y-85611777D01*
X132806211Y-85520504D01*
X132738277Y-85403501D01*
X132657545Y-85264154D01*
X132565964Y-85105849D01*
X132465485Y-84931970D01*
X132358060Y-84745904D01*
X132245637Y-84551036D01*
X132130168Y-84350753D01*
X132013603Y-84148438D01*
X131897892Y-83947479D01*
X131784986Y-83751261D01*
X131676835Y-83563169D01*
X131575389Y-83386589D01*
X131482599Y-83224907D01*
X131400416Y-83081508D01*
X131330790Y-82959778D01*
X131275670Y-82863102D01*
X131237008Y-82794867D01*
X131216754Y-82758457D01*
X131214198Y-82753450D01*
X131217776Y-82748989D01*
X131233493Y-82744967D01*
X131263426Y-82741357D01*
X131309653Y-82738128D01*
X131374249Y-82735253D01*
X131459291Y-82732704D01*
X131566856Y-82730450D01*
X131699021Y-82728464D01*
X131857862Y-82726717D01*
X132045456Y-82725181D01*
X132263880Y-82723826D01*
X132515211Y-82722625D01*
X132801524Y-82721548D01*
X133124897Y-82720566D01*
X133487406Y-82719653D01*
X133699935Y-82719177D01*
X136196759Y-82713799D01*
X135982448Y-82343382D01*
X135768136Y-81972966D01*
X133352163Y-81967584D01*
X130936190Y-81962203D01*
X130667192Y-81495621D01*
X130594560Y-81368925D01*
X130529969Y-81254877D01*
X130476144Y-81158404D01*
X130435812Y-81084433D01*
X130411697Y-81037890D01*
X130406008Y-81023558D01*
X130429224Y-81021963D01*
X130491880Y-81020743D01*
X130591129Y-81019879D01*
X130724129Y-81019352D01*
X130888033Y-81019144D01*
X131079998Y-81019238D01*
G36*
X139145073Y-87910216D02*
G01*
X135059906Y-87910216D01*
X135059906Y-89709382D01*
X139145073Y-89709382D01*
X139145073Y-90175049D01*
X135059906Y-90175049D01*
X135059906Y-90386716D01*
X134382573Y-90386716D01*
X134382573Y-87444549D01*
X139145073Y-87444549D01*
X139145073Y-87910216D01*
G37*
X139145073Y-87910216D02*
X135059906Y-87910216D01*
X135059906Y-89709382D01*
X139145073Y-89709382D01*
X139145073Y-90175049D01*
X135059906Y-90175049D01*
X135059906Y-90386716D01*
X134382573Y-90386716D01*
X134382573Y-87444549D01*
X139145073Y-87444549D01*
X139145073Y-87910216D01*
G36*
X163084573Y-88587549D02*
G01*
X162788240Y-88587549D01*
X162681741Y-88588737D01*
X162592221Y-88592001D01*
X162527253Y-88596888D01*
X162494410Y-88602946D01*
X162491906Y-88605243D01*
X162502105Y-88627517D01*
X162530887Y-88681498D01*
X162575532Y-88762311D01*
X162633316Y-88865083D01*
X162701519Y-88984940D01*
X162777419Y-89117006D01*
X162784415Y-89129118D01*
X163076925Y-89635299D01*
X163445100Y-89645882D01*
X163813275Y-89656466D01*
X164369544Y-90619549D01*
X164475989Y-90804129D01*
X164575756Y-90977691D01*
X164666883Y-91136779D01*
X164747405Y-91277938D01*
X164815358Y-91397713D01*
X164868778Y-91492649D01*
X164905702Y-91559290D01*
X164924165Y-91594180D01*
X164925943Y-91598507D01*
X164905651Y-91602392D01*
X164848074Y-91605932D01*
X164758259Y-91609008D01*
X164641255Y-91611500D01*
X164502108Y-91613286D01*
X164345868Y-91614248D01*
X164259323Y-91614382D01*
X163592573Y-91614382D01*
X163592573Y-91171044D01*
X163887661Y-91165172D01*
X164182749Y-91159299D01*
X163874316Y-90624841D01*
X163565883Y-90090382D01*
X162840746Y-90090382D01*
X162343534Y-89229333D01*
X162240666Y-89051180D01*
X162142470Y-88881099D01*
X162051353Y-88723260D01*
X161969721Y-88581832D01*
X161899979Y-88460981D01*
X161844533Y-88364876D01*
X161805789Y-88297686D01*
X161787686Y-88266250D01*
X161729050Y-88164216D01*
X163084573Y-88164216D01*
X163084573Y-88587549D01*
G37*
X163084573Y-88587549D02*
X162788240Y-88587549D01*
X162681741Y-88588737D01*
X162592221Y-88592001D01*
X162527253Y-88596888D01*
X162494410Y-88602946D01*
X162491906Y-88605243D01*
X162502105Y-88627517D01*
X162530887Y-88681498D01*
X162575532Y-88762311D01*
X162633316Y-88865083D01*
X162701519Y-88984940D01*
X162777419Y-89117006D01*
X162784415Y-89129118D01*
X163076925Y-89635299D01*
X163445100Y-89645882D01*
X163813275Y-89656466D01*
X164369544Y-90619549D01*
X164475989Y-90804129D01*
X164575756Y-90977691D01*
X164666883Y-91136779D01*
X164747405Y-91277938D01*
X164815358Y-91397713D01*
X164868778Y-91492649D01*
X164905702Y-91559290D01*
X164924165Y-91594180D01*
X164925943Y-91598507D01*
X164905651Y-91602392D01*
X164848074Y-91605932D01*
X164758259Y-91609008D01*
X164641255Y-91611500D01*
X164502108Y-91613286D01*
X164345868Y-91614248D01*
X164259323Y-91614382D01*
X163592573Y-91614382D01*
X163592573Y-91171044D01*
X163887661Y-91165172D01*
X164182749Y-91159299D01*
X163874316Y-90624841D01*
X163565883Y-90090382D01*
X162840746Y-90090382D01*
X162343534Y-89229333D01*
X162240666Y-89051180D01*
X162142470Y-88881099D01*
X162051353Y-88723260D01*
X161969721Y-88581832D01*
X161899979Y-88460981D01*
X161844533Y-88364876D01*
X161805789Y-88297686D01*
X161787686Y-88266250D01*
X161729050Y-88164216D01*
X163084573Y-88164216D01*
X163084573Y-88587549D01*
G36*
X164165999Y-106937940D02*
G01*
X164150425Y-106924496D01*
X164150481Y-106924419D01*
X164171680Y-106914429D01*
X164225851Y-106891402D01*
X164306640Y-106857971D01*
X164407693Y-106816764D01*
X164515704Y-106773202D01*
X164873156Y-106629757D01*
X165017267Y-106398111D01*
X165079578Y-106297837D01*
X165140986Y-106198818D01*
X165194188Y-106112841D01*
X165230232Y-106054378D01*
X165299086Y-105942290D01*
X165445955Y-106314340D01*
X165592823Y-106686389D01*
X165926198Y-106891016D01*
X166031537Y-106956280D01*
X166123168Y-107014209D01*
X166195446Y-107061140D01*
X166242729Y-107093410D01*
X166259378Y-107107304D01*
X166240626Y-107118453D01*
X166188726Y-107142153D01*
X166110019Y-107175693D01*
X166010843Y-107216363D01*
X165915420Y-107254419D01*
X165801557Y-107299836D01*
X165700564Y-107341158D01*
X165619428Y-107375444D01*
X165565133Y-107399754D01*
X165545645Y-107410098D01*
X165526498Y-107434119D01*
X165489657Y-107488081D01*
X165439251Y-107565653D01*
X165379409Y-107660501D01*
X165326882Y-107745603D01*
X165263427Y-107848014D01*
X165206968Y-107936530D01*
X165161356Y-108005325D01*
X165130440Y-108048568D01*
X165118629Y-108060882D01*
X165106243Y-108042189D01*
X165081248Y-107990244D01*
X165046386Y-107911247D01*
X165004397Y-107811398D01*
X164960455Y-107703011D01*
X164817784Y-107345140D01*
X164480247Y-107138665D01*
X164374794Y-107073523D01*
X164283634Y-107015995D01*
X164227550Y-106979575D01*
X164757438Y-106979575D01*
X164774575Y-106995616D01*
X164819344Y-107026925D01*
X164882853Y-107067366D01*
X164898049Y-107076632D01*
X164955005Y-107111395D01*
X164996063Y-107140259D01*
X165026944Y-107171381D01*
X165053372Y-107212916D01*
X165081066Y-107273020D01*
X165115749Y-107359849D01*
X165139348Y-107420591D01*
X165156668Y-107457076D01*
X165166601Y-107468216D01*
X165181145Y-107451624D01*
X165211784Y-107407672D01*
X165252491Y-107345091D01*
X165261972Y-107330053D01*
X165314117Y-107252677D01*
X165359538Y-107202472D01*
X165409737Y-107168401D01*
X165449545Y-107150021D01*
X165522260Y-107119431D01*
X165589286Y-107090543D01*
X165611606Y-107080657D01*
X165672722Y-107053162D01*
X165523603Y-106964572D01*
X165448687Y-106918537D01*
X165400019Y-106881149D01*
X165366972Y-106840264D01*
X165338919Y-106783734D01*
X165316268Y-106727599D01*
X165286486Y-106656548D01*
X165260848Y-106604047D01*
X165244187Y-106579823D01*
X165242545Y-106579216D01*
X165224951Y-106596050D01*
X165192703Y-106640527D01*
X165152273Y-106703605D01*
X165145659Y-106714518D01*
X165101772Y-106784363D01*
X165064412Y-106829739D01*
X165020386Y-106861531D01*
X164956503Y-106890622D01*
X164910510Y-106908503D01*
X164838099Y-106937641D01*
X164784223Y-106962190D01*
X164758405Y-106977729D01*
X164757438Y-106979575D01*
X164227550Y-106979575D01*
X164212219Y-106969620D01*
X164165999Y-106937940D01*
G37*
X164165999Y-106937940D02*
X164150425Y-106924496D01*
X164150481Y-106924419D01*
X164171680Y-106914429D01*
X164225851Y-106891402D01*
X164306640Y-106857971D01*
X164407693Y-106816764D01*
X164515704Y-106773202D01*
X164873156Y-106629757D01*
X165017267Y-106398111D01*
X165079578Y-106297837D01*
X165140986Y-106198818D01*
X165194188Y-106112841D01*
X165230232Y-106054378D01*
X165299086Y-105942290D01*
X165445955Y-106314340D01*
X165592823Y-106686389D01*
X165926198Y-106891016D01*
X166031537Y-106956280D01*
X166123168Y-107014209D01*
X166195446Y-107061140D01*
X166242729Y-107093410D01*
X166259378Y-107107304D01*
X166240626Y-107118453D01*
X166188726Y-107142153D01*
X166110019Y-107175693D01*
X166010843Y-107216363D01*
X165915420Y-107254419D01*
X165801557Y-107299836D01*
X165700564Y-107341158D01*
X165619428Y-107375444D01*
X165565133Y-107399754D01*
X165545645Y-107410098D01*
X165526498Y-107434119D01*
X165489657Y-107488081D01*
X165439251Y-107565653D01*
X165379409Y-107660501D01*
X165326882Y-107745603D01*
X165263427Y-107848014D01*
X165206968Y-107936530D01*
X165161356Y-108005325D01*
X165130440Y-108048568D01*
X165118629Y-108060882D01*
X165106243Y-108042189D01*
X165081248Y-107990244D01*
X165046386Y-107911247D01*
X165004397Y-107811398D01*
X164960455Y-107703011D01*
X164817784Y-107345140D01*
X164480247Y-107138665D01*
X164374794Y-107073523D01*
X164283634Y-107015995D01*
X164227550Y-106979575D01*
X164757438Y-106979575D01*
X164774575Y-106995616D01*
X164819344Y-107026925D01*
X164882853Y-107067366D01*
X164898049Y-107076632D01*
X164955005Y-107111395D01*
X164996063Y-107140259D01*
X165026944Y-107171381D01*
X165053372Y-107212916D01*
X165081066Y-107273020D01*
X165115749Y-107359849D01*
X165139348Y-107420591D01*
X165156668Y-107457076D01*
X165166601Y-107468216D01*
X165181145Y-107451624D01*
X165211784Y-107407672D01*
X165252491Y-107345091D01*
X165261972Y-107330053D01*
X165314117Y-107252677D01*
X165359538Y-107202472D01*
X165409737Y-107168401D01*
X165449545Y-107150021D01*
X165522260Y-107119431D01*
X165589286Y-107090543D01*
X165611606Y-107080657D01*
X165672722Y-107053162D01*
X165523603Y-106964572D01*
X165448687Y-106918537D01*
X165400019Y-106881149D01*
X165366972Y-106840264D01*
X165338919Y-106783734D01*
X165316268Y-106727599D01*
X165286486Y-106656548D01*
X165260848Y-106604047D01*
X165244187Y-106579823D01*
X165242545Y-106579216D01*
X165224951Y-106596050D01*
X165192703Y-106640527D01*
X165152273Y-106703605D01*
X165145659Y-106714518D01*
X165101772Y-106784363D01*
X165064412Y-106829739D01*
X165020386Y-106861531D01*
X164956503Y-106890622D01*
X164910510Y-106908503D01*
X164838099Y-106937641D01*
X164784223Y-106962190D01*
X164758405Y-106977729D01*
X164757438Y-106979575D01*
X164227550Y-106979575D01*
X164212219Y-106969620D01*
X164165999Y-106937940D01*
G36*
X143588200Y-87364165D02*
G01*
X143709297Y-87384300D01*
X143755292Y-87398705D01*
X143784184Y-87414729D01*
X143844409Y-87452041D01*
X143932261Y-87508168D01*
X144044038Y-87580635D01*
X144176036Y-87666971D01*
X144324549Y-87764700D01*
X144485875Y-87871352D01*
X144656308Y-87984451D01*
X144832146Y-88101525D01*
X145009684Y-88220102D01*
X145185218Y-88337706D01*
X145355044Y-88451866D01*
X145515458Y-88560108D01*
X145662756Y-88659959D01*
X145793234Y-88748946D01*
X145903188Y-88824595D01*
X145988914Y-88884433D01*
X146046708Y-88925987D01*
X146070747Y-88944763D01*
X146059797Y-88961040D01*
X146021780Y-88997866D01*
X145963159Y-89049947D01*
X145890400Y-89111989D01*
X145809964Y-89178699D01*
X145728316Y-89244782D01*
X145651919Y-89304945D01*
X145587237Y-89353895D01*
X145540734Y-89386337D01*
X145518873Y-89396977D01*
X145518679Y-89396910D01*
X145494245Y-89380645D01*
X145440669Y-89341203D01*
X145361977Y-89281713D01*
X145262196Y-89205301D01*
X145145354Y-89115096D01*
X145015477Y-89014225D01*
X144876593Y-88905816D01*
X144732728Y-88792996D01*
X144587908Y-88678894D01*
X144446162Y-88566636D01*
X144311516Y-88459351D01*
X144310150Y-88458259D01*
X144143818Y-88325904D01*
X144006300Y-88218260D01*
X143893916Y-88132903D01*
X143802988Y-88067409D01*
X143729837Y-88019353D01*
X143670782Y-87986311D01*
X143622144Y-87965860D01*
X143580245Y-87955575D01*
X143543291Y-87953014D01*
X143524327Y-87953148D01*
X143506067Y-87954068D01*
X143486576Y-87956952D01*
X143463920Y-87962975D01*
X143436162Y-87973316D01*
X143401369Y-87989150D01*
X143357604Y-88011655D01*
X143302934Y-88042007D01*
X143235423Y-88081383D01*
X143153136Y-88130961D01*
X143054138Y-88191916D01*
X142936495Y-88265427D01*
X142798270Y-88352669D01*
X142637529Y-88454820D01*
X142452337Y-88573056D01*
X142240759Y-88708555D01*
X142000860Y-88862493D01*
X141730705Y-89036046D01*
X141428359Y-89230393D01*
X141171855Y-89395299D01*
X140998085Y-89506912D01*
X140835426Y-89611189D01*
X140687285Y-89705961D01*
X140557071Y-89789055D01*
X140448191Y-89858302D01*
X140364054Y-89911530D01*
X140308068Y-89946569D01*
X140283640Y-89961248D01*
X140282855Y-89961560D01*
X140264216Y-89950061D01*
X140215964Y-89919357D01*
X140144025Y-89873243D01*
X140054325Y-89815517D01*
X139977231Y-89765768D01*
X139877090Y-89700787D01*
X139789502Y-89643401D01*
X139720623Y-89597689D01*
X139676609Y-89567729D01*
X139663634Y-89558063D01*
X139676246Y-89543194D01*
X139719670Y-89510893D01*
X139788154Y-89465058D01*
X139875943Y-89409588D01*
X139942726Y-89368957D01*
X140223301Y-89200302D01*
X140530628Y-89014865D01*
X140855518Y-88818228D01*
X141188781Y-88615974D01*
X141521226Y-88413686D01*
X141843664Y-88216949D01*
X142146905Y-88031344D01*
X142372990Y-87892481D01*
X142537026Y-87792109D01*
X142693412Y-87697502D01*
X142837691Y-87611279D01*
X142965406Y-87536056D01*
X143072101Y-87474450D01*
X143153319Y-87429078D01*
X143204605Y-87402558D01*
X143214592Y-87398239D01*
X143323275Y-87371119D01*
X143453669Y-87359766D01*
X143588200Y-87364165D01*
G37*
X143588200Y-87364165D02*
X143709297Y-87384300D01*
X143755292Y-87398705D01*
X143784184Y-87414729D01*
X143844409Y-87452041D01*
X143932261Y-87508168D01*
X144044038Y-87580635D01*
X144176036Y-87666971D01*
X144324549Y-87764700D01*
X144485875Y-87871352D01*
X144656308Y-87984451D01*
X144832146Y-88101525D01*
X145009684Y-88220102D01*
X145185218Y-88337706D01*
X145355044Y-88451866D01*
X145515458Y-88560108D01*
X145662756Y-88659959D01*
X145793234Y-88748946D01*
X145903188Y-88824595D01*
X145988914Y-88884433D01*
X146046708Y-88925987D01*
X146070747Y-88944763D01*
X146059797Y-88961040D01*
X146021780Y-88997866D01*
X145963159Y-89049947D01*
X145890400Y-89111989D01*
X145809964Y-89178699D01*
X145728316Y-89244782D01*
X145651919Y-89304945D01*
X145587237Y-89353895D01*
X145540734Y-89386337D01*
X145518873Y-89396977D01*
X145518679Y-89396910D01*
X145494245Y-89380645D01*
X145440669Y-89341203D01*
X145361977Y-89281713D01*
X145262196Y-89205301D01*
X145145354Y-89115096D01*
X145015477Y-89014225D01*
X144876593Y-88905816D01*
X144732728Y-88792996D01*
X144587908Y-88678894D01*
X144446162Y-88566636D01*
X144311516Y-88459351D01*
X144310150Y-88458259D01*
X144143818Y-88325904D01*
X144006300Y-88218260D01*
X143893916Y-88132903D01*
X143802988Y-88067409D01*
X143729837Y-88019353D01*
X143670782Y-87986311D01*
X143622144Y-87965860D01*
X143580245Y-87955575D01*
X143543291Y-87953014D01*
X143524327Y-87953148D01*
X143506067Y-87954068D01*
X143486576Y-87956952D01*
X143463920Y-87962975D01*
X143436162Y-87973316D01*
X143401369Y-87989150D01*
X143357604Y-88011655D01*
X143302934Y-88042007D01*
X143235423Y-88081383D01*
X143153136Y-88130961D01*
X143054138Y-88191916D01*
X142936495Y-88265427D01*
X142798270Y-88352669D01*
X142637529Y-88454820D01*
X142452337Y-88573056D01*
X142240759Y-88708555D01*
X142000860Y-88862493D01*
X141730705Y-89036046D01*
X141428359Y-89230393D01*
X141171855Y-89395299D01*
X140998085Y-89506912D01*
X140835426Y-89611189D01*
X140687285Y-89705961D01*
X140557071Y-89789055D01*
X140448191Y-89858302D01*
X140364054Y-89911530D01*
X140308068Y-89946569D01*
X140283640Y-89961248D01*
X140282855Y-89961560D01*
X140264216Y-89950061D01*
X140215964Y-89919357D01*
X140144025Y-89873243D01*
X140054325Y-89815517D01*
X139977231Y-89765768D01*
X139877090Y-89700787D01*
X139789502Y-89643401D01*
X139720623Y-89597689D01*
X139676609Y-89567729D01*
X139663634Y-89558063D01*
X139676246Y-89543194D01*
X139719670Y-89510893D01*
X139788154Y-89465058D01*
X139875943Y-89409588D01*
X139942726Y-89368957D01*
X140223301Y-89200302D01*
X140530628Y-89014865D01*
X140855518Y-88818228D01*
X141188781Y-88615974D01*
X141521226Y-88413686D01*
X141843664Y-88216949D01*
X142146905Y-88031344D01*
X142372990Y-87892481D01*
X142537026Y-87792109D01*
X142693412Y-87697502D01*
X142837691Y-87611279D01*
X142965406Y-87536056D01*
X143072101Y-87474450D01*
X143153319Y-87429078D01*
X143204605Y-87402558D01*
X143214592Y-87398239D01*
X143323275Y-87371119D01*
X143453669Y-87359766D01*
X143588200Y-87364165D01*
G36*
X164793513Y-104971864D02*
G01*
X164839183Y-104929781D01*
X164957494Y-104819882D01*
X165065491Y-104717355D01*
X165159212Y-104626139D01*
X165234694Y-104550170D01*
X165287974Y-104493388D01*
X165315089Y-104459729D01*
X165317618Y-104454378D01*
X165324098Y-104422440D01*
X165337421Y-104354743D01*
X165356456Y-104257101D01*
X165380072Y-104135331D01*
X165407139Y-103995249D01*
X165436528Y-103842670D01*
X165439313Y-103828187D01*
X165551102Y-103246742D01*
X166410358Y-104182440D01*
X166985840Y-104292483D01*
X167138811Y-104321919D01*
X167280067Y-104349452D01*
X167403696Y-104373901D01*
X167503785Y-104394087D01*
X167574421Y-104408828D01*
X167609691Y-104416945D01*
X167610469Y-104417170D01*
X167622003Y-104423669D01*
X167623447Y-104435874D01*
X167611946Y-104456820D01*
X167584646Y-104489541D01*
X167538694Y-104537071D01*
X167471236Y-104602442D01*
X167379418Y-104688691D01*
X167260388Y-104798849D01*
X167193903Y-104860048D01*
X167061242Y-104982177D01*
X166956321Y-105079511D01*
X166875679Y-105155872D01*
X166815858Y-105215077D01*
X166773399Y-105260947D01*
X166744841Y-105297301D01*
X166726726Y-105327960D01*
X166715595Y-105356742D01*
X166707988Y-105387468D01*
X166705538Y-105399291D01*
X166695050Y-105451884D01*
X166678052Y-105538542D01*
X166656004Y-105651755D01*
X166630368Y-105784010D01*
X166602603Y-105927797D01*
X166587216Y-106007716D01*
X166560212Y-106147720D01*
X166535733Y-106273872D01*
X166514945Y-106380223D01*
X166499014Y-106460828D01*
X166489105Y-106509740D01*
X166486428Y-106521782D01*
X166471451Y-106511088D01*
X166431581Y-106472752D01*
X166370383Y-106410472D01*
X166291422Y-106327944D01*
X166198264Y-106228867D01*
X166094474Y-106116938D01*
X166061683Y-106081282D01*
X165953041Y-105963937D01*
X165851713Y-105856409D01*
X165761721Y-105762819D01*
X165687088Y-105687284D01*
X165631836Y-105633924D01*
X165599989Y-105606857D01*
X165596275Y-105604731D01*
X165563919Y-105595804D01*
X165495828Y-105580442D01*
X165397906Y-105559859D01*
X165276056Y-105535265D01*
X165136180Y-105507875D01*
X164984180Y-105478901D01*
X164978990Y-105477925D01*
X164828489Y-105449585D01*
X164691496Y-105423683D01*
X164573557Y-105401275D01*
X164480215Y-105383419D01*
X164417017Y-105371171D01*
X164389507Y-105365589D01*
X164389072Y-105365478D01*
X164399369Y-105350526D01*
X164437358Y-105310620D01*
X164499402Y-105249282D01*
X164581867Y-105170030D01*
X164667984Y-105088774D01*
X165312523Y-105088774D01*
X165312856Y-105089221D01*
X165335472Y-105096233D01*
X165391484Y-105109625D01*
X165472759Y-105127548D01*
X165571167Y-105148158D01*
X165583846Y-105150745D01*
X165846823Y-105204257D01*
X166020407Y-105389028D01*
X166088066Y-105462582D01*
X166143688Y-105525967D01*
X166181488Y-105572384D01*
X166195675Y-105594966D01*
X166201836Y-105608845D01*
X166214111Y-105585061D01*
X166231319Y-105527651D01*
X166252279Y-105440653D01*
X166275811Y-105328103D01*
X166280004Y-105306605D01*
X166327522Y-105060578D01*
X166524377Y-104883272D01*
X166597828Y-104815171D01*
X166656562Y-104756962D01*
X166695056Y-104714405D01*
X166707787Y-104693256D01*
X166707360Y-104692468D01*
X166682276Y-104683557D01*
X166624098Y-104669180D01*
X166541410Y-104651298D01*
X166442794Y-104631873D01*
X166439490Y-104631251D01*
X166185490Y-104583533D01*
X166005573Y-104385565D01*
X165929290Y-104303065D01*
X165875897Y-104249419D01*
X165841068Y-104221058D01*
X165820475Y-104214414D01*
X165810333Y-104224531D01*
X165800308Y-104259720D01*
X165785068Y-104326296D01*
X165766864Y-104413975D01*
X165751817Y-104491678D01*
X165708623Y-104721891D01*
X165558873Y-104860537D01*
X165487354Y-104926001D01*
X165421717Y-104984760D01*
X165372063Y-105027825D01*
X165356983Y-105040195D01*
X165323249Y-105070703D01*
X165312523Y-105088774D01*
X164667984Y-105088774D01*
X164681116Y-105076384D01*
X164793513Y-104971864D01*
G37*
X164793513Y-104971864D02*
X164839183Y-104929781D01*
X164957494Y-104819882D01*
X165065491Y-104717355D01*
X165159212Y-104626139D01*
X165234694Y-104550170D01*
X165287974Y-104493388D01*
X165315089Y-104459729D01*
X165317618Y-104454378D01*
X165324098Y-104422440D01*
X165337421Y-104354743D01*
X165356456Y-104257101D01*
X165380072Y-104135331D01*
X165407139Y-103995249D01*
X165436528Y-103842670D01*
X165439313Y-103828187D01*
X165551102Y-103246742D01*
X166410358Y-104182440D01*
X166985840Y-104292483D01*
X167138811Y-104321919D01*
X167280067Y-104349452D01*
X167403696Y-104373901D01*
X167503785Y-104394087D01*
X167574421Y-104408828D01*
X167609691Y-104416945D01*
X167610469Y-104417170D01*
X167622003Y-104423669D01*
X167623447Y-104435874D01*
X167611946Y-104456820D01*
X167584646Y-104489541D01*
X167538694Y-104537071D01*
X167471236Y-104602442D01*
X167379418Y-104688691D01*
X167260388Y-104798849D01*
X167193903Y-104860048D01*
X167061242Y-104982177D01*
X166956321Y-105079511D01*
X166875679Y-105155872D01*
X166815858Y-105215077D01*
X166773399Y-105260947D01*
X166744841Y-105297301D01*
X166726726Y-105327960D01*
X166715595Y-105356742D01*
X166707988Y-105387468D01*
X166705538Y-105399291D01*
X166695050Y-105451884D01*
X166678052Y-105538542D01*
X166656004Y-105651755D01*
X166630368Y-105784010D01*
X166602603Y-105927797D01*
X166587216Y-106007716D01*
X166560212Y-106147720D01*
X166535733Y-106273872D01*
X166514945Y-106380223D01*
X166499014Y-106460828D01*
X166489105Y-106509740D01*
X166486428Y-106521782D01*
X166471451Y-106511088D01*
X166431581Y-106472752D01*
X166370383Y-106410472D01*
X166291422Y-106327944D01*
X166198264Y-106228867D01*
X166094474Y-106116938D01*
X166061683Y-106081282D01*
X165953041Y-105963937D01*
X165851713Y-105856409D01*
X165761721Y-105762819D01*
X165687088Y-105687284D01*
X165631836Y-105633924D01*
X165599989Y-105606857D01*
X165596275Y-105604731D01*
X165563919Y-105595804D01*
X165495828Y-105580442D01*
X165397906Y-105559859D01*
X165276056Y-105535265D01*
X165136180Y-105507875D01*
X164984180Y-105478901D01*
X164978990Y-105477925D01*
X164828489Y-105449585D01*
X164691496Y-105423683D01*
X164573557Y-105401275D01*
X164480215Y-105383419D01*
X164417017Y-105371171D01*
X164389507Y-105365589D01*
X164389072Y-105365478D01*
X164399369Y-105350526D01*
X164437358Y-105310620D01*
X164499402Y-105249282D01*
X164581867Y-105170030D01*
X164667984Y-105088774D01*
X165312523Y-105088774D01*
X165312856Y-105089221D01*
X165335472Y-105096233D01*
X165391484Y-105109625D01*
X165472759Y-105127548D01*
X165571167Y-105148158D01*
X165583846Y-105150745D01*
X165846823Y-105204257D01*
X166020407Y-105389028D01*
X166088066Y-105462582D01*
X166143688Y-105525967D01*
X166181488Y-105572384D01*
X166195675Y-105594966D01*
X166201836Y-105608845D01*
X166214111Y-105585061D01*
X166231319Y-105527651D01*
X166252279Y-105440653D01*
X166275811Y-105328103D01*
X166280004Y-105306605D01*
X166327522Y-105060578D01*
X166524377Y-104883272D01*
X166597828Y-104815171D01*
X166656562Y-104756962D01*
X166695056Y-104714405D01*
X166707787Y-104693256D01*
X166707360Y-104692468D01*
X166682276Y-104683557D01*
X166624098Y-104669180D01*
X166541410Y-104651298D01*
X166442794Y-104631873D01*
X166439490Y-104631251D01*
X166185490Y-104583533D01*
X166005573Y-104385565D01*
X165929290Y-104303065D01*
X165875897Y-104249419D01*
X165841068Y-104221058D01*
X165820475Y-104214414D01*
X165810333Y-104224531D01*
X165800308Y-104259720D01*
X165785068Y-104326296D01*
X165766864Y-104413975D01*
X165751817Y-104491678D01*
X165708623Y-104721891D01*
X165558873Y-104860537D01*
X165487354Y-104926001D01*
X165421717Y-104984760D01*
X165372063Y-105027825D01*
X165356983Y-105040195D01*
X165323249Y-105070703D01*
X165312523Y-105088774D01*
X164667984Y-105088774D01*
X164681116Y-105076384D01*
X164793513Y-104971864D01*
G36*
X159803740Y-88649917D02*
G01*
X159501114Y-88655775D01*
X159198489Y-88661632D01*
X159498463Y-89180216D01*
X159798437Y-89698799D01*
X160166154Y-89709382D01*
X160533872Y-89719966D01*
X161035607Y-90587799D01*
X161138870Y-90766513D01*
X161237319Y-90937092D01*
X161328574Y-91095402D01*
X161410259Y-91237309D01*
X161479994Y-91358676D01*
X161535401Y-91455371D01*
X161574103Y-91523257D01*
X161592612Y-91556174D01*
X161647882Y-91656716D01*
X160311740Y-91656716D01*
X160311740Y-91234544D01*
X160607389Y-91228672D01*
X160903039Y-91222799D01*
X160279989Y-90143299D01*
X159912013Y-90132716D01*
X159544038Y-90122132D01*
X159016954Y-89211966D01*
X158912591Y-89031741D01*
X158814250Y-88861897D01*
X158724056Y-88706103D01*
X158644133Y-88568029D01*
X158576605Y-88451345D01*
X158523596Y-88359722D01*
X158487230Y-88296829D01*
X158469631Y-88266335D01*
X158468727Y-88264757D01*
X158464948Y-88254528D01*
X158469327Y-88246372D01*
X158486011Y-88240057D01*
X158519147Y-88235349D01*
X158572880Y-88232013D01*
X158651358Y-88229816D01*
X158758728Y-88228524D01*
X158899136Y-88227903D01*
X159076728Y-88227720D01*
X159125661Y-88227716D01*
X159803740Y-88227716D01*
X159803740Y-88649917D01*
G37*
X159803740Y-88649917D02*
X159501114Y-88655775D01*
X159198489Y-88661632D01*
X159498463Y-89180216D01*
X159798437Y-89698799D01*
X160166154Y-89709382D01*
X160533872Y-89719966D01*
X161035607Y-90587799D01*
X161138870Y-90766513D01*
X161237319Y-90937092D01*
X161328574Y-91095402D01*
X161410259Y-91237309D01*
X161479994Y-91358676D01*
X161535401Y-91455371D01*
X161574103Y-91523257D01*
X161592612Y-91556174D01*
X161647882Y-91656716D01*
X160311740Y-91656716D01*
X160311740Y-91234544D01*
X160607389Y-91228672D01*
X160903039Y-91222799D01*
X160279989Y-90143299D01*
X159912013Y-90132716D01*
X159544038Y-90122132D01*
X159016954Y-89211966D01*
X158912591Y-89031741D01*
X158814250Y-88861897D01*
X158724056Y-88706103D01*
X158644133Y-88568029D01*
X158576605Y-88451345D01*
X158523596Y-88359722D01*
X158487230Y-88296829D01*
X158469631Y-88266335D01*
X158468727Y-88264757D01*
X158464948Y-88254528D01*
X158469327Y-88246372D01*
X158486011Y-88240057D01*
X158519147Y-88235349D01*
X158572880Y-88232013D01*
X158651358Y-88229816D01*
X158758728Y-88228524D01*
X158899136Y-88227903D01*
X159076728Y-88227720D01*
X159125661Y-88227716D01*
X159803740Y-88227716D01*
X159803740Y-88649917D01*
G36*
X137976434Y-61249854D02*
G01*
X137966916Y-61268664D01*
X137935509Y-61317264D01*
X137885262Y-61391233D01*
X137819224Y-61486152D01*
X137740443Y-61597601D01*
X137651968Y-61721160D01*
X137637145Y-61741719D01*
X137397960Y-62077269D01*
X137180441Y-62391829D01*
X136977874Y-62695820D01*
X136783547Y-62999667D01*
X136590745Y-63313790D01*
X136392755Y-63648613D01*
X136255951Y-63886049D01*
X135788439Y-64735553D01*
X135351624Y-65592443D01*
X134946125Y-66454707D01*
X134572562Y-67320334D01*
X134231554Y-68187312D01*
X133923720Y-69053628D01*
X133649681Y-69917273D01*
X133410056Y-70776232D01*
X133205464Y-71628495D01*
X133036524Y-72472050D01*
X132903856Y-73304885D01*
X132808080Y-74124989D01*
X132749815Y-74930349D01*
X132735114Y-75320246D01*
X132727971Y-75983896D01*
X132742237Y-76617647D01*
X132778413Y-77228413D01*
X132836999Y-77823105D01*
X132918495Y-78408635D01*
X132987497Y-78806388D01*
X133003880Y-78897011D01*
X133016056Y-78970471D01*
X133022637Y-79017967D01*
X133023011Y-79031313D01*
X133001416Y-79036960D01*
X132945467Y-79049416D01*
X132862315Y-79067148D01*
X132759108Y-79088622D01*
X132689240Y-79102928D01*
X132574337Y-79126337D01*
X132472230Y-79147180D01*
X132390968Y-79163811D01*
X132338603Y-79174583D01*
X132324851Y-79177453D01*
X132288560Y-79167095D01*
X132276796Y-79148182D01*
X132260037Y-79081744D01*
X132239628Y-78978536D01*
X132216309Y-78843892D01*
X132190822Y-78683148D01*
X132163907Y-78501638D01*
X132136304Y-78304697D01*
X132108755Y-78097660D01*
X132082001Y-77885862D01*
X132056781Y-77674636D01*
X132033837Y-77469320D01*
X132013910Y-77275246D01*
X132007739Y-77210466D01*
X131999041Y-77088393D01*
X131991902Y-76929942D01*
X131986299Y-76741039D01*
X131982209Y-76527608D01*
X131979609Y-76295575D01*
X131978474Y-76050865D01*
X131978784Y-75799405D01*
X131980513Y-75547118D01*
X131983638Y-75299932D01*
X131988137Y-75063770D01*
X131993987Y-74844559D01*
X132001163Y-74648225D01*
X132009643Y-74480691D01*
X132018943Y-74352966D01*
X132098982Y-73589882D01*
X132201233Y-72844638D01*
X132327315Y-72109233D01*
X132478846Y-71375668D01*
X132657446Y-70635942D01*
X132864733Y-69882055D01*
X133042468Y-69294661D01*
X133304011Y-68508621D01*
X133599239Y-67707962D01*
X133925186Y-66899246D01*
X134278884Y-66089040D01*
X134657367Y-65283906D01*
X135057668Y-64490408D01*
X135476821Y-63715111D01*
X135877335Y-63022226D01*
X135952108Y-62895939D01*
X136006172Y-62801703D01*
X136041372Y-62735740D01*
X136059549Y-62694274D01*
X136062548Y-62673531D01*
X136052212Y-62669732D01*
X136048989Y-62670585D01*
X136014449Y-62683486D01*
X135948435Y-62709940D01*
X135858409Y-62746889D01*
X135751837Y-62791276D01*
X135663156Y-62828616D01*
X134978935Y-63130237D01*
X134308464Y-63450968D01*
X133640037Y-63796634D01*
X132964406Y-64171651D01*
X132102169Y-64688367D01*
X131266693Y-65234511D01*
X130458966Y-65809129D01*
X129679980Y-66411263D01*
X128930726Y-67039958D01*
X128212193Y-67694258D01*
X127525373Y-68373207D01*
X126871256Y-69075849D01*
X126250832Y-69801227D01*
X125665092Y-70548385D01*
X125115026Y-71316368D01*
X124601626Y-72104219D01*
X124396850Y-72441348D01*
X123985537Y-73167286D01*
X123596131Y-73923385D01*
X123232304Y-74701604D01*
X122897730Y-75493900D01*
X122596081Y-76292228D01*
X122465563Y-76670716D01*
X122429826Y-76780194D01*
X122388491Y-76910989D01*
X122343169Y-77057605D01*
X122295470Y-77214546D01*
X122247005Y-77376317D01*
X122199384Y-77537422D01*
X122154219Y-77692367D01*
X122113120Y-77835655D01*
X122077697Y-77961792D01*
X122049561Y-78065283D01*
X122030322Y-78140631D01*
X122021592Y-78182342D01*
X122021240Y-78186720D01*
X122009712Y-78206304D01*
X121969782Y-78203611D01*
X121963031Y-78201975D01*
X121922171Y-78191652D01*
X121849282Y-78173242D01*
X121753380Y-78149024D01*
X121643482Y-78121272D01*
X121597906Y-78109764D01*
X121290990Y-78032268D01*
X121295899Y-77968737D01*
X121304179Y-77921621D01*
X121323649Y-77839690D01*
X121352707Y-77728484D01*
X121389756Y-77593542D01*
X121433195Y-77440406D01*
X121481426Y-77274616D01*
X121532850Y-77101711D01*
X121585867Y-76927232D01*
X121638877Y-76756719D01*
X121690283Y-76595713D01*
X121707244Y-76543716D01*
X122032790Y-75618207D01*
X122395133Y-74713199D01*
X122794050Y-73829121D01*
X123229315Y-72966403D01*
X123700707Y-72125477D01*
X124208001Y-71306771D01*
X124750973Y-70510718D01*
X125064218Y-70083387D01*
X125468986Y-69558581D01*
X125876298Y-69058744D01*
X126292428Y-68577009D01*
X126723648Y-68106506D01*
X127176232Y-67640366D01*
X127656453Y-67171721D01*
X128106656Y-66751999D01*
X128664724Y-66260265D01*
X129259241Y-65771417D01*
X129884342Y-65289641D01*
X130534163Y-64819124D01*
X131202838Y-64364053D01*
X131884502Y-63928614D01*
X132573293Y-63516994D01*
X132890323Y-63337129D01*
X133393538Y-63064643D01*
X133915176Y-62797641D01*
X134446259Y-62540291D01*
X134977813Y-62296761D01*
X135500860Y-62071217D01*
X136006425Y-61867829D01*
X136266406Y-61769634D01*
X136355168Y-61738195D01*
X136469143Y-61699775D01*
X136603310Y-61655900D01*
X136752649Y-61608097D01*
X136912141Y-61557892D01*
X137076767Y-61506809D01*
X137241505Y-61456376D01*
X137401337Y-61408117D01*
X137551243Y-61363558D01*
X137686203Y-61324226D01*
X137801197Y-61291647D01*
X137891205Y-61267345D01*
X137951207Y-61252847D01*
X137976185Y-61249678D01*
X137976434Y-61249854D01*
G37*
X137976434Y-61249854D02*
X137966916Y-61268664D01*
X137935509Y-61317264D01*
X137885262Y-61391233D01*
X137819224Y-61486152D01*
X137740443Y-61597601D01*
X137651968Y-61721160D01*
X137637145Y-61741719D01*
X137397960Y-62077269D01*
X137180441Y-62391829D01*
X136977874Y-62695820D01*
X136783547Y-62999667D01*
X136590745Y-63313790D01*
X136392755Y-63648613D01*
X136255951Y-63886049D01*
X135788439Y-64735553D01*
X135351624Y-65592443D01*
X134946125Y-66454707D01*
X134572562Y-67320334D01*
X134231554Y-68187312D01*
X133923720Y-69053628D01*
X133649681Y-69917273D01*
X133410056Y-70776232D01*
X133205464Y-71628495D01*
X133036524Y-72472050D01*
X132903856Y-73304885D01*
X132808080Y-74124989D01*
X132749815Y-74930349D01*
X132735114Y-75320246D01*
X132727971Y-75983896D01*
X132742237Y-76617647D01*
X132778413Y-77228413D01*
X132836999Y-77823105D01*
X132918495Y-78408635D01*
X132987497Y-78806388D01*
X133003880Y-78897011D01*
X133016056Y-78970471D01*
X133022637Y-79017967D01*
X133023011Y-79031313D01*
X133001416Y-79036960D01*
X132945467Y-79049416D01*
X132862315Y-79067148D01*
X132759108Y-79088622D01*
X132689240Y-79102928D01*
X132574337Y-79126337D01*
X132472230Y-79147180D01*
X132390968Y-79163811D01*
X132338603Y-79174583D01*
X132324851Y-79177453D01*
X132288560Y-79167095D01*
X132276796Y-79148182D01*
X132260037Y-79081744D01*
X132239628Y-78978536D01*
X132216309Y-78843892D01*
X132190822Y-78683148D01*
X132163907Y-78501638D01*
X132136304Y-78304697D01*
X132108755Y-78097660D01*
X132082001Y-77885862D01*
X132056781Y-77674636D01*
X132033837Y-77469320D01*
X132013910Y-77275246D01*
X132007739Y-77210466D01*
X131999041Y-77088393D01*
X131991902Y-76929942D01*
X131986299Y-76741039D01*
X131982209Y-76527608D01*
X131979609Y-76295575D01*
X131978474Y-76050865D01*
X131978784Y-75799405D01*
X131980513Y-75547118D01*
X131983638Y-75299932D01*
X131988137Y-75063770D01*
X131993987Y-74844559D01*
X132001163Y-74648225D01*
X132009643Y-74480691D01*
X132018943Y-74352966D01*
X132098982Y-73589882D01*
X132201233Y-72844638D01*
X132327315Y-72109233D01*
X132478846Y-71375668D01*
X132657446Y-70635942D01*
X132864733Y-69882055D01*
X133042468Y-69294661D01*
X133304011Y-68508621D01*
X133599239Y-67707962D01*
X133925186Y-66899246D01*
X134278884Y-66089040D01*
X134657367Y-65283906D01*
X135057668Y-64490408D01*
X135476821Y-63715111D01*
X135877335Y-63022226D01*
X135952108Y-62895939D01*
X136006172Y-62801703D01*
X136041372Y-62735740D01*
X136059549Y-62694274D01*
X136062548Y-62673531D01*
X136052212Y-62669732D01*
X136048989Y-62670585D01*
X136014449Y-62683486D01*
X135948435Y-62709940D01*
X135858409Y-62746889D01*
X135751837Y-62791276D01*
X135663156Y-62828616D01*
X134978935Y-63130237D01*
X134308464Y-63450968D01*
X133640037Y-63796634D01*
X132964406Y-64171651D01*
X132102169Y-64688367D01*
X131266693Y-65234511D01*
X130458966Y-65809129D01*
X129679980Y-66411263D01*
X128930726Y-67039958D01*
X128212193Y-67694258D01*
X127525373Y-68373207D01*
X126871256Y-69075849D01*
X126250832Y-69801227D01*
X125665092Y-70548385D01*
X125115026Y-71316368D01*
X124601626Y-72104219D01*
X124396850Y-72441348D01*
X123985537Y-73167286D01*
X123596131Y-73923385D01*
X123232304Y-74701604D01*
X122897730Y-75493900D01*
X122596081Y-76292228D01*
X122465563Y-76670716D01*
X122429826Y-76780194D01*
X122388491Y-76910989D01*
X122343169Y-77057605D01*
X122295470Y-77214546D01*
X122247005Y-77376317D01*
X122199384Y-77537422D01*
X122154219Y-77692367D01*
X122113120Y-77835655D01*
X122077697Y-77961792D01*
X122049561Y-78065283D01*
X122030322Y-78140631D01*
X122021592Y-78182342D01*
X122021240Y-78186720D01*
X122009712Y-78206304D01*
X121969782Y-78203611D01*
X121963031Y-78201975D01*
X121922171Y-78191652D01*
X121849282Y-78173242D01*
X121753380Y-78149024D01*
X121643482Y-78121272D01*
X121597906Y-78109764D01*
X121290990Y-78032268D01*
X121295899Y-77968737D01*
X121304179Y-77921621D01*
X121323649Y-77839690D01*
X121352707Y-77728484D01*
X121389756Y-77593542D01*
X121433195Y-77440406D01*
X121481426Y-77274616D01*
X121532850Y-77101711D01*
X121585867Y-76927232D01*
X121638877Y-76756719D01*
X121690283Y-76595713D01*
X121707244Y-76543716D01*
X122032790Y-75618207D01*
X122395133Y-74713199D01*
X122794050Y-73829121D01*
X123229315Y-72966403D01*
X123700707Y-72125477D01*
X124208001Y-71306771D01*
X124750973Y-70510718D01*
X125064218Y-70083387D01*
X125468986Y-69558581D01*
X125876298Y-69058744D01*
X126292428Y-68577009D01*
X126723648Y-68106506D01*
X127176232Y-67640366D01*
X127656453Y-67171721D01*
X128106656Y-66751999D01*
X128664724Y-66260265D01*
X129259241Y-65771417D01*
X129884342Y-65289641D01*
X130534163Y-64819124D01*
X131202838Y-64364053D01*
X131884502Y-63928614D01*
X132573293Y-63516994D01*
X132890323Y-63337129D01*
X133393538Y-63064643D01*
X133915176Y-62797641D01*
X134446259Y-62540291D01*
X134977813Y-62296761D01*
X135500860Y-62071217D01*
X136006425Y-61867829D01*
X136266406Y-61769634D01*
X136355168Y-61738195D01*
X136469143Y-61699775D01*
X136603310Y-61655900D01*
X136752649Y-61608097D01*
X136912141Y-61557892D01*
X137076767Y-61506809D01*
X137241505Y-61456376D01*
X137401337Y-61408117D01*
X137551243Y-61363558D01*
X137686203Y-61324226D01*
X137801197Y-61291647D01*
X137891205Y-61267345D01*
X137951207Y-61252847D01*
X137976185Y-61249678D01*
X137976434Y-61249854D01*
G36*
X152974582Y-80834332D02*
G01*
X153266800Y-80834877D01*
X153597203Y-80835676D01*
X153902442Y-80836515D01*
X154233849Y-80837581D01*
X154569333Y-80838884D01*
X154904488Y-80840397D01*
X155234909Y-80842090D01*
X155556191Y-80843934D01*
X155863929Y-80845901D01*
X156153718Y-80847961D01*
X156421151Y-80850085D01*
X156661825Y-80852244D01*
X156871335Y-80854410D01*
X157045274Y-80856554D01*
X157122234Y-80857682D01*
X158049646Y-80872299D01*
X159437118Y-83274716D01*
X159606929Y-83568809D01*
X159770934Y-83852968D01*
X159927879Y-84125017D01*
X160076514Y-84382784D01*
X160215587Y-84624092D01*
X160343847Y-84846768D01*
X160460042Y-85048638D01*
X160562921Y-85227526D01*
X160651233Y-85381259D01*
X160723725Y-85507662D01*
X160779147Y-85604561D01*
X160816247Y-85669780D01*
X160833773Y-85701147D01*
X160835012Y-85703591D01*
X160828965Y-85707236D01*
X160806701Y-85710553D01*
X160766545Y-85713553D01*
X160706822Y-85716252D01*
X160625857Y-85718662D01*
X160521974Y-85720797D01*
X160393498Y-85722671D01*
X160238754Y-85724297D01*
X160056067Y-85725689D01*
X159843762Y-85726861D01*
X159600163Y-85727826D01*
X159323595Y-85728598D01*
X159012383Y-85729191D01*
X158664851Y-85729617D01*
X158279326Y-85729892D01*
X157854130Y-85730028D01*
X157583992Y-85730049D01*
X154322549Y-85730049D01*
X154292853Y-85682424D01*
X154257992Y-85624933D01*
X154209254Y-85542342D01*
X154149675Y-85439994D01*
X154082289Y-85323229D01*
X154010130Y-85197391D01*
X153936233Y-85067822D01*
X153863632Y-84939863D01*
X153795362Y-84818858D01*
X153734458Y-84710147D01*
X153683954Y-84619073D01*
X153646885Y-84550979D01*
X153626284Y-84511207D01*
X153623073Y-84503305D01*
X153641603Y-84499477D01*
X153697514Y-84495940D01*
X153791289Y-84492688D01*
X153923407Y-84489715D01*
X154094352Y-84487018D01*
X154304603Y-84484589D01*
X154554643Y-84482425D01*
X154844953Y-84480518D01*
X155176015Y-84478866D01*
X155548309Y-84477461D01*
X155962319Y-84476298D01*
X156087557Y-84476012D01*
X158552041Y-84470632D01*
X158325932Y-84074653D01*
X158099823Y-83678673D01*
X155666249Y-83672486D01*
X153232674Y-83666299D01*
X152430751Y-82279882D01*
X152302059Y-82057191D01*
X152179510Y-81844740D01*
X152125230Y-81750456D01*
X153600901Y-81750456D01*
X153659612Y-81851945D01*
X153688162Y-81901421D01*
X153733542Y-81980211D01*
X153791497Y-82080919D01*
X153857771Y-82196150D01*
X153928109Y-82318510D01*
X153940573Y-82340198D01*
X154162823Y-82726961D01*
X155305823Y-82712213D01*
X155541414Y-82709038D01*
X155779948Y-82705576D01*
X156015074Y-82701932D01*
X156240442Y-82698217D01*
X156449702Y-82694539D01*
X156636501Y-82691006D01*
X156794491Y-82687726D01*
X156917320Y-82684809D01*
X156930276Y-82684465D01*
X157411728Y-82671466D01*
X157148851Y-82216382D01*
X156885975Y-81761299D01*
X155243438Y-81755877D01*
X153600901Y-81750456D01*
X152125230Y-81750456D01*
X152064767Y-81645434D01*
X151959490Y-81462178D01*
X151865340Y-81297873D01*
X151783979Y-81155426D01*
X151717068Y-81037739D01*
X151666268Y-80947718D01*
X151633241Y-80888265D01*
X151619649Y-80862284D01*
X151619444Y-80861716D01*
X151621477Y-80856686D01*
X151632236Y-80852235D01*
X151653988Y-80848338D01*
X151688997Y-80844970D01*
X151739531Y-80842106D01*
X151807854Y-80839721D01*
X151896234Y-80837790D01*
X152006935Y-80836287D01*
X152142225Y-80835189D01*
X152304368Y-80834469D01*
X152495631Y-80834103D01*
X152718281Y-80834065D01*
X152974582Y-80834332D01*
G37*
X152974582Y-80834332D02*
X153266800Y-80834877D01*
X153597203Y-80835676D01*
X153902442Y-80836515D01*
X154233849Y-80837581D01*
X154569333Y-80838884D01*
X154904488Y-80840397D01*
X155234909Y-80842090D01*
X155556191Y-80843934D01*
X155863929Y-80845901D01*
X156153718Y-80847961D01*
X156421151Y-80850085D01*
X156661825Y-80852244D01*
X156871335Y-80854410D01*
X157045274Y-80856554D01*
X157122234Y-80857682D01*
X158049646Y-80872299D01*
X159437118Y-83274716D01*
X159606929Y-83568809D01*
X159770934Y-83852968D01*
X159927879Y-84125017D01*
X160076514Y-84382784D01*
X160215587Y-84624092D01*
X160343847Y-84846768D01*
X160460042Y-85048638D01*
X160562921Y-85227526D01*
X160651233Y-85381259D01*
X160723725Y-85507662D01*
X160779147Y-85604561D01*
X160816247Y-85669780D01*
X160833773Y-85701147D01*
X160835012Y-85703591D01*
X160828965Y-85707236D01*
X160806701Y-85710553D01*
X160766545Y-85713553D01*
X160706822Y-85716252D01*
X160625857Y-85718662D01*
X160521974Y-85720797D01*
X160393498Y-85722671D01*
X160238754Y-85724297D01*
X160056067Y-85725689D01*
X159843762Y-85726861D01*
X159600163Y-85727826D01*
X159323595Y-85728598D01*
X159012383Y-85729191D01*
X158664851Y-85729617D01*
X158279326Y-85729892D01*
X157854130Y-85730028D01*
X157583992Y-85730049D01*
X154322549Y-85730049D01*
X154292853Y-85682424D01*
X154257992Y-85624933D01*
X154209254Y-85542342D01*
X154149675Y-85439994D01*
X154082289Y-85323229D01*
X154010130Y-85197391D01*
X153936233Y-85067822D01*
X153863632Y-84939863D01*
X153795362Y-84818858D01*
X153734458Y-84710147D01*
X153683954Y-84619073D01*
X153646885Y-84550979D01*
X153626284Y-84511207D01*
X153623073Y-84503305D01*
X153641603Y-84499477D01*
X153697514Y-84495940D01*
X153791289Y-84492688D01*
X153923407Y-84489715D01*
X154094352Y-84487018D01*
X154304603Y-84484589D01*
X154554643Y-84482425D01*
X154844953Y-84480518D01*
X155176015Y-84478866D01*
X155548309Y-84477461D01*
X155962319Y-84476298D01*
X156087557Y-84476012D01*
X158552041Y-84470632D01*
X158325932Y-84074653D01*
X158099823Y-83678673D01*
X155666249Y-83672486D01*
X153232674Y-83666299D01*
X152430751Y-82279882D01*
X152302059Y-82057191D01*
X152179510Y-81844740D01*
X152125230Y-81750456D01*
X153600901Y-81750456D01*
X153659612Y-81851945D01*
X153688162Y-81901421D01*
X153733542Y-81980211D01*
X153791497Y-82080919D01*
X153857771Y-82196150D01*
X153928109Y-82318510D01*
X153940573Y-82340198D01*
X154162823Y-82726961D01*
X155305823Y-82712213D01*
X155541414Y-82709038D01*
X155779948Y-82705576D01*
X156015074Y-82701932D01*
X156240442Y-82698217D01*
X156449702Y-82694539D01*
X156636501Y-82691006D01*
X156794491Y-82687726D01*
X156917320Y-82684809D01*
X156930276Y-82684465D01*
X157411728Y-82671466D01*
X157148851Y-82216382D01*
X156885975Y-81761299D01*
X155243438Y-81755877D01*
X153600901Y-81750456D01*
X152125230Y-81750456D01*
X152064767Y-81645434D01*
X151959490Y-81462178D01*
X151865340Y-81297873D01*
X151783979Y-81155426D01*
X151717068Y-81037739D01*
X151666268Y-80947718D01*
X151633241Y-80888265D01*
X151619649Y-80862284D01*
X151619444Y-80861716D01*
X151621477Y-80856686D01*
X151632236Y-80852235D01*
X151653988Y-80848338D01*
X151688997Y-80844970D01*
X151739531Y-80842106D01*
X151807854Y-80839721D01*
X151896234Y-80837790D01*
X152006935Y-80836287D01*
X152142225Y-80835189D01*
X152304368Y-80834469D01*
X152495631Y-80834103D01*
X152718281Y-80834065D01*
X152974582Y-80834332D01*
G36*
X140343817Y-86804479D02*
G01*
X140435407Y-86699336D01*
X140558379Y-86613544D01*
X140709702Y-86549418D01*
X140886342Y-86509275D01*
X141007834Y-86497416D01*
X141208944Y-86500332D01*
X141390775Y-86529648D01*
X141550075Y-86583303D01*
X141683593Y-86659234D01*
X141788077Y-86755382D01*
X141860275Y-86869686D01*
X141896936Y-87000083D01*
X141900973Y-87063549D01*
X141881168Y-87201729D01*
X141822885Y-87324829D01*
X141727824Y-87431104D01*
X141597684Y-87518815D01*
X141434165Y-87586218D01*
X141374355Y-87603400D01*
X141258749Y-87623311D01*
X141120510Y-87631824D01*
X140977795Y-87628871D01*
X140848759Y-87614384D01*
X140805779Y-87605524D01*
X140633596Y-87548437D01*
X140491613Y-87469389D01*
X140382220Y-87370782D01*
X140307805Y-87255019D01*
X140270755Y-87124501D01*
X140266906Y-87063549D01*
X140267217Y-87061387D01*
X140563319Y-87061387D01*
X140580580Y-87174119D01*
X140633198Y-87266976D01*
X140722722Y-87341868D01*
X140833307Y-87394449D01*
X140908062Y-87411116D01*
X141008391Y-87418781D01*
X141120621Y-87417994D01*
X141231080Y-87409303D01*
X141326096Y-87393258D01*
X141388740Y-87372154D01*
X141497404Y-87298345D01*
X141571274Y-87210456D01*
X141609293Y-87113968D01*
X141610404Y-87014363D01*
X141573550Y-86917122D01*
X141497675Y-86827728D01*
X141494250Y-86824767D01*
X141403455Y-86762244D01*
X141299527Y-86722541D01*
X141172701Y-86702811D01*
X141064318Y-86699360D01*
X140911984Y-86713924D01*
X140782345Y-86754460D01*
X140679280Y-86818165D01*
X140606665Y-86902238D01*
X140568378Y-87003876D01*
X140563319Y-87061387D01*
X140267217Y-87061387D01*
X140286639Y-86926655D01*
X140343817Y-86804479D01*
G37*
X140343817Y-86804479D02*
X140435407Y-86699336D01*
X140558379Y-86613544D01*
X140709702Y-86549418D01*
X140886342Y-86509275D01*
X141007834Y-86497416D01*
X141208944Y-86500332D01*
X141390775Y-86529648D01*
X141550075Y-86583303D01*
X141683593Y-86659234D01*
X141788077Y-86755382D01*
X141860275Y-86869686D01*
X141896936Y-87000083D01*
X141900973Y-87063549D01*
X141881168Y-87201729D01*
X141822885Y-87324829D01*
X141727824Y-87431104D01*
X141597684Y-87518815D01*
X141434165Y-87586218D01*
X141374355Y-87603400D01*
X141258749Y-87623311D01*
X141120510Y-87631824D01*
X140977795Y-87628871D01*
X140848759Y-87614384D01*
X140805779Y-87605524D01*
X140633596Y-87548437D01*
X140491613Y-87469389D01*
X140382220Y-87370782D01*
X140307805Y-87255019D01*
X140270755Y-87124501D01*
X140266906Y-87063549D01*
X140267217Y-87061387D01*
X140563319Y-87061387D01*
X140580580Y-87174119D01*
X140633198Y-87266976D01*
X140722722Y-87341868D01*
X140833307Y-87394449D01*
X140908062Y-87411116D01*
X141008391Y-87418781D01*
X141120621Y-87417994D01*
X141231080Y-87409303D01*
X141326096Y-87393258D01*
X141388740Y-87372154D01*
X141497404Y-87298345D01*
X141571274Y-87210456D01*
X141609293Y-87113968D01*
X141610404Y-87014363D01*
X141573550Y-86917122D01*
X141497675Y-86827728D01*
X141494250Y-86824767D01*
X141403455Y-86762244D01*
X141299527Y-86722541D01*
X141172701Y-86702811D01*
X141064318Y-86699360D01*
X140911984Y-86713924D01*
X140782345Y-86754460D01*
X140679280Y-86818165D01*
X140606665Y-86902238D01*
X140568378Y-87003876D01*
X140563319Y-87061387D01*
X140267217Y-87061387D01*
X140286639Y-86926655D01*
X140343817Y-86804479D01*
G36*
X119373797Y-113010253D02*
G01*
X119414153Y-112523480D01*
X119488190Y-112043565D01*
X119595731Y-111576772D01*
X119650819Y-111386229D01*
X119764378Y-111052393D01*
X119893065Y-110738053D01*
X120034492Y-110447672D01*
X120186272Y-110185711D01*
X120346015Y-109956635D01*
X120511333Y-109764904D01*
X120527155Y-109748880D01*
X120682806Y-109593230D01*
X120589197Y-109361514D01*
X120239391Y-108447272D01*
X119917813Y-107505988D01*
X119624258Y-106536842D01*
X119358523Y-105539016D01*
X119120402Y-104511687D01*
X118909692Y-103454038D01*
X118726189Y-102365248D01*
X118571695Y-101260430D01*
X118506780Y-100722367D01*
X118448614Y-100188655D01*
X118396582Y-99651906D01*
X118350069Y-99104732D01*
X118308461Y-98539748D01*
X118271142Y-97949565D01*
X118237498Y-97326798D01*
X118227830Y-97128299D01*
X118222998Y-97001450D01*
X118218620Y-96836248D01*
X118214698Y-96636480D01*
X118211229Y-96405933D01*
X118208216Y-96148393D01*
X118205657Y-95867648D01*
X118203552Y-95567483D01*
X118201901Y-95251686D01*
X118200705Y-94924043D01*
X118199963Y-94588342D01*
X118199674Y-94248368D01*
X118199840Y-93907909D01*
X118200459Y-93570751D01*
X118201532Y-93240681D01*
X118203058Y-92921486D01*
X118205038Y-92616952D01*
X118207472Y-92330867D01*
X118210359Y-92067016D01*
X118213699Y-91829187D01*
X118217492Y-91621167D01*
X118221738Y-91446742D01*
X118226437Y-91309698D01*
X118227970Y-91275716D01*
X118250325Y-90852809D01*
X118274472Y-90470256D01*
X118300690Y-90126103D01*
X118329258Y-89818399D01*
X118360456Y-89545191D01*
X118394564Y-89304525D01*
X118431861Y-89094449D01*
X118472625Y-88913011D01*
X118517138Y-88758257D01*
X118565677Y-88628235D01*
X118618524Y-88520992D01*
X118623351Y-88512645D01*
X118666253Y-88450268D01*
X118716205Y-88393233D01*
X118765025Y-88349076D01*
X118804527Y-88325334D01*
X118824873Y-88327065D01*
X118841193Y-88349446D01*
X118877080Y-88400758D01*
X118928319Y-88474908D01*
X118990696Y-88565805D01*
X119044739Y-88644948D01*
X119249720Y-88945765D01*
X119208015Y-89110615D01*
X119169204Y-89288357D01*
X119133552Y-89502617D01*
X119100993Y-89754152D01*
X119071463Y-90043716D01*
X119044899Y-90372066D01*
X119021237Y-90739956D01*
X119000412Y-91148143D01*
X118982360Y-91597382D01*
X118973077Y-91878966D01*
X118968797Y-92046849D01*
X118965029Y-92250624D01*
X118961773Y-92485642D01*
X118959028Y-92747256D01*
X118956794Y-93030818D01*
X118955070Y-93331681D01*
X118953857Y-93645198D01*
X118953154Y-93966719D01*
X118952961Y-94291599D01*
X118953277Y-94615190D01*
X118954103Y-94932843D01*
X118955437Y-95239912D01*
X118957281Y-95531748D01*
X118959633Y-95803705D01*
X118962494Y-96051135D01*
X118965862Y-96269389D01*
X118969738Y-96453822D01*
X118973344Y-96577966D01*
X119025204Y-97749615D01*
X119099148Y-98886176D01*
X119195382Y-99988806D01*
X119314114Y-101058660D01*
X119455555Y-102096893D01*
X119619910Y-103104663D01*
X119807389Y-104083124D01*
X120018199Y-105033434D01*
X120252550Y-105956747D01*
X120510648Y-106854221D01*
X120792702Y-107727010D01*
X121098921Y-108576271D01*
X121165177Y-108748799D01*
X121206936Y-108856236D01*
X121243029Y-108948798D01*
X121270821Y-109019747D01*
X121287674Y-109062348D01*
X121291516Y-109071647D01*
X121309681Y-109063821D01*
X121355990Y-109038418D01*
X121422453Y-108999915D01*
X121468245Y-108972648D01*
X121731037Y-108837634D01*
X121999504Y-108744068D01*
X122271379Y-108691815D01*
X122544395Y-108680743D01*
X122816282Y-108710717D01*
X123084774Y-108781603D01*
X123347603Y-108893268D01*
X123602500Y-109045579D01*
X123682511Y-109103248D01*
X123808186Y-109206333D01*
X123947079Y-109334705D01*
X124089223Y-109478229D01*
X124224652Y-109626771D01*
X124343400Y-109770197D01*
X124361420Y-109793617D01*
X124506321Y-109984331D01*
X124591988Y-109931170D01*
X124698368Y-109869539D01*
X124826729Y-109802200D01*
X124970789Y-109731798D01*
X125124265Y-109660980D01*
X125280873Y-109592390D01*
X125434332Y-109528674D01*
X125578359Y-109472479D01*
X125706670Y-109426450D01*
X125812983Y-109393233D01*
X125891016Y-109375473D01*
X125916934Y-109373216D01*
X125950808Y-109367250D01*
X125958240Y-109359326D01*
X125944025Y-109340136D01*
X125905054Y-109297196D01*
X125846840Y-109236352D01*
X125774893Y-109163452D01*
X125753734Y-109142367D01*
X125446508Y-108807728D01*
X125166319Y-108441185D01*
X124913636Y-108043794D01*
X124688930Y-107616609D01*
X124492669Y-107160685D01*
X124325322Y-106677077D01*
X124187359Y-106166839D01*
X124079249Y-105631026D01*
X124022904Y-105251654D01*
X123981866Y-104857259D01*
X123960132Y-104512174D01*
X124496622Y-104512174D01*
X124503352Y-104613054D01*
X124515769Y-104754803D01*
X124519983Y-104801216D01*
X124584680Y-105343886D01*
X124677813Y-105862626D01*
X124798847Y-106355751D01*
X124947248Y-106821577D01*
X125122481Y-107258420D01*
X125324012Y-107664595D01*
X125543651Y-108026994D01*
X125795927Y-108374102D01*
X126065671Y-108685046D01*
X126356444Y-108963645D01*
X126600354Y-109161123D01*
X126690702Y-109227347D01*
X126760081Y-109272529D01*
X126820168Y-109302579D01*
X126882638Y-109323409D01*
X126953096Y-109339683D01*
X127118266Y-109387933D01*
X127290843Y-109462937D01*
X127454277Y-109556545D01*
X127575254Y-109646016D01*
X127635269Y-109694808D01*
X127687527Y-109729450D01*
X127744228Y-109755503D01*
X127817566Y-109778525D01*
X127919739Y-109804075D01*
X127924504Y-109805206D01*
X128226355Y-109866808D01*
X128530144Y-109907960D01*
X128843562Y-109929006D01*
X129174298Y-109930294D01*
X129530042Y-109912169D01*
X129789406Y-109889008D01*
X130076007Y-109852964D01*
X130387979Y-109801982D01*
X130712177Y-109738685D01*
X131035455Y-109665699D01*
X131344667Y-109585649D01*
X131429823Y-109561489D01*
X131549686Y-109526059D01*
X131676530Y-109487393D01*
X131804107Y-109447529D01*
X131926168Y-109408502D01*
X132036466Y-109372352D01*
X132128754Y-109341113D01*
X132196784Y-109316824D01*
X132234307Y-109301520D01*
X132239569Y-109297489D01*
X132216259Y-109292970D01*
X132158094Y-109286681D01*
X132072484Y-109279286D01*
X131966836Y-109271449D01*
X131897763Y-109266865D01*
X131353180Y-109214058D01*
X130809844Y-109124589D01*
X130265265Y-108997756D01*
X129716953Y-108832855D01*
X129162419Y-108629183D01*
X128599171Y-108386038D01*
X128339490Y-108262225D01*
X127917171Y-108044699D01*
X127530068Y-107822713D01*
X127171065Y-107591273D01*
X126833047Y-107345385D01*
X126508898Y-107080056D01*
X126191505Y-106790293D01*
X126062618Y-106664208D01*
X125747433Y-106333084D01*
X125465966Y-105999809D01*
X125211817Y-105655429D01*
X124978585Y-105290992D01*
X124759870Y-104897543D01*
X124664099Y-104707867D01*
X124603546Y-104585012D01*
X124558155Y-104496889D01*
X124526346Y-104444521D01*
X124506540Y-104428931D01*
X124497159Y-104451141D01*
X124496622Y-104512174D01*
X123960132Y-104512174D01*
X123955297Y-104435406D01*
X123943501Y-103998530D01*
X123946782Y-103559065D01*
X123965444Y-103129447D01*
X123969501Y-103067888D01*
X123978616Y-102929462D01*
X123983989Y-102822629D01*
X123985301Y-102736791D01*
X123982231Y-102661345D01*
X123974457Y-102585693D01*
X123961660Y-102499232D01*
X123950212Y-102430549D01*
X123868658Y-101837937D01*
X123821341Y-101222502D01*
X123808101Y-100586097D01*
X123819715Y-100217854D01*
X128584569Y-100217854D01*
X128595154Y-100707458D01*
X128635814Y-101169710D01*
X128659586Y-101340466D01*
X128742411Y-101764787D01*
X128855435Y-102161355D01*
X128998355Y-102529505D01*
X129170869Y-102868571D01*
X129372676Y-103177889D01*
X129603473Y-103456792D01*
X129635962Y-103491169D01*
X129909812Y-103747403D01*
X130208267Y-103970727D01*
X130532533Y-104161816D01*
X130883818Y-104321343D01*
X131263328Y-104449983D01*
X131431818Y-104495061D01*
X131794613Y-104571361D01*
X132141798Y-104615365D01*
X132484051Y-104627957D01*
X132826823Y-104610503D01*
X133260115Y-104549701D01*
X133694187Y-104446769D01*
X134128741Y-104301900D01*
X134563477Y-104115283D01*
X134998099Y-103887111D01*
X135432305Y-103617572D01*
X135865799Y-103306859D01*
X136298281Y-102955162D01*
X136729453Y-102562672D01*
X137159015Y-102129580D01*
X137586670Y-101656076D01*
X137747045Y-101467466D01*
X137864786Y-101324748D01*
X137985400Y-101174868D01*
X138106152Y-101021546D01*
X138224307Y-100868503D01*
X138337133Y-100719460D01*
X138441895Y-100578139D01*
X138535859Y-100448260D01*
X138616291Y-100333544D01*
X138680457Y-100237713D01*
X138725624Y-100164487D01*
X138749056Y-100117588D01*
X138750512Y-100101701D01*
X138729526Y-100091538D01*
X138671764Y-100065401D01*
X138579279Y-100024185D01*
X138454121Y-99968784D01*
X138298344Y-99900093D01*
X138113999Y-99819005D01*
X137903139Y-99726415D01*
X137667814Y-99623218D01*
X137410078Y-99510307D01*
X137131981Y-99388578D01*
X136835577Y-99258924D01*
X136522916Y-99122241D01*
X136196052Y-98979421D01*
X135857035Y-98831360D01*
X135507918Y-98678952D01*
X135150753Y-98523092D01*
X134787591Y-98364673D01*
X134420486Y-98204590D01*
X134051487Y-98043738D01*
X133682649Y-97883010D01*
X133316022Y-97723302D01*
X132953659Y-97565507D01*
X132597611Y-97410519D01*
X132249930Y-97259234D01*
X131912669Y-97112546D01*
X131587879Y-96971348D01*
X131277613Y-96836536D01*
X130983922Y-96709003D01*
X130708858Y-96589645D01*
X130454473Y-96479354D01*
X130222819Y-96379027D01*
X130015948Y-96289556D01*
X129835913Y-96211837D01*
X129684764Y-96146763D01*
X129564555Y-96095230D01*
X129477336Y-96058131D01*
X129425160Y-96036361D01*
X129409981Y-96030577D01*
X129393593Y-96041962D01*
X129371802Y-96080361D01*
X129343813Y-96148053D01*
X129308830Y-96247317D01*
X129266056Y-96380432D01*
X129214697Y-96549677D01*
X129153956Y-96757332D01*
X129143136Y-96794894D01*
X128976830Y-97415215D01*
X128839583Y-98017725D01*
X128731565Y-98600834D01*
X128652944Y-99162952D01*
X128603889Y-99702489D01*
X128584569Y-100217854D01*
X123819715Y-100217854D01*
X123828777Y-99930575D01*
X123883207Y-99257787D01*
X123971231Y-98569588D01*
X124092688Y-97867828D01*
X124247417Y-97154362D01*
X124435257Y-96431041D01*
X124487082Y-96249882D01*
X124576503Y-95954512D01*
X124677305Y-95641675D01*
X124784934Y-95324646D01*
X124894832Y-95016702D01*
X125002444Y-94731118D01*
X125047331Y-94617371D01*
X125092852Y-94501293D01*
X125131042Y-94398941D01*
X125159701Y-94316640D01*
X125176626Y-94260716D01*
X125179617Y-94237495D01*
X125179544Y-94237428D01*
X125157456Y-94226519D01*
X125100678Y-94200667D01*
X125013385Y-94161713D01*
X124899751Y-94111499D01*
X124763949Y-94051867D01*
X124610154Y-93984658D01*
X124442539Y-93911715D01*
X124370740Y-93880555D01*
X124199012Y-93805989D01*
X124039670Y-93736610D01*
X123896838Y-93674228D01*
X123774640Y-93620652D01*
X123677200Y-93577691D01*
X123608642Y-93547157D01*
X123573090Y-93530860D01*
X123568996Y-93528698D01*
X123576684Y-93508728D01*
X123603533Y-93457712D01*
X123646542Y-93380673D01*
X123702714Y-93282637D01*
X123769049Y-93168627D01*
X123842548Y-93043669D01*
X123920214Y-92912786D01*
X123999046Y-92781002D01*
X124076047Y-92653342D01*
X124148218Y-92534831D01*
X124212559Y-92430493D01*
X124266072Y-92345352D01*
X124305759Y-92284433D01*
X124328619Y-92252759D01*
X124332552Y-92249382D01*
X124355564Y-92258111D01*
X124412803Y-92283061D01*
X124500215Y-92322376D01*
X124613746Y-92374200D01*
X124749343Y-92436678D01*
X124902953Y-92507952D01*
X125070521Y-92586167D01*
X125171712Y-92633607D01*
X125359017Y-92721488D01*
X125546090Y-92809133D01*
X125726871Y-92893712D01*
X125895299Y-92972393D01*
X126045313Y-93042347D01*
X126170853Y-93100743D01*
X126265858Y-93144750D01*
X126286323Y-93154182D01*
X126327314Y-93172771D01*
X126405555Y-93207966D01*
X126519630Y-93259138D01*
X126668125Y-93325653D01*
X126849624Y-93406879D01*
X127062713Y-93502185D01*
X127305976Y-93610940D01*
X127578000Y-93732511D01*
X127877368Y-93866266D01*
X128202667Y-94011573D01*
X128552480Y-94167801D01*
X128925394Y-94334318D01*
X129319992Y-94510492D01*
X129734861Y-94695692D01*
X130168586Y-94889284D01*
X130619751Y-95090638D01*
X131086941Y-95299122D01*
X131568742Y-95514103D01*
X132063739Y-95734951D01*
X132570516Y-95961032D01*
X133087660Y-96191716D01*
X133613754Y-96426371D01*
X133789906Y-96504935D01*
X134316989Y-96740030D01*
X134834829Y-96971037D01*
X135342048Y-97197341D01*
X135837271Y-97418327D01*
X136319123Y-97633380D01*
X136786228Y-97841886D01*
X137237209Y-98043230D01*
X137670692Y-98236797D01*
X138085299Y-98421972D01*
X138479657Y-98598140D01*
X138852388Y-98764686D01*
X139202117Y-98920996D01*
X139527468Y-99066454D01*
X139827066Y-99200446D01*
X140099534Y-99322358D01*
X140343498Y-99431573D01*
X140557580Y-99527477D01*
X140740405Y-99609456D01*
X140890598Y-99676894D01*
X141006782Y-99729177D01*
X141087583Y-99765690D01*
X141131623Y-99785818D01*
X141138487Y-99789069D01*
X141279817Y-99858799D01*
X141176998Y-100197466D01*
X141051779Y-100593377D01*
X140913379Y-101001518D01*
X140768625Y-101402238D01*
X140658941Y-101688772D01*
X140364159Y-102401236D01*
X140052705Y-103083100D01*
X139725239Y-103733520D01*
X139382425Y-104351654D01*
X139024922Y-104936657D01*
X138653394Y-105487686D01*
X138268501Y-106003897D01*
X137870906Y-106484448D01*
X137461271Y-106928495D01*
X137040257Y-107335193D01*
X136608525Y-107703701D01*
X136166739Y-108033173D01*
X135715558Y-108322767D01*
X135260990Y-108569009D01*
X134983744Y-108704865D01*
X134710858Y-108837027D01*
X134447423Y-108963099D01*
X134198529Y-109080685D01*
X133969266Y-109187389D01*
X133764725Y-109280815D01*
X133589994Y-109358568D01*
X133509930Y-109393151D01*
X132870074Y-109651901D01*
X132247760Y-109875203D01*
X131639170Y-110064161D01*
X131040489Y-110219878D01*
X130447898Y-110343456D01*
X129937573Y-110425237D01*
X129825101Y-110437206D01*
X129681785Y-110447007D01*
X129515382Y-110454586D01*
X129333651Y-110459891D01*
X129144349Y-110462870D01*
X128955235Y-110463468D01*
X128774066Y-110461635D01*
X128608601Y-110457316D01*
X128466598Y-110450459D01*
X128355814Y-110441011D01*
X128320330Y-110436238D01*
X128241531Y-110424789D01*
X128180738Y-110417760D01*
X128148391Y-110416301D01*
X128145874Y-110417026D01*
X128150172Y-110438383D01*
X128167571Y-110489914D01*
X128194935Y-110562696D01*
X128213753Y-110610179D01*
X128281353Y-110794660D01*
X128347940Y-111007549D01*
X128409605Y-111235021D01*
X128462437Y-111463251D01*
X128480613Y-111553713D01*
X128529661Y-111810349D01*
X128656825Y-111792990D01*
X128817970Y-111778941D01*
X128997018Y-111776498D01*
X129178361Y-111785024D01*
X129346391Y-111803880D01*
X129460052Y-111825805D01*
X129716352Y-111909062D01*
X129969704Y-112031535D01*
X130216261Y-112190119D01*
X130452176Y-112381707D01*
X130673604Y-112603192D01*
X130876696Y-112851467D01*
X131049038Y-113109132D01*
X131216009Y-113426068D01*
X131349415Y-113764709D01*
X131448803Y-114120383D01*
X131513719Y-114488416D01*
X131543709Y-114864136D01*
X131538318Y-115242869D01*
X131497093Y-115619943D01*
X131419580Y-115990683D01*
X131351333Y-116220632D01*
X131276349Y-116420740D01*
X131186640Y-116610973D01*
X131078338Y-116797107D01*
X130947576Y-116984917D01*
X130790487Y-117180179D01*
X130603203Y-117388667D01*
X130489850Y-117507043D01*
X130273088Y-117722460D01*
X130065925Y-117913014D01*
X129855543Y-118089752D01*
X129629120Y-118263719D01*
X129517717Y-118344661D01*
X129429202Y-118408733D01*
X129353928Y-118464592D01*
X129298213Y-118507445D01*
X129268374Y-118532498D01*
X129265136Y-118536348D01*
X129280630Y-118552522D01*
X129329485Y-118585643D01*
X129407406Y-118633318D01*
X129510097Y-118693154D01*
X129633264Y-118762757D01*
X129772609Y-118839734D01*
X129923839Y-118921691D01*
X130082657Y-119006235D01*
X130244768Y-119090971D01*
X130405877Y-119173507D01*
X130434990Y-119188223D01*
X131255094Y-119581753D01*
X132091655Y-119943070D01*
X132948210Y-120273474D01*
X133828296Y-120574267D01*
X134735448Y-120846750D01*
X135483240Y-121045278D01*
X136423986Y-121265478D01*
X137386388Y-121459616D01*
X138371858Y-121627834D01*
X139381810Y-121770272D01*
X140417658Y-121887073D01*
X141480816Y-121978375D01*
X142572696Y-122044322D01*
X143694714Y-122085054D01*
X144848282Y-122100711D01*
X145976785Y-122092454D01*
X146363348Y-122084685D01*
X146715753Y-122074948D01*
X147042149Y-122062804D01*
X147350684Y-122047815D01*
X147649507Y-122029540D01*
X147946764Y-122007542D01*
X148250606Y-121981381D01*
X148521906Y-121955367D01*
X149566932Y-121831252D01*
X150594327Y-121669367D01*
X151603716Y-121469854D01*
X152594723Y-121232857D01*
X153566971Y-120958516D01*
X154520085Y-120646973D01*
X155453690Y-120298371D01*
X156367410Y-119912852D01*
X157260868Y-119490558D01*
X158133689Y-119031631D01*
X158985497Y-118536212D01*
X159815916Y-118004445D01*
X160624572Y-117436470D01*
X160777406Y-117323216D01*
X161433824Y-116811360D01*
X162083164Y-116263102D01*
X162719195Y-115684365D01*
X163335684Y-115081072D01*
X163926397Y-114459148D01*
X164485103Y-113824514D01*
X164588000Y-113701933D01*
X165189971Y-112946377D01*
X165761450Y-112162417D01*
X166301297Y-111352155D01*
X166808372Y-110517694D01*
X167281535Y-109661136D01*
X167719643Y-108784584D01*
X168121558Y-107890140D01*
X168486138Y-106979906D01*
X168812243Y-106055985D01*
X168922829Y-105711382D01*
X169181682Y-104829566D01*
X169405850Y-103951174D01*
X169596298Y-103070644D01*
X169753992Y-102182411D01*
X169879896Y-101280913D01*
X169974977Y-100360585D01*
X170040199Y-99415864D01*
X170050222Y-99213216D01*
X170056390Y-99042483D01*
X170060889Y-98839097D01*
X170063779Y-98609960D01*
X170065116Y-98361974D01*
X170064956Y-98102043D01*
X170063359Y-97837068D01*
X170060380Y-97573953D01*
X170056077Y-97319599D01*
X170050508Y-97080910D01*
X170043730Y-96864788D01*
X170035799Y-96678136D01*
X170028086Y-96546216D01*
X169982274Y-95950261D01*
X169929245Y-95385887D01*
X169867646Y-94842752D01*
X169796127Y-94310510D01*
X169713336Y-93778818D01*
X169617921Y-93237333D01*
X169548211Y-92873799D01*
X169520868Y-92735255D01*
X169496253Y-92610445D01*
X169475557Y-92505412D01*
X169459970Y-92426193D01*
X169450681Y-92378831D01*
X169448625Y-92368208D01*
X169467132Y-92359418D01*
X169519068Y-92343573D01*
X169596485Y-92322574D01*
X169691437Y-92298320D01*
X169795976Y-92272712D01*
X169902157Y-92247650D01*
X170002031Y-92225032D01*
X170087652Y-92206760D01*
X170151074Y-92194734D01*
X170184348Y-92190852D01*
X170187303Y-92191605D01*
X170193704Y-92214829D01*
X170206630Y-92273857D01*
X170224962Y-92362859D01*
X170247578Y-92476001D01*
X170273360Y-92607452D01*
X170301185Y-92751379D01*
X170329935Y-92901951D01*
X170358488Y-93053334D01*
X170385725Y-93199698D01*
X170410524Y-93335210D01*
X170431767Y-93454038D01*
X170448331Y-93550349D01*
X170448462Y-93551132D01*
X170520790Y-94004373D01*
X170584174Y-94443971D01*
X170639779Y-94880094D01*
X170688773Y-95322906D01*
X170732325Y-95782577D01*
X170771600Y-96269272D01*
X170789938Y-96525049D01*
X170798581Y-96677471D01*
X170806196Y-96865429D01*
X170812724Y-97082135D01*
X170818110Y-97320804D01*
X170822294Y-97574648D01*
X170825220Y-97836880D01*
X170826829Y-98100715D01*
X170827064Y-98359365D01*
X170825866Y-98606043D01*
X170823179Y-98833964D01*
X170818945Y-99036339D01*
X170813105Y-99206383D01*
X170812802Y-99213216D01*
X170744875Y-100279077D01*
X170637644Y-101330482D01*
X170491203Y-102367095D01*
X170305648Y-103388579D01*
X170081072Y-104394600D01*
X169817571Y-105384820D01*
X169515240Y-106358906D01*
X169174174Y-107316520D01*
X168794466Y-108257327D01*
X168376213Y-109180991D01*
X167919509Y-110087176D01*
X167555282Y-110749049D01*
X167037665Y-111614314D01*
X166487866Y-112452158D01*
X165906057Y-113262377D01*
X165292410Y-114044770D01*
X164647097Y-114799134D01*
X163970290Y-115525268D01*
X163262162Y-116222969D01*
X162522884Y-116892036D01*
X161835740Y-117465772D01*
X161056732Y-118064764D01*
X160251736Y-118630731D01*
X159421838Y-119163192D01*
X158568124Y-119661666D01*
X157691678Y-120125673D01*
X156793586Y-120554731D01*
X155874934Y-120948361D01*
X154936806Y-121306082D01*
X153980289Y-121627413D01*
X153006467Y-121911874D01*
X152016427Y-122158983D01*
X151011253Y-122368261D01*
X150596240Y-122442807D01*
X150078118Y-122527103D01*
X149564246Y-122601327D01*
X149050294Y-122665749D01*
X148531934Y-122720637D01*
X148004838Y-122766261D01*
X147464679Y-122802889D01*
X146907128Y-122830791D01*
X146327857Y-122850235D01*
X145722538Y-122861492D01*
X145086844Y-122864830D01*
X144416446Y-122860519D01*
X143981656Y-122854125D01*
X142800738Y-122818741D01*
X141644099Y-122754661D01*
X140512587Y-122662021D01*
X139407052Y-122540956D01*
X138328343Y-122391600D01*
X137277310Y-122214091D01*
X136254801Y-122008562D01*
X135261666Y-121775150D01*
X134298754Y-121513989D01*
X133366915Y-121225216D01*
X133017323Y-121106947D01*
X132286063Y-120840283D01*
X131565030Y-120550983D01*
X130860088Y-120241773D01*
X130177100Y-119915377D01*
X129521930Y-119574521D01*
X128900441Y-119221929D01*
X128696130Y-119098807D01*
X128473321Y-118962394D01*
X128268822Y-119049675D01*
X127832311Y-119214722D01*
X127368519Y-119349145D01*
X126880212Y-119452144D01*
X126876343Y-119452817D01*
X126734182Y-119471963D01*
X126559108Y-119486783D01*
X126360325Y-119497222D01*
X126147034Y-119503224D01*
X125928442Y-119504731D01*
X125713750Y-119501689D01*
X125512164Y-119494042D01*
X125332886Y-119481733D01*
X125185121Y-119464707D01*
X125175073Y-119463160D01*
X124656753Y-119360692D01*
X124140572Y-119217231D01*
X123630294Y-119034086D01*
X123129683Y-118812567D01*
X122772985Y-118627646D01*
X122599079Y-118527649D01*
X122406011Y-118409737D01*
X122203430Y-118280307D01*
X122000984Y-118145755D01*
X121808321Y-118012477D01*
X121635090Y-117886871D01*
X121507381Y-117788561D01*
X121132547Y-117465174D01*
X120791174Y-117121610D01*
X120484479Y-116759668D01*
X120213678Y-116381146D01*
X119979988Y-115987841D01*
X119784628Y-115581553D01*
X119628813Y-115164080D01*
X119552668Y-114900672D01*
X119456556Y-114449094D01*
X119394823Y-113979323D01*
X119370523Y-113554105D01*
X120130259Y-113554105D01*
X120164210Y-114023981D01*
X120192323Y-114240827D01*
X120275306Y-114658086D01*
X120398473Y-115062146D01*
X120561585Y-115452379D01*
X120764402Y-115828159D01*
X120850043Y-115964301D01*
X120947885Y-116109893D01*
X121041106Y-116238919D01*
X121136876Y-116359974D01*
X121242362Y-116481653D01*
X121364736Y-116612553D01*
X121511165Y-116761269D01*
X121532376Y-116782393D01*
X121887983Y-117108491D01*
X122279990Y-117415816D01*
X122709098Y-117704866D01*
X123176009Y-117976140D01*
X123322896Y-118053787D01*
X123734201Y-118251803D01*
X124136869Y-118414525D01*
X124540384Y-118544919D01*
X124954226Y-118645954D01*
X125387880Y-118720593D01*
X125503156Y-118735808D01*
X125587264Y-118742447D01*
X125704121Y-118746408D01*
X125844235Y-118747847D01*
X125998118Y-118746921D01*
X126156279Y-118743788D01*
X126309227Y-118738605D01*
X126447474Y-118731529D01*
X126561529Y-118722716D01*
X126608030Y-118717512D01*
X127061820Y-118637111D01*
X127509783Y-118515080D01*
X127950934Y-118351849D01*
X128384282Y-118147843D01*
X128808839Y-117903490D01*
X129223618Y-117619217D01*
X129323740Y-117543450D01*
X129413216Y-117469978D01*
X129522365Y-117373299D01*
X129645007Y-117259546D01*
X129774964Y-117134852D01*
X129906057Y-117005351D01*
X130032106Y-116877174D01*
X130146933Y-116756456D01*
X130244359Y-116649330D01*
X130318204Y-116561927D01*
X130336589Y-116538132D01*
X130478866Y-116319759D01*
X130592291Y-116082621D01*
X130678015Y-115822976D01*
X130737193Y-115537084D01*
X130770975Y-115221203D01*
X130776762Y-115109382D01*
X130772322Y-114753074D01*
X130730966Y-114411682D01*
X130653468Y-114087273D01*
X130540606Y-113781911D01*
X130393153Y-113497663D01*
X130211886Y-113236594D01*
X129997581Y-113000771D01*
X129978053Y-112982132D01*
X129772397Y-112808924D01*
X129566442Y-112677628D01*
X129359193Y-112587828D01*
X129149652Y-112539109D01*
X128936822Y-112531055D01*
X128902220Y-112533528D01*
X128780252Y-112549093D01*
X128666927Y-112575848D01*
X128553683Y-112617336D01*
X128431957Y-112677097D01*
X128293187Y-112758673D01*
X128177034Y-112833485D01*
X128078012Y-112898553D01*
X127992199Y-112954235D01*
X127925390Y-112996830D01*
X127883377Y-113022634D01*
X127871511Y-113028698D01*
X127869033Y-113007282D01*
X127864420Y-112950373D01*
X127858167Y-112864730D01*
X127850769Y-112757113D01*
X127843310Y-112643466D01*
X127807975Y-112234267D01*
X127756655Y-111853823D01*
X127689842Y-111503976D01*
X127608030Y-111186570D01*
X127511715Y-110903448D01*
X127401390Y-110656453D01*
X127277549Y-110447427D01*
X127240832Y-110396372D01*
X127139849Y-110275720D01*
X127039356Y-110188704D01*
X126927797Y-110128376D01*
X126793618Y-110087791D01*
X126698250Y-110070150D01*
X126511779Y-110058569D01*
X126301375Y-110076316D01*
X126071856Y-110121648D01*
X125828042Y-110192819D01*
X125574751Y-110288085D01*
X125316800Y-110405703D01*
X125059009Y-110543928D01*
X124806196Y-110701016D01*
X124645906Y-110813081D01*
X124556079Y-110878784D01*
X124469202Y-110942155D01*
X124396453Y-110995047D01*
X124356376Y-111024029D01*
X124267928Y-111087670D01*
X124136903Y-110849568D01*
X123953734Y-110540486D01*
X123764987Y-110268186D01*
X123571542Y-110033313D01*
X123374275Y-109836509D01*
X123174066Y-109678418D01*
X122971792Y-109559684D01*
X122768332Y-109480950D01*
X122564563Y-109442861D01*
X122361364Y-109446058D01*
X122248923Y-109465941D01*
X122103445Y-109509840D01*
X121955972Y-109574717D01*
X121801904Y-109663457D01*
X121636643Y-109778943D01*
X121455592Y-109924060D01*
X121296163Y-110063541D01*
X121131274Y-110219772D01*
X120995208Y-110367408D01*
X120879408Y-110517722D01*
X120775316Y-110681988D01*
X120674375Y-110871480D01*
X120658667Y-110903412D01*
X120486592Y-111302588D01*
X120347279Y-111724817D01*
X120241360Y-112165591D01*
X120169463Y-112620402D01*
X120132220Y-113084742D01*
X120130259Y-113554105D01*
X119370523Y-113554105D01*
X119367295Y-113497621D01*
X119373797Y-113010253D01*
G37*
X119373797Y-113010253D02*
X119414153Y-112523480D01*
X119488190Y-112043565D01*
X119595731Y-111576772D01*
X119650819Y-111386229D01*
X119764378Y-111052393D01*
X119893065Y-110738053D01*
X120034492Y-110447672D01*
X120186272Y-110185711D01*
X120346015Y-109956635D01*
X120511333Y-109764904D01*
X120527155Y-109748880D01*
X120682806Y-109593230D01*
X120589197Y-109361514D01*
X120239391Y-108447272D01*
X119917813Y-107505988D01*
X119624258Y-106536842D01*
X119358523Y-105539016D01*
X119120402Y-104511687D01*
X118909692Y-103454038D01*
X118726189Y-102365248D01*
X118571695Y-101260430D01*
X118506780Y-100722367D01*
X118448614Y-100188655D01*
X118396582Y-99651906D01*
X118350069Y-99104732D01*
X118308461Y-98539748D01*
X118271142Y-97949565D01*
X118237498Y-97326798D01*
X118227830Y-97128299D01*
X118222998Y-97001450D01*
X118218620Y-96836248D01*
X118214698Y-96636480D01*
X118211229Y-96405933D01*
X118208216Y-96148393D01*
X118205657Y-95867648D01*
X118203552Y-95567483D01*
X118201901Y-95251686D01*
X118200705Y-94924043D01*
X118199963Y-94588342D01*
X118199674Y-94248368D01*
X118199840Y-93907909D01*
X118200459Y-93570751D01*
X118201532Y-93240681D01*
X118203058Y-92921486D01*
X118205038Y-92616952D01*
X118207472Y-92330867D01*
X118210359Y-92067016D01*
X118213699Y-91829187D01*
X118217492Y-91621167D01*
X118221738Y-91446742D01*
X118226437Y-91309698D01*
X118227970Y-91275716D01*
X118250325Y-90852809D01*
X118274472Y-90470256D01*
X118300690Y-90126103D01*
X118329258Y-89818399D01*
X118360456Y-89545191D01*
X118394564Y-89304525D01*
X118431861Y-89094449D01*
X118472625Y-88913011D01*
X118517138Y-88758257D01*
X118565677Y-88628235D01*
X118618524Y-88520992D01*
X118623351Y-88512645D01*
X118666253Y-88450268D01*
X118716205Y-88393233D01*
X118765025Y-88349076D01*
X118804527Y-88325334D01*
X118824873Y-88327065D01*
X118841193Y-88349446D01*
X118877080Y-88400758D01*
X118928319Y-88474908D01*
X118990696Y-88565805D01*
X119044739Y-88644948D01*
X119249720Y-88945765D01*
X119208015Y-89110615D01*
X119169204Y-89288357D01*
X119133552Y-89502617D01*
X119100993Y-89754152D01*
X119071463Y-90043716D01*
X119044899Y-90372066D01*
X119021237Y-90739956D01*
X119000412Y-91148143D01*
X118982360Y-91597382D01*
X118973077Y-91878966D01*
X118968797Y-92046849D01*
X118965029Y-92250624D01*
X118961773Y-92485642D01*
X118959028Y-92747256D01*
X118956794Y-93030818D01*
X118955070Y-93331681D01*
X118953857Y-93645198D01*
X118953154Y-93966719D01*
X118952961Y-94291599D01*
X118953277Y-94615190D01*
X118954103Y-94932843D01*
X118955437Y-95239912D01*
X118957281Y-95531748D01*
X118959633Y-95803705D01*
X118962494Y-96051135D01*
X118965862Y-96269389D01*
X118969738Y-96453822D01*
X118973344Y-96577966D01*
X119025204Y-97749615D01*
X119099148Y-98886176D01*
X119195382Y-99988806D01*
X119314114Y-101058660D01*
X119455555Y-102096893D01*
X119619910Y-103104663D01*
X119807389Y-104083124D01*
X120018199Y-105033434D01*
X120252550Y-105956747D01*
X120510648Y-106854221D01*
X120792702Y-107727010D01*
X121098921Y-108576271D01*
X121165177Y-108748799D01*
X121206936Y-108856236D01*
X121243029Y-108948798D01*
X121270821Y-109019747D01*
X121287674Y-109062348D01*
X121291516Y-109071647D01*
X121309681Y-109063821D01*
X121355990Y-109038418D01*
X121422453Y-108999915D01*
X121468245Y-108972648D01*
X121731037Y-108837634D01*
X121999504Y-108744068D01*
X122271379Y-108691815D01*
X122544395Y-108680743D01*
X122816282Y-108710717D01*
X123084774Y-108781603D01*
X123347603Y-108893268D01*
X123602500Y-109045579D01*
X123682511Y-109103248D01*
X123808186Y-109206333D01*
X123947079Y-109334705D01*
X124089223Y-109478229D01*
X124224652Y-109626771D01*
X124343400Y-109770197D01*
X124361420Y-109793617D01*
X124506321Y-109984331D01*
X124591988Y-109931170D01*
X124698368Y-109869539D01*
X124826729Y-109802200D01*
X124970789Y-109731798D01*
X125124265Y-109660980D01*
X125280873Y-109592390D01*
X125434332Y-109528674D01*
X125578359Y-109472479D01*
X125706670Y-109426450D01*
X125812983Y-109393233D01*
X125891016Y-109375473D01*
X125916934Y-109373216D01*
X125950808Y-109367250D01*
X125958240Y-109359326D01*
X125944025Y-109340136D01*
X125905054Y-109297196D01*
X125846840Y-109236352D01*
X125774893Y-109163452D01*
X125753734Y-109142367D01*
X125446508Y-108807728D01*
X125166319Y-108441185D01*
X124913636Y-108043794D01*
X124688930Y-107616609D01*
X124492669Y-107160685D01*
X124325322Y-106677077D01*
X124187359Y-106166839D01*
X124079249Y-105631026D01*
X124022904Y-105251654D01*
X123981866Y-104857259D01*
X123960132Y-104512174D01*
X124496622Y-104512174D01*
X124503352Y-104613054D01*
X124515769Y-104754803D01*
X124519983Y-104801216D01*
X124584680Y-105343886D01*
X124677813Y-105862626D01*
X124798847Y-106355751D01*
X124947248Y-106821577D01*
X125122481Y-107258420D01*
X125324012Y-107664595D01*
X125543651Y-108026994D01*
X125795927Y-108374102D01*
X126065671Y-108685046D01*
X126356444Y-108963645D01*
X126600354Y-109161123D01*
X126690702Y-109227347D01*
X126760081Y-109272529D01*
X126820168Y-109302579D01*
X126882638Y-109323409D01*
X126953096Y-109339683D01*
X127118266Y-109387933D01*
X127290843Y-109462937D01*
X127454277Y-109556545D01*
X127575254Y-109646016D01*
X127635269Y-109694808D01*
X127687527Y-109729450D01*
X127744228Y-109755503D01*
X127817566Y-109778525D01*
X127919739Y-109804075D01*
X127924504Y-109805206D01*
X128226355Y-109866808D01*
X128530144Y-109907960D01*
X128843562Y-109929006D01*
X129174298Y-109930294D01*
X129530042Y-109912169D01*
X129789406Y-109889008D01*
X130076007Y-109852964D01*
X130387979Y-109801982D01*
X130712177Y-109738685D01*
X131035455Y-109665699D01*
X131344667Y-109585649D01*
X131429823Y-109561489D01*
X131549686Y-109526059D01*
X131676530Y-109487393D01*
X131804107Y-109447529D01*
X131926168Y-109408502D01*
X132036466Y-109372352D01*
X132128754Y-109341113D01*
X132196784Y-109316824D01*
X132234307Y-109301520D01*
X132239569Y-109297489D01*
X132216259Y-109292970D01*
X132158094Y-109286681D01*
X132072484Y-109279286D01*
X131966836Y-109271449D01*
X131897763Y-109266865D01*
X131353180Y-109214058D01*
X130809844Y-109124589D01*
X130265265Y-108997756D01*
X129716953Y-108832855D01*
X129162419Y-108629183D01*
X128599171Y-108386038D01*
X128339490Y-108262225D01*
X127917171Y-108044699D01*
X127530068Y-107822713D01*
X127171065Y-107591273D01*
X126833047Y-107345385D01*
X126508898Y-107080056D01*
X126191505Y-106790293D01*
X126062618Y-106664208D01*
X125747433Y-106333084D01*
X125465966Y-105999809D01*
X125211817Y-105655429D01*
X124978585Y-105290992D01*
X124759870Y-104897543D01*
X124664099Y-104707867D01*
X124603546Y-104585012D01*
X124558155Y-104496889D01*
X124526346Y-104444521D01*
X124506540Y-104428931D01*
X124497159Y-104451141D01*
X124496622Y-104512174D01*
X123960132Y-104512174D01*
X123955297Y-104435406D01*
X123943501Y-103998530D01*
X123946782Y-103559065D01*
X123965444Y-103129447D01*
X123969501Y-103067888D01*
X123978616Y-102929462D01*
X123983989Y-102822629D01*
X123985301Y-102736791D01*
X123982231Y-102661345D01*
X123974457Y-102585693D01*
X123961660Y-102499232D01*
X123950212Y-102430549D01*
X123868658Y-101837937D01*
X123821341Y-101222502D01*
X123808101Y-100586097D01*
X123819715Y-100217854D01*
X128584569Y-100217854D01*
X128595154Y-100707458D01*
X128635814Y-101169710D01*
X128659586Y-101340466D01*
X128742411Y-101764787D01*
X128855435Y-102161355D01*
X128998355Y-102529505D01*
X129170869Y-102868571D01*
X129372676Y-103177889D01*
X129603473Y-103456792D01*
X129635962Y-103491169D01*
X129909812Y-103747403D01*
X130208267Y-103970727D01*
X130532533Y-104161816D01*
X130883818Y-104321343D01*
X131263328Y-104449983D01*
X131431818Y-104495061D01*
X131794613Y-104571361D01*
X132141798Y-104615365D01*
X132484051Y-104627957D01*
X132826823Y-104610503D01*
X133260115Y-104549701D01*
X133694187Y-104446769D01*
X134128741Y-104301900D01*
X134563477Y-104115283D01*
X134998099Y-103887111D01*
X135432305Y-103617572D01*
X135865799Y-103306859D01*
X136298281Y-102955162D01*
X136729453Y-102562672D01*
X137159015Y-102129580D01*
X137586670Y-101656076D01*
X137747045Y-101467466D01*
X137864786Y-101324748D01*
X137985400Y-101174868D01*
X138106152Y-101021546D01*
X138224307Y-100868503D01*
X138337133Y-100719460D01*
X138441895Y-100578139D01*
X138535859Y-100448260D01*
X138616291Y-100333544D01*
X138680457Y-100237713D01*
X138725624Y-100164487D01*
X138749056Y-100117588D01*
X138750512Y-100101701D01*
X138729526Y-100091538D01*
X138671764Y-100065401D01*
X138579279Y-100024185D01*
X138454121Y-99968784D01*
X138298344Y-99900093D01*
X138113999Y-99819005D01*
X137903139Y-99726415D01*
X137667814Y-99623218D01*
X137410078Y-99510307D01*
X137131981Y-99388578D01*
X136835577Y-99258924D01*
X136522916Y-99122241D01*
X136196052Y-98979421D01*
X135857035Y-98831360D01*
X135507918Y-98678952D01*
X135150753Y-98523092D01*
X134787591Y-98364673D01*
X134420486Y-98204590D01*
X134051487Y-98043738D01*
X133682649Y-97883010D01*
X133316022Y-97723302D01*
X132953659Y-97565507D01*
X132597611Y-97410519D01*
X132249930Y-97259234D01*
X131912669Y-97112546D01*
X131587879Y-96971348D01*
X131277613Y-96836536D01*
X130983922Y-96709003D01*
X130708858Y-96589645D01*
X130454473Y-96479354D01*
X130222819Y-96379027D01*
X130015948Y-96289556D01*
X129835913Y-96211837D01*
X129684764Y-96146763D01*
X129564555Y-96095230D01*
X129477336Y-96058131D01*
X129425160Y-96036361D01*
X129409981Y-96030577D01*
X129393593Y-96041962D01*
X129371802Y-96080361D01*
X129343813Y-96148053D01*
X129308830Y-96247317D01*
X129266056Y-96380432D01*
X129214697Y-96549677D01*
X129153956Y-96757332D01*
X129143136Y-96794894D01*
X128976830Y-97415215D01*
X128839583Y-98017725D01*
X128731565Y-98600834D01*
X128652944Y-99162952D01*
X128603889Y-99702489D01*
X128584569Y-100217854D01*
X123819715Y-100217854D01*
X123828777Y-99930575D01*
X123883207Y-99257787D01*
X123971231Y-98569588D01*
X124092688Y-97867828D01*
X124247417Y-97154362D01*
X124435257Y-96431041D01*
X124487082Y-96249882D01*
X124576503Y-95954512D01*
X124677305Y-95641675D01*
X124784934Y-95324646D01*
X124894832Y-95016702D01*
X125002444Y-94731118D01*
X125047331Y-94617371D01*
X125092852Y-94501293D01*
X125131042Y-94398941D01*
X125159701Y-94316640D01*
X125176626Y-94260716D01*
X125179617Y-94237495D01*
X125179544Y-94237428D01*
X125157456Y-94226519D01*
X125100678Y-94200667D01*
X125013385Y-94161713D01*
X124899751Y-94111499D01*
X124763949Y-94051867D01*
X124610154Y-93984658D01*
X124442539Y-93911715D01*
X124370740Y-93880555D01*
X124199012Y-93805989D01*
X124039670Y-93736610D01*
X123896838Y-93674228D01*
X123774640Y-93620652D01*
X123677200Y-93577691D01*
X123608642Y-93547157D01*
X123573090Y-93530860D01*
X123568996Y-93528698D01*
X123576684Y-93508728D01*
X123603533Y-93457712D01*
X123646542Y-93380673D01*
X123702714Y-93282637D01*
X123769049Y-93168627D01*
X123842548Y-93043669D01*
X123920214Y-92912786D01*
X123999046Y-92781002D01*
X124076047Y-92653342D01*
X124148218Y-92534831D01*
X124212559Y-92430493D01*
X124266072Y-92345352D01*
X124305759Y-92284433D01*
X124328619Y-92252759D01*
X124332552Y-92249382D01*
X124355564Y-92258111D01*
X124412803Y-92283061D01*
X124500215Y-92322376D01*
X124613746Y-92374200D01*
X124749343Y-92436678D01*
X124902953Y-92507952D01*
X125070521Y-92586167D01*
X125171712Y-92633607D01*
X125359017Y-92721488D01*
X125546090Y-92809133D01*
X125726871Y-92893712D01*
X125895299Y-92972393D01*
X126045313Y-93042347D01*
X126170853Y-93100743D01*
X126265858Y-93144750D01*
X126286323Y-93154182D01*
X126327314Y-93172771D01*
X126405555Y-93207966D01*
X126519630Y-93259138D01*
X126668125Y-93325653D01*
X126849624Y-93406879D01*
X127062713Y-93502185D01*
X127305976Y-93610940D01*
X127578000Y-93732511D01*
X127877368Y-93866266D01*
X128202667Y-94011573D01*
X128552480Y-94167801D01*
X128925394Y-94334318D01*
X129319992Y-94510492D01*
X129734861Y-94695692D01*
X130168586Y-94889284D01*
X130619751Y-95090638D01*
X131086941Y-95299122D01*
X131568742Y-95514103D01*
X132063739Y-95734951D01*
X132570516Y-95961032D01*
X133087660Y-96191716D01*
X133613754Y-96426371D01*
X133789906Y-96504935D01*
X134316989Y-96740030D01*
X134834829Y-96971037D01*
X135342048Y-97197341D01*
X135837271Y-97418327D01*
X136319123Y-97633380D01*
X136786228Y-97841886D01*
X137237209Y-98043230D01*
X137670692Y-98236797D01*
X138085299Y-98421972D01*
X138479657Y-98598140D01*
X138852388Y-98764686D01*
X139202117Y-98920996D01*
X139527468Y-99066454D01*
X139827066Y-99200446D01*
X140099534Y-99322358D01*
X140343498Y-99431573D01*
X140557580Y-99527477D01*
X140740405Y-99609456D01*
X140890598Y-99676894D01*
X141006782Y-99729177D01*
X141087583Y-99765690D01*
X141131623Y-99785818D01*
X141138487Y-99789069D01*
X141279817Y-99858799D01*
X141176998Y-100197466D01*
X141051779Y-100593377D01*
X140913379Y-101001518D01*
X140768625Y-101402238D01*
X140658941Y-101688772D01*
X140364159Y-102401236D01*
X140052705Y-103083100D01*
X139725239Y-103733520D01*
X139382425Y-104351654D01*
X139024922Y-104936657D01*
X138653394Y-105487686D01*
X138268501Y-106003897D01*
X137870906Y-106484448D01*
X137461271Y-106928495D01*
X137040257Y-107335193D01*
X136608525Y-107703701D01*
X136166739Y-108033173D01*
X135715558Y-108322767D01*
X135260990Y-108569009D01*
X134983744Y-108704865D01*
X134710858Y-108837027D01*
X134447423Y-108963099D01*
X134198529Y-109080685D01*
X133969266Y-109187389D01*
X133764725Y-109280815D01*
X133589994Y-109358568D01*
X133509930Y-109393151D01*
X132870074Y-109651901D01*
X132247760Y-109875203D01*
X131639170Y-110064161D01*
X131040489Y-110219878D01*
X130447898Y-110343456D01*
X129937573Y-110425237D01*
X129825101Y-110437206D01*
X129681785Y-110447007D01*
X129515382Y-110454586D01*
X129333651Y-110459891D01*
X129144349Y-110462870D01*
X128955235Y-110463468D01*
X128774066Y-110461635D01*
X128608601Y-110457316D01*
X128466598Y-110450459D01*
X128355814Y-110441011D01*
X128320330Y-110436238D01*
X128241531Y-110424789D01*
X128180738Y-110417760D01*
X128148391Y-110416301D01*
X128145874Y-110417026D01*
X128150172Y-110438383D01*
X128167571Y-110489914D01*
X128194935Y-110562696D01*
X128213753Y-110610179D01*
X128281353Y-110794660D01*
X128347940Y-111007549D01*
X128409605Y-111235021D01*
X128462437Y-111463251D01*
X128480613Y-111553713D01*
X128529661Y-111810349D01*
X128656825Y-111792990D01*
X128817970Y-111778941D01*
X128997018Y-111776498D01*
X129178361Y-111785024D01*
X129346391Y-111803880D01*
X129460052Y-111825805D01*
X129716352Y-111909062D01*
X129969704Y-112031535D01*
X130216261Y-112190119D01*
X130452176Y-112381707D01*
X130673604Y-112603192D01*
X130876696Y-112851467D01*
X131049038Y-113109132D01*
X131216009Y-113426068D01*
X131349415Y-113764709D01*
X131448803Y-114120383D01*
X131513719Y-114488416D01*
X131543709Y-114864136D01*
X131538318Y-115242869D01*
X131497093Y-115619943D01*
X131419580Y-115990683D01*
X131351333Y-116220632D01*
X131276349Y-116420740D01*
X131186640Y-116610973D01*
X131078338Y-116797107D01*
X130947576Y-116984917D01*
X130790487Y-117180179D01*
X130603203Y-117388667D01*
X130489850Y-117507043D01*
X130273088Y-117722460D01*
X130065925Y-117913014D01*
X129855543Y-118089752D01*
X129629120Y-118263719D01*
X129517717Y-118344661D01*
X129429202Y-118408733D01*
X129353928Y-118464592D01*
X129298213Y-118507445D01*
X129268374Y-118532498D01*
X129265136Y-118536348D01*
X129280630Y-118552522D01*
X129329485Y-118585643D01*
X129407406Y-118633318D01*
X129510097Y-118693154D01*
X129633264Y-118762757D01*
X129772609Y-118839734D01*
X129923839Y-118921691D01*
X130082657Y-119006235D01*
X130244768Y-119090971D01*
X130405877Y-119173507D01*
X130434990Y-119188223D01*
X131255094Y-119581753D01*
X132091655Y-119943070D01*
X132948210Y-120273474D01*
X133828296Y-120574267D01*
X134735448Y-120846750D01*
X135483240Y-121045278D01*
X136423986Y-121265478D01*
X137386388Y-121459616D01*
X138371858Y-121627834D01*
X139381810Y-121770272D01*
X140417658Y-121887073D01*
X141480816Y-121978375D01*
X142572696Y-122044322D01*
X143694714Y-122085054D01*
X144848282Y-122100711D01*
X145976785Y-122092454D01*
X146363348Y-122084685D01*
X146715753Y-122074948D01*
X147042149Y-122062804D01*
X147350684Y-122047815D01*
X147649507Y-122029540D01*
X147946764Y-122007542D01*
X148250606Y-121981381D01*
X148521906Y-121955367D01*
X149566932Y-121831252D01*
X150594327Y-121669367D01*
X151603716Y-121469854D01*
X152594723Y-121232857D01*
X153566971Y-120958516D01*
X154520085Y-120646973D01*
X155453690Y-120298371D01*
X156367410Y-119912852D01*
X157260868Y-119490558D01*
X158133689Y-119031631D01*
X158985497Y-118536212D01*
X159815916Y-118004445D01*
X160624572Y-117436470D01*
X160777406Y-117323216D01*
X161433824Y-116811360D01*
X162083164Y-116263102D01*
X162719195Y-115684365D01*
X163335684Y-115081072D01*
X163926397Y-114459148D01*
X164485103Y-113824514D01*
X164588000Y-113701933D01*
X165189971Y-112946377D01*
X165761450Y-112162417D01*
X166301297Y-111352155D01*
X166808372Y-110517694D01*
X167281535Y-109661136D01*
X167719643Y-108784584D01*
X168121558Y-107890140D01*
X168486138Y-106979906D01*
X168812243Y-106055985D01*
X168922829Y-105711382D01*
X169181682Y-104829566D01*
X169405850Y-103951174D01*
X169596298Y-103070644D01*
X169753992Y-102182411D01*
X169879896Y-101280913D01*
X169974977Y-100360585D01*
X170040199Y-99415864D01*
X170050222Y-99213216D01*
X170056390Y-99042483D01*
X170060889Y-98839097D01*
X170063779Y-98609960D01*
X170065116Y-98361974D01*
X170064956Y-98102043D01*
X170063359Y-97837068D01*
X170060380Y-97573953D01*
X170056077Y-97319599D01*
X170050508Y-97080910D01*
X170043730Y-96864788D01*
X170035799Y-96678136D01*
X170028086Y-96546216D01*
X169982274Y-95950261D01*
X169929245Y-95385887D01*
X169867646Y-94842752D01*
X169796127Y-94310510D01*
X169713336Y-93778818D01*
X169617921Y-93237333D01*
X169548211Y-92873799D01*
X169520868Y-92735255D01*
X169496253Y-92610445D01*
X169475557Y-92505412D01*
X169459970Y-92426193D01*
X169450681Y-92378831D01*
X169448625Y-92368208D01*
X169467132Y-92359418D01*
X169519068Y-92343573D01*
X169596485Y-92322574D01*
X169691437Y-92298320D01*
X169795976Y-92272712D01*
X169902157Y-92247650D01*
X170002031Y-92225032D01*
X170087652Y-92206760D01*
X170151074Y-92194734D01*
X170184348Y-92190852D01*
X170187303Y-92191605D01*
X170193704Y-92214829D01*
X170206630Y-92273857D01*
X170224962Y-92362859D01*
X170247578Y-92476001D01*
X170273360Y-92607452D01*
X170301185Y-92751379D01*
X170329935Y-92901951D01*
X170358488Y-93053334D01*
X170385725Y-93199698D01*
X170410524Y-93335210D01*
X170431767Y-93454038D01*
X170448331Y-93550349D01*
X170448462Y-93551132D01*
X170520790Y-94004373D01*
X170584174Y-94443971D01*
X170639779Y-94880094D01*
X170688773Y-95322906D01*
X170732325Y-95782577D01*
X170771600Y-96269272D01*
X170789938Y-96525049D01*
X170798581Y-96677471D01*
X170806196Y-96865429D01*
X170812724Y-97082135D01*
X170818110Y-97320804D01*
X170822294Y-97574648D01*
X170825220Y-97836880D01*
X170826829Y-98100715D01*
X170827064Y-98359365D01*
X170825866Y-98606043D01*
X170823179Y-98833964D01*
X170818945Y-99036339D01*
X170813105Y-99206383D01*
X170812802Y-99213216D01*
X170744875Y-100279077D01*
X170637644Y-101330482D01*
X170491203Y-102367095D01*
X170305648Y-103388579D01*
X170081072Y-104394600D01*
X169817571Y-105384820D01*
X169515240Y-106358906D01*
X169174174Y-107316520D01*
X168794466Y-108257327D01*
X168376213Y-109180991D01*
X167919509Y-110087176D01*
X167555282Y-110749049D01*
X167037665Y-111614314D01*
X166487866Y-112452158D01*
X165906057Y-113262377D01*
X165292410Y-114044770D01*
X164647097Y-114799134D01*
X163970290Y-115525268D01*
X163262162Y-116222969D01*
X162522884Y-116892036D01*
X161835740Y-117465772D01*
X161056732Y-118064764D01*
X160251736Y-118630731D01*
X159421838Y-119163192D01*
X158568124Y-119661666D01*
X157691678Y-120125673D01*
X156793586Y-120554731D01*
X155874934Y-120948361D01*
X154936806Y-121306082D01*
X153980289Y-121627413D01*
X153006467Y-121911874D01*
X152016427Y-122158983D01*
X151011253Y-122368261D01*
X150596240Y-122442807D01*
X150078118Y-122527103D01*
X149564246Y-122601327D01*
X149050294Y-122665749D01*
X148531934Y-122720637D01*
X148004838Y-122766261D01*
X147464679Y-122802889D01*
X146907128Y-122830791D01*
X146327857Y-122850235D01*
X145722538Y-122861492D01*
X145086844Y-122864830D01*
X144416446Y-122860519D01*
X143981656Y-122854125D01*
X142800738Y-122818741D01*
X141644099Y-122754661D01*
X140512587Y-122662021D01*
X139407052Y-122540956D01*
X138328343Y-122391600D01*
X137277310Y-122214091D01*
X136254801Y-122008562D01*
X135261666Y-121775150D01*
X134298754Y-121513989D01*
X133366915Y-121225216D01*
X133017323Y-121106947D01*
X132286063Y-120840283D01*
X131565030Y-120550983D01*
X130860088Y-120241773D01*
X130177100Y-119915377D01*
X129521930Y-119574521D01*
X128900441Y-119221929D01*
X128696130Y-119098807D01*
X128473321Y-118962394D01*
X128268822Y-119049675D01*
X127832311Y-119214722D01*
X127368519Y-119349145D01*
X126880212Y-119452144D01*
X126876343Y-119452817D01*
X126734182Y-119471963D01*
X126559108Y-119486783D01*
X126360325Y-119497222D01*
X126147034Y-119503224D01*
X125928442Y-119504731D01*
X125713750Y-119501689D01*
X125512164Y-119494042D01*
X125332886Y-119481733D01*
X125185121Y-119464707D01*
X125175073Y-119463160D01*
X124656753Y-119360692D01*
X124140572Y-119217231D01*
X123630294Y-119034086D01*
X123129683Y-118812567D01*
X122772985Y-118627646D01*
X122599079Y-118527649D01*
X122406011Y-118409737D01*
X122203430Y-118280307D01*
X122000984Y-118145755D01*
X121808321Y-118012477D01*
X121635090Y-117886871D01*
X121507381Y-117788561D01*
X121132547Y-117465174D01*
X120791174Y-117121610D01*
X120484479Y-116759668D01*
X120213678Y-116381146D01*
X119979988Y-115987841D01*
X119784628Y-115581553D01*
X119628813Y-115164080D01*
X119552668Y-114900672D01*
X119456556Y-114449094D01*
X119394823Y-113979323D01*
X119370523Y-113554105D01*
X120130259Y-113554105D01*
X120164210Y-114023981D01*
X120192323Y-114240827D01*
X120275306Y-114658086D01*
X120398473Y-115062146D01*
X120561585Y-115452379D01*
X120764402Y-115828159D01*
X120850043Y-115964301D01*
X120947885Y-116109893D01*
X121041106Y-116238919D01*
X121136876Y-116359974D01*
X121242362Y-116481653D01*
X121364736Y-116612553D01*
X121511165Y-116761269D01*
X121532376Y-116782393D01*
X121887983Y-117108491D01*
X122279990Y-117415816D01*
X122709098Y-117704866D01*
X123176009Y-117976140D01*
X123322896Y-118053787D01*
X123734201Y-118251803D01*
X124136869Y-118414525D01*
X124540384Y-118544919D01*
X124954226Y-118645954D01*
X125387880Y-118720593D01*
X125503156Y-118735808D01*
X125587264Y-118742447D01*
X125704121Y-118746408D01*
X125844235Y-118747847D01*
X125998118Y-118746921D01*
X126156279Y-118743788D01*
X126309227Y-118738605D01*
X126447474Y-118731529D01*
X126561529Y-118722716D01*
X126608030Y-118717512D01*
X127061820Y-118637111D01*
X127509783Y-118515080D01*
X127950934Y-118351849D01*
X128384282Y-118147843D01*
X128808839Y-117903490D01*
X129223618Y-117619217D01*
X129323740Y-117543450D01*
X129413216Y-117469978D01*
X129522365Y-117373299D01*
X129645007Y-117259546D01*
X129774964Y-117134852D01*
X129906057Y-117005351D01*
X130032106Y-116877174D01*
X130146933Y-116756456D01*
X130244359Y-116649330D01*
X130318204Y-116561927D01*
X130336589Y-116538132D01*
X130478866Y-116319759D01*
X130592291Y-116082621D01*
X130678015Y-115822976D01*
X130737193Y-115537084D01*
X130770975Y-115221203D01*
X130776762Y-115109382D01*
X130772322Y-114753074D01*
X130730966Y-114411682D01*
X130653468Y-114087273D01*
X130540606Y-113781911D01*
X130393153Y-113497663D01*
X130211886Y-113236594D01*
X129997581Y-113000771D01*
X129978053Y-112982132D01*
X129772397Y-112808924D01*
X129566442Y-112677628D01*
X129359193Y-112587828D01*
X129149652Y-112539109D01*
X128936822Y-112531055D01*
X128902220Y-112533528D01*
X128780252Y-112549093D01*
X128666927Y-112575848D01*
X128553683Y-112617336D01*
X128431957Y-112677097D01*
X128293187Y-112758673D01*
X128177034Y-112833485D01*
X128078012Y-112898553D01*
X127992199Y-112954235D01*
X127925390Y-112996830D01*
X127883377Y-113022634D01*
X127871511Y-113028698D01*
X127869033Y-113007282D01*
X127864420Y-112950373D01*
X127858167Y-112864730D01*
X127850769Y-112757113D01*
X127843310Y-112643466D01*
X127807975Y-112234267D01*
X127756655Y-111853823D01*
X127689842Y-111503976D01*
X127608030Y-111186570D01*
X127511715Y-110903448D01*
X127401390Y-110656453D01*
X127277549Y-110447427D01*
X127240832Y-110396372D01*
X127139849Y-110275720D01*
X127039356Y-110188704D01*
X126927797Y-110128376D01*
X126793618Y-110087791D01*
X126698250Y-110070150D01*
X126511779Y-110058569D01*
X126301375Y-110076316D01*
X126071856Y-110121648D01*
X125828042Y-110192819D01*
X125574751Y-110288085D01*
X125316800Y-110405703D01*
X125059009Y-110543928D01*
X124806196Y-110701016D01*
X124645906Y-110813081D01*
X124556079Y-110878784D01*
X124469202Y-110942155D01*
X124396453Y-110995047D01*
X124356376Y-111024029D01*
X124267928Y-111087670D01*
X124136903Y-110849568D01*
X123953734Y-110540486D01*
X123764987Y-110268186D01*
X123571542Y-110033313D01*
X123374275Y-109836509D01*
X123174066Y-109678418D01*
X122971792Y-109559684D01*
X122768332Y-109480950D01*
X122564563Y-109442861D01*
X122361364Y-109446058D01*
X122248923Y-109465941D01*
X122103445Y-109509840D01*
X121955972Y-109574717D01*
X121801904Y-109663457D01*
X121636643Y-109778943D01*
X121455592Y-109924060D01*
X121296163Y-110063541D01*
X121131274Y-110219772D01*
X120995208Y-110367408D01*
X120879408Y-110517722D01*
X120775316Y-110681988D01*
X120674375Y-110871480D01*
X120658667Y-110903412D01*
X120486592Y-111302588D01*
X120347279Y-111724817D01*
X120241360Y-112165591D01*
X120169463Y-112620402D01*
X120132220Y-113084742D01*
X120130259Y-113554105D01*
X119370523Y-113554105D01*
X119367295Y-113497621D01*
X119373797Y-113010253D01*
G36*
X151262297Y-61437990D02*
G01*
X151297296Y-61450685D01*
X151328884Y-61462765D01*
X151395292Y-61487104D01*
X151491417Y-61521867D01*
X151612161Y-61565221D01*
X151752421Y-61615332D01*
X151907098Y-61670369D01*
X152014406Y-61708429D01*
X152195044Y-61773267D01*
X152381463Y-61841702D01*
X152565007Y-61910450D01*
X152737019Y-61976225D01*
X152888842Y-62035742D01*
X153011819Y-62085716D01*
X153040990Y-62098014D01*
X153738923Y-62410588D01*
X154449325Y-62757950D01*
X155166412Y-63136694D01*
X155884400Y-63543412D01*
X156597504Y-63974699D01*
X157299940Y-64427145D01*
X157985923Y-64897345D01*
X158649671Y-65381891D01*
X158766573Y-65470550D01*
X159601746Y-66132437D01*
X160402586Y-66817436D01*
X161168776Y-67525094D01*
X161899995Y-68254957D01*
X162595927Y-69006572D01*
X163256252Y-69779486D01*
X163880650Y-70573246D01*
X164468805Y-71387398D01*
X165020396Y-72221488D01*
X165535106Y-73075065D01*
X166012616Y-73947674D01*
X166452606Y-74838863D01*
X166854759Y-75748177D01*
X167218755Y-76675164D01*
X167544276Y-77619371D01*
X167727415Y-78215882D01*
X167791184Y-78436400D01*
X167843862Y-78624346D01*
X167885092Y-78778313D01*
X167914516Y-78896898D01*
X167931777Y-78978696D01*
X167936518Y-79022301D01*
X167934239Y-79029254D01*
X167910553Y-79036788D01*
X167854118Y-79052368D01*
X167773275Y-79073860D01*
X167676366Y-79099128D01*
X167571731Y-79126038D01*
X167467714Y-79152456D01*
X167372655Y-79176246D01*
X167294895Y-79195276D01*
X167242778Y-79207409D01*
X167225111Y-79210716D01*
X167214387Y-79192194D01*
X167197362Y-79144479D01*
X167183913Y-79099591D01*
X167168182Y-79043483D01*
X167143496Y-78955426D01*
X167112326Y-78844230D01*
X167077142Y-78718708D01*
X167042996Y-78596882D01*
X166787085Y-77753551D01*
X166491857Y-76907678D01*
X166159558Y-76064747D01*
X165792438Y-75230244D01*
X165392743Y-74409651D01*
X165099752Y-73855549D01*
X164619383Y-73020127D01*
X164100820Y-72201593D01*
X163545128Y-71400994D01*
X162953368Y-70619372D01*
X162326604Y-69857774D01*
X161665899Y-69117244D01*
X160972316Y-68398826D01*
X160246918Y-67703565D01*
X159490769Y-67032507D01*
X158704931Y-66386695D01*
X157890468Y-65767174D01*
X157048442Y-65174990D01*
X156179917Y-64611186D01*
X155285956Y-64076807D01*
X154964001Y-63895110D01*
X154814615Y-63813027D01*
X154654688Y-63726831D01*
X154488186Y-63638512D01*
X154319074Y-63550061D01*
X154151316Y-63463467D01*
X153988878Y-63380720D01*
X153835726Y-63303811D01*
X153695823Y-63234728D01*
X153573135Y-63175463D01*
X153471628Y-63128005D01*
X153395266Y-63094343D01*
X153348013Y-63076469D01*
X153333837Y-63076372D01*
X153334241Y-63077176D01*
X153492385Y-63341306D01*
X153631252Y-63574361D01*
X153753692Y-63781359D01*
X153862552Y-63967317D01*
X153960683Y-64137251D01*
X154050931Y-64296179D01*
X154136147Y-64449118D01*
X154219179Y-64601085D01*
X154302875Y-64757096D01*
X154390084Y-64922169D01*
X154483655Y-65101321D01*
X154484597Y-65103132D01*
X154943313Y-66023006D01*
X155364011Y-66945007D01*
X155746285Y-67867869D01*
X156089731Y-68790328D01*
X156393943Y-69711118D01*
X156658514Y-70628973D01*
X156883039Y-71542627D01*
X157067112Y-72450816D01*
X157210328Y-73352272D01*
X157263191Y-73771376D01*
X157293863Y-74048851D01*
X157318884Y-74304868D01*
X157338745Y-74548540D01*
X157353939Y-74788984D01*
X157364956Y-75035313D01*
X157372288Y-75296643D01*
X157376426Y-75582090D01*
X157377860Y-75898132D01*
X157376217Y-76263692D01*
X157370297Y-76595710D01*
X157359517Y-76902816D01*
X157343297Y-77193640D01*
X157321057Y-77476811D01*
X157292215Y-77760959D01*
X157256192Y-78054714D01*
X157212405Y-78366706D01*
X157211178Y-78375008D01*
X157176795Y-78601636D01*
X157146550Y-78788490D01*
X157119952Y-78937877D01*
X157096511Y-79052103D01*
X157075735Y-79133473D01*
X157057134Y-79184294D01*
X157040217Y-79206872D01*
X157033786Y-79208511D01*
X157001888Y-79203643D01*
X156936540Y-79191657D01*
X156845729Y-79174083D01*
X156737444Y-79152455D01*
X156671215Y-79138952D01*
X156536753Y-79110135D01*
X156440138Y-79086441D01*
X156377361Y-79066672D01*
X156344410Y-79049629D01*
X156337019Y-79039120D01*
X156338407Y-79007161D01*
X156346592Y-78942355D01*
X156360304Y-78853412D01*
X156378276Y-78749041D01*
X156383134Y-78722387D01*
X156489310Y-78049464D01*
X156564965Y-77351779D01*
X156610009Y-76633997D01*
X156624354Y-75900783D01*
X156607912Y-75156801D01*
X156560595Y-74406716D01*
X156482314Y-73655193D01*
X156479565Y-73633299D01*
X156355950Y-72802208D01*
X156193706Y-71958931D01*
X155993823Y-71106197D01*
X155757291Y-70246735D01*
X155485100Y-69383275D01*
X155178239Y-68518547D01*
X154837698Y-67655281D01*
X154464467Y-66796205D01*
X154059535Y-65944051D01*
X153623892Y-65101547D01*
X153158528Y-64271423D01*
X152969275Y-63951754D01*
X152804197Y-63679484D01*
X152651528Y-63433271D01*
X152505778Y-63204979D01*
X152361460Y-62986476D01*
X152213086Y-62769628D01*
X152055168Y-62546300D01*
X151882218Y-62308359D01*
X151688748Y-62047671D01*
X151646944Y-61991868D01*
X151547621Y-61859026D01*
X151457275Y-61737349D01*
X151378844Y-61630862D01*
X151315269Y-61543589D01*
X151269488Y-61479557D01*
X151244441Y-61442790D01*
X151240615Y-61435451D01*
X151262297Y-61437990D01*
G37*
X151262297Y-61437990D02*
X151297296Y-61450685D01*
X151328884Y-61462765D01*
X151395292Y-61487104D01*
X151491417Y-61521867D01*
X151612161Y-61565221D01*
X151752421Y-61615332D01*
X151907098Y-61670369D01*
X152014406Y-61708429D01*
X152195044Y-61773267D01*
X152381463Y-61841702D01*
X152565007Y-61910450D01*
X152737019Y-61976225D01*
X152888842Y-62035742D01*
X153011819Y-62085716D01*
X153040990Y-62098014D01*
X153738923Y-62410588D01*
X154449325Y-62757950D01*
X155166412Y-63136694D01*
X155884400Y-63543412D01*
X156597504Y-63974699D01*
X157299940Y-64427145D01*
X157985923Y-64897345D01*
X158649671Y-65381891D01*
X158766573Y-65470550D01*
X159601746Y-66132437D01*
X160402586Y-66817436D01*
X161168776Y-67525094D01*
X161899995Y-68254957D01*
X162595927Y-69006572D01*
X163256252Y-69779486D01*
X163880650Y-70573246D01*
X164468805Y-71387398D01*
X165020396Y-72221488D01*
X165535106Y-73075065D01*
X166012616Y-73947674D01*
X166452606Y-74838863D01*
X166854759Y-75748177D01*
X167218755Y-76675164D01*
X167544276Y-77619371D01*
X167727415Y-78215882D01*
X167791184Y-78436400D01*
X167843862Y-78624346D01*
X167885092Y-78778313D01*
X167914516Y-78896898D01*
X167931777Y-78978696D01*
X167936518Y-79022301D01*
X167934239Y-79029254D01*
X167910553Y-79036788D01*
X167854118Y-79052368D01*
X167773275Y-79073860D01*
X167676366Y-79099128D01*
X167571731Y-79126038D01*
X167467714Y-79152456D01*
X167372655Y-79176246D01*
X167294895Y-79195276D01*
X167242778Y-79207409D01*
X167225111Y-79210716D01*
X167214387Y-79192194D01*
X167197362Y-79144479D01*
X167183913Y-79099591D01*
X167168182Y-79043483D01*
X167143496Y-78955426D01*
X167112326Y-78844230D01*
X167077142Y-78718708D01*
X167042996Y-78596882D01*
X166787085Y-77753551D01*
X166491857Y-76907678D01*
X166159558Y-76064747D01*
X165792438Y-75230244D01*
X165392743Y-74409651D01*
X165099752Y-73855549D01*
X164619383Y-73020127D01*
X164100820Y-72201593D01*
X163545128Y-71400994D01*
X162953368Y-70619372D01*
X162326604Y-69857774D01*
X161665899Y-69117244D01*
X160972316Y-68398826D01*
X160246918Y-67703565D01*
X159490769Y-67032507D01*
X158704931Y-66386695D01*
X157890468Y-65767174D01*
X157048442Y-65174990D01*
X156179917Y-64611186D01*
X155285956Y-64076807D01*
X154964001Y-63895110D01*
X154814615Y-63813027D01*
X154654688Y-63726831D01*
X154488186Y-63638512D01*
X154319074Y-63550061D01*
X154151316Y-63463467D01*
X153988878Y-63380720D01*
X153835726Y-63303811D01*
X153695823Y-63234728D01*
X153573135Y-63175463D01*
X153471628Y-63128005D01*
X153395266Y-63094343D01*
X153348013Y-63076469D01*
X153333837Y-63076372D01*
X153334241Y-63077176D01*
X153492385Y-63341306D01*
X153631252Y-63574361D01*
X153753692Y-63781359D01*
X153862552Y-63967317D01*
X153960683Y-64137251D01*
X154050931Y-64296179D01*
X154136147Y-64449118D01*
X154219179Y-64601085D01*
X154302875Y-64757096D01*
X154390084Y-64922169D01*
X154483655Y-65101321D01*
X154484597Y-65103132D01*
X154943313Y-66023006D01*
X155364011Y-66945007D01*
X155746285Y-67867869D01*
X156089731Y-68790328D01*
X156393943Y-69711118D01*
X156658514Y-70628973D01*
X156883039Y-71542627D01*
X157067112Y-72450816D01*
X157210328Y-73352272D01*
X157263191Y-73771376D01*
X157293863Y-74048851D01*
X157318884Y-74304868D01*
X157338745Y-74548540D01*
X157353939Y-74788984D01*
X157364956Y-75035313D01*
X157372288Y-75296643D01*
X157376426Y-75582090D01*
X157377860Y-75898132D01*
X157376217Y-76263692D01*
X157370297Y-76595710D01*
X157359517Y-76902816D01*
X157343297Y-77193640D01*
X157321057Y-77476811D01*
X157292215Y-77760959D01*
X157256192Y-78054714D01*
X157212405Y-78366706D01*
X157211178Y-78375008D01*
X157176795Y-78601636D01*
X157146550Y-78788490D01*
X157119952Y-78937877D01*
X157096511Y-79052103D01*
X157075735Y-79133473D01*
X157057134Y-79184294D01*
X157040217Y-79206872D01*
X157033786Y-79208511D01*
X157001888Y-79203643D01*
X156936540Y-79191657D01*
X156845729Y-79174083D01*
X156737444Y-79152455D01*
X156671215Y-79138952D01*
X156536753Y-79110135D01*
X156440138Y-79086441D01*
X156377361Y-79066672D01*
X156344410Y-79049629D01*
X156337019Y-79039120D01*
X156338407Y-79007161D01*
X156346592Y-78942355D01*
X156360304Y-78853412D01*
X156378276Y-78749041D01*
X156383134Y-78722387D01*
X156489310Y-78049464D01*
X156564965Y-77351779D01*
X156610009Y-76633997D01*
X156624354Y-75900783D01*
X156607912Y-75156801D01*
X156560595Y-74406716D01*
X156482314Y-73655193D01*
X156479565Y-73633299D01*
X156355950Y-72802208D01*
X156193706Y-71958931D01*
X155993823Y-71106197D01*
X155757291Y-70246735D01*
X155485100Y-69383275D01*
X155178239Y-68518547D01*
X154837698Y-67655281D01*
X154464467Y-66796205D01*
X154059535Y-65944051D01*
X153623892Y-65101547D01*
X153158528Y-64271423D01*
X152969275Y-63951754D01*
X152804197Y-63679484D01*
X152651528Y-63433271D01*
X152505778Y-63204979D01*
X152361460Y-62986476D01*
X152213086Y-62769628D01*
X152055168Y-62546300D01*
X151882218Y-62308359D01*
X151688748Y-62047671D01*
X151646944Y-61991868D01*
X151547621Y-61859026D01*
X151457275Y-61737349D01*
X151378844Y-61630862D01*
X151315269Y-61543589D01*
X151269488Y-61479557D01*
X151244441Y-61442790D01*
X151240615Y-61435451D01*
X151262297Y-61437990D01*
%TD*%
M02*
