%TF.GenerationSoftware,KiCad,Pcbnew,(6.0.9)*%
%TF.CreationDate,2023-10-21T14:44:12-07:00*%
%TF.ProjectId,pegoste2023,7065676f-7374-4653-9230-32332e6b6963,rev?*%
%TF.SameCoordinates,Original*%
%TF.FileFunction,Paste,Top*%
%TF.FilePolarity,Positive*%
%FSLAX46Y46*%
G04 Gerber Fmt 4.6, Leading zero omitted, Abs format (unit mm)*
G04 Created by KiCad (PCBNEW (6.0.9)) date 2023-10-21 14:44:12*
%MOMM*%
%LPD*%
G01*
G04 APERTURE LIST*
G04 Aperture macros list*
%AMRoundRect*
0 Rectangle with rounded corners*
0 $1 Rounding radius*
0 $2 $3 $4 $5 $6 $7 $8 $9 X,Y pos of 4 corners*
0 Add a 4 corners polygon primitive as box body*
4,1,4,$2,$3,$4,$5,$6,$7,$8,$9,$2,$3,0*
0 Add four circle primitives for the rounded corners*
1,1,$1+$1,$2,$3*
1,1,$1+$1,$4,$5*
1,1,$1+$1,$6,$7*
1,1,$1+$1,$8,$9*
0 Add four rect primitives between the rounded corners*
20,1,$1+$1,$2,$3,$4,$5,0*
20,1,$1+$1,$4,$5,$6,$7,0*
20,1,$1+$1,$6,$7,$8,$9,0*
20,1,$1+$1,$8,$9,$2,$3,0*%
%AMFreePoly0*
4,1,14,0.334644,0.085355,0.385355,0.034644,0.400000,-0.000711,0.400000,-0.050000,0.385355,-0.085355,0.350000,-0.100000,-0.350000,-0.100000,-0.385355,-0.085355,-0.400000,-0.050000,-0.400000,0.050000,-0.385355,0.085355,-0.350000,0.100000,0.299289,0.100000,0.334644,0.085355,0.334644,0.085355,$1*%
%AMFreePoly1*
4,1,14,0.385355,0.085355,0.400000,0.050000,0.400000,0.000711,0.385355,-0.034644,0.334644,-0.085355,0.299289,-0.100000,-0.350000,-0.100000,-0.385355,-0.085355,-0.400000,-0.050000,-0.400000,0.050000,-0.385355,0.085355,-0.350000,0.100000,0.350000,0.100000,0.385355,0.085355,0.385355,0.085355,$1*%
%AMFreePoly2*
4,1,14,0.085355,0.385355,0.100000,0.350000,0.100000,-0.350000,0.085355,-0.385355,0.050000,-0.400000,-0.050000,-0.400000,-0.085355,-0.385355,-0.100000,-0.350000,-0.100000,0.299289,-0.085355,0.334644,-0.034644,0.385355,0.000711,0.400000,0.050000,0.400000,0.085355,0.385355,0.085355,0.385355,$1*%
%AMFreePoly3*
4,1,14,0.034644,0.385355,0.085355,0.334644,0.100000,0.299289,0.100000,-0.350000,0.085355,-0.385355,0.050000,-0.400000,-0.050000,-0.400000,-0.085355,-0.385355,-0.100000,-0.350000,-0.100000,0.350000,-0.085355,0.385355,-0.050000,0.400000,-0.000711,0.400000,0.034644,0.385355,0.034644,0.385355,$1*%
%AMFreePoly4*
4,1,14,0.385355,0.085355,0.400000,0.050000,0.400000,-0.050000,0.385355,-0.085355,0.350000,-0.100000,-0.299289,-0.100000,-0.334644,-0.085355,-0.385355,-0.034644,-0.400000,0.000711,-0.400000,0.050000,-0.385355,0.085355,-0.350000,0.100000,0.350000,0.100000,0.385355,0.085355,0.385355,0.085355,$1*%
%AMFreePoly5*
4,1,14,0.385355,0.085355,0.400000,0.050000,0.400000,-0.050000,0.385355,-0.085355,0.350000,-0.100000,-0.350000,-0.100000,-0.385355,-0.085355,-0.400000,-0.050000,-0.400000,-0.000711,-0.385355,0.034644,-0.334644,0.085355,-0.299289,0.100000,0.350000,0.100000,0.385355,0.085355,0.385355,0.085355,$1*%
%AMFreePoly6*
4,1,14,0.085355,0.385355,0.100000,0.350000,0.100000,-0.299289,0.085355,-0.334644,0.034644,-0.385355,-0.000711,-0.400000,-0.050000,-0.400000,-0.085355,-0.385355,-0.100000,-0.350000,-0.100000,0.350000,-0.085355,0.385355,-0.050000,0.400000,0.050000,0.400000,0.085355,0.385355,0.085355,0.385355,$1*%
%AMFreePoly7*
4,1,14,0.085355,0.385355,0.100000,0.350000,0.100000,-0.350000,0.085355,-0.385355,0.050000,-0.400000,0.000711,-0.400000,-0.034644,-0.385355,-0.085355,-0.334644,-0.100000,-0.299289,-0.100000,0.350000,-0.085355,0.385355,-0.050000,0.400000,0.050000,0.400000,0.085355,0.385355,0.085355,0.385355,$1*%
G04 Aperture macros list end*
%ADD10RoundRect,0.135000X-0.185000X0.135000X-0.185000X-0.135000X0.185000X-0.135000X0.185000X0.135000X0*%
%ADD11RoundRect,0.250000X0.337500X0.475000X-0.337500X0.475000X-0.337500X-0.475000X0.337500X-0.475000X0*%
%ADD12R,1.000000X2.800000*%
%ADD13RoundRect,0.135000X0.185000X-0.135000X0.185000X0.135000X-0.185000X0.135000X-0.185000X-0.135000X0*%
%ADD14RoundRect,0.250000X0.475000X-0.337500X0.475000X0.337500X-0.475000X0.337500X-0.475000X-0.337500X0*%
%ADD15RoundRect,0.140000X0.170000X-0.140000X0.170000X0.140000X-0.170000X0.140000X-0.170000X-0.140000X0*%
%ADD16RoundRect,0.250000X-0.337500X-0.475000X0.337500X-0.475000X0.337500X0.475000X-0.337500X0.475000X0*%
%ADD17R,3.200000X4.200000*%
%ADD18RoundRect,0.225000X0.250000X-0.225000X0.250000X0.225000X-0.250000X0.225000X-0.250000X-0.225000X0*%
%ADD19RoundRect,0.200000X0.200000X0.275000X-0.200000X0.275000X-0.200000X-0.275000X0.200000X-0.275000X0*%
%ADD20RoundRect,0.172500X-0.172500X-0.172500X0.172500X-0.172500X0.172500X0.172500X-0.172500X0.172500X0*%
%ADD21FreePoly0,0.000000*%
%ADD22RoundRect,0.050000X-0.350000X-0.050000X0.350000X-0.050000X0.350000X0.050000X-0.350000X0.050000X0*%
%ADD23FreePoly1,0.000000*%
%ADD24FreePoly2,0.000000*%
%ADD25RoundRect,0.050000X-0.050000X-0.350000X0.050000X-0.350000X0.050000X0.350000X-0.050000X0.350000X0*%
%ADD26FreePoly3,0.000000*%
%ADD27FreePoly4,0.000000*%
%ADD28FreePoly5,0.000000*%
%ADD29FreePoly6,0.000000*%
%ADD30FreePoly7,0.000000*%
G04 APERTURE END LIST*
D10*
%TO.C,R7*%
X132500000Y-93240000D03*
X132500000Y-94260000D03*
%TD*%
%TO.C,R17*%
X138250000Y-96740000D03*
X138250000Y-97760000D03*
%TD*%
D11*
%TO.C,D4*%
X134287500Y-100500000D03*
X132212500Y-100500000D03*
%TD*%
D10*
%TO.C,R6*%
X131000000Y-93240000D03*
X131000000Y-94260000D03*
%TD*%
D12*
%TO.C,SW1*%
X122750000Y-101150000D03*
X122750000Y-95350000D03*
X126750000Y-95350000D03*
X126750000Y-101150000D03*
%TD*%
D13*
%TO.C,R13*%
X153500000Y-95260000D03*
X153500000Y-94240000D03*
%TD*%
D14*
%TO.C,D2*%
X141706514Y-84417803D03*
X141706514Y-82342803D03*
%TD*%
D15*
%TO.C,C1*%
X142250000Y-96730000D03*
X142250000Y-95770000D03*
%TD*%
D16*
%TO.C,D3*%
X156712500Y-99500000D03*
X158787500Y-99500000D03*
%TD*%
D17*
%TO.C,BT1*%
X135500000Y-109000000D03*
X164500000Y-109000000D03*
%TD*%
D18*
%TO.C,C2*%
X140750000Y-97025000D03*
X140750000Y-95475000D03*
%TD*%
D13*
%TO.C,R15*%
X137000000Y-95260000D03*
X137000000Y-94240000D03*
%TD*%
D10*
%TO.C,R16*%
X138250000Y-94490000D03*
X138250000Y-95510000D03*
%TD*%
D14*
%TO.C,D1*%
X137000000Y-116750000D03*
X137000000Y-114675000D03*
%TD*%
D10*
%TO.C,R9*%
X135500000Y-93230000D03*
X135500000Y-94250000D03*
%TD*%
D13*
%TO.C,R14*%
X137000000Y-97510000D03*
X137000000Y-96490000D03*
%TD*%
D10*
%TO.C,R2*%
X144750000Y-118490000D03*
X144750000Y-119510000D03*
%TD*%
D19*
%TO.C,R1*%
X127825000Y-104500000D03*
X126175000Y-104500000D03*
%TD*%
D10*
%TO.C,R8*%
X134000000Y-93240000D03*
X134000000Y-94260000D03*
%TD*%
D20*
%TO.C,U1*%
X145425000Y-95575000D03*
X144575000Y-95575000D03*
X144575000Y-96425000D03*
X145425000Y-96425000D03*
D21*
X143550000Y-95200000D03*
D22*
X143550000Y-95600000D03*
X143550000Y-96000000D03*
X143550000Y-96400000D03*
D23*
X143550000Y-96800000D03*
D24*
X144200000Y-97450000D03*
D25*
X144600000Y-97450000D03*
X145000000Y-97450000D03*
X145400000Y-97450000D03*
D26*
X145800000Y-97450000D03*
D27*
X146450000Y-96800000D03*
D22*
X146450000Y-96400000D03*
X146450000Y-96000000D03*
X146450000Y-95600000D03*
D28*
X146450000Y-95200000D03*
D29*
X145800000Y-94550000D03*
D25*
X145400000Y-94550000D03*
X145000000Y-94550000D03*
X144600000Y-94550000D03*
D30*
X144200000Y-94550000D03*
%TD*%
D13*
%TO.C,R11*%
X157000000Y-94260000D03*
X157000000Y-93240000D03*
%TD*%
D10*
%TO.C,R4*%
X149000000Y-118490000D03*
X149000000Y-119510000D03*
%TD*%
D13*
%TO.C,R10*%
X158750000Y-93760000D03*
X158750000Y-92740000D03*
%TD*%
%TO.C,R12*%
X155250000Y-94760000D03*
X155250000Y-93740000D03*
%TD*%
D10*
%TO.C,R5*%
X151000000Y-118490000D03*
X151000000Y-119510000D03*
%TD*%
%TO.C,R3*%
X146750000Y-118490000D03*
X146750000Y-119510000D03*
%TD*%
M02*
