%TF.GenerationSoftware,KiCad,Pcbnew,(6.0.9)*%
%TF.CreationDate,2023-10-21T14:44:12-07:00*%
%TF.ProjectId,pegoste2023,7065676f-7374-4653-9230-32332e6b6963,rev?*%
%TF.SameCoordinates,Original*%
%TF.FileFunction,Soldermask,Bot*%
%TF.FilePolarity,Negative*%
%FSLAX46Y46*%
G04 Gerber Fmt 4.6, Leading zero omitted, Abs format (unit mm)*
G04 Created by KiCad (PCBNEW (6.0.9)) date 2023-10-21 14:44:12*
%MOMM*%
%LPD*%
G01*
G04 APERTURE LIST*
%ADD10C,0.180000*%
%ADD11C,0.150000*%
%ADD12C,0.010000*%
%ADD13R,1.700000X1.700000*%
G04 APERTURE END LIST*
D10*
X164823809Y-77485714D02*
X164823809Y-78485714D01*
X164823809Y-77533333D02*
X164728571Y-77485714D01*
X164538095Y-77485714D01*
X164442857Y-77533333D01*
X164395238Y-77580952D01*
X164347619Y-77676190D01*
X164347619Y-77961904D01*
X164395238Y-78057142D01*
X164442857Y-78104761D01*
X164538095Y-78152380D01*
X164728571Y-78152380D01*
X164823809Y-78104761D01*
X163538095Y-78104761D02*
X163633333Y-78152380D01*
X163823809Y-78152380D01*
X163919047Y-78104761D01*
X163966666Y-78009523D01*
X163966666Y-77628571D01*
X163919047Y-77533333D01*
X163823809Y-77485714D01*
X163633333Y-77485714D01*
X163538095Y-77533333D01*
X163490476Y-77628571D01*
X163490476Y-77723809D01*
X163966666Y-77819047D01*
X162633333Y-77485714D02*
X162633333Y-78295238D01*
X162680952Y-78390476D01*
X162728571Y-78438095D01*
X162823809Y-78485714D01*
X162966666Y-78485714D01*
X163061904Y-78438095D01*
X162633333Y-78104761D02*
X162728571Y-78152380D01*
X162919047Y-78152380D01*
X163014285Y-78104761D01*
X163061904Y-78057142D01*
X163109523Y-77961904D01*
X163109523Y-77676190D01*
X163061904Y-77580952D01*
X163014285Y-77533333D01*
X162919047Y-77485714D01*
X162728571Y-77485714D01*
X162633333Y-77533333D01*
X162014285Y-78152380D02*
X162109523Y-78104761D01*
X162157142Y-78057142D01*
X162204761Y-77961904D01*
X162204761Y-77676190D01*
X162157142Y-77580952D01*
X162109523Y-77533333D01*
X162014285Y-77485714D01*
X161871428Y-77485714D01*
X161776190Y-77533333D01*
X161728571Y-77580952D01*
X161680952Y-77676190D01*
X161680952Y-77961904D01*
X161728571Y-78057142D01*
X161776190Y-78104761D01*
X161871428Y-78152380D01*
X162014285Y-78152380D01*
X161299999Y-78104761D02*
X161204761Y-78152380D01*
X161014285Y-78152380D01*
X160919047Y-78104761D01*
X160871428Y-78009523D01*
X160871428Y-77961904D01*
X160919047Y-77866666D01*
X161014285Y-77819047D01*
X161157142Y-77819047D01*
X161252380Y-77771428D01*
X161299999Y-77676190D01*
X161299999Y-77628571D01*
X161252380Y-77533333D01*
X161157142Y-77485714D01*
X161014285Y-77485714D01*
X160919047Y-77533333D01*
X160585714Y-77485714D02*
X160204761Y-77485714D01*
X160442857Y-77152380D02*
X160442857Y-78009523D01*
X160395238Y-78104761D01*
X160299999Y-78152380D01*
X160204761Y-78152380D01*
X159490476Y-78104761D02*
X159585714Y-78152380D01*
X159776190Y-78152380D01*
X159871428Y-78104761D01*
X159919047Y-78009523D01*
X159919047Y-77628571D01*
X159871428Y-77533333D01*
X159776190Y-77485714D01*
X159585714Y-77485714D01*
X159490476Y-77533333D01*
X159442857Y-77628571D01*
X159442857Y-77723809D01*
X159919047Y-77819047D01*
X158633333Y-78104761D02*
X158728571Y-78152380D01*
X158919047Y-78152380D01*
X159014285Y-78104761D01*
X159061904Y-78009523D01*
X159061904Y-77628571D01*
X159014285Y-77533333D01*
X158919047Y-77485714D01*
X158728571Y-77485714D01*
X158633333Y-77533333D01*
X158585714Y-77628571D01*
X158585714Y-77723809D01*
X159061904Y-77819047D01*
X157776190Y-78104761D02*
X157871428Y-78152380D01*
X158061904Y-78152380D01*
X158157142Y-78104761D01*
X158204761Y-78009523D01*
X158204761Y-77628571D01*
X158157142Y-77533333D01*
X158061904Y-77485714D01*
X157871428Y-77485714D01*
X157776190Y-77533333D01*
X157728571Y-77628571D01*
X157728571Y-77723809D01*
X158204761Y-77819047D01*
D11*
X165524366Y-77662399D02*
X165571985Y-77614780D01*
X165667223Y-77567161D01*
X165762461Y-77567161D01*
X165857699Y-77614780D01*
X165905318Y-77662399D01*
X165952937Y-77757637D01*
X165952937Y-77852875D01*
X165905318Y-77948113D01*
X165857699Y-77995732D01*
X165762461Y-78043351D01*
X165667223Y-78043351D01*
X165571985Y-77995732D01*
X165524366Y-77948113D01*
X165524366Y-77567161D02*
X165524366Y-77948113D01*
X165476747Y-77995732D01*
X165429128Y-77995732D01*
X165333890Y-77948113D01*
X165286271Y-77852875D01*
X165286271Y-77614780D01*
X165381509Y-77471923D01*
X165524366Y-77376685D01*
X165714842Y-77329066D01*
X165905318Y-77376685D01*
X166048175Y-77471923D01*
X166143413Y-77614780D01*
X166191032Y-77805256D01*
X166143413Y-77995732D01*
X166048175Y-78138589D01*
X165905318Y-78233828D01*
X165714842Y-78281447D01*
X165524366Y-78233828D01*
X165381509Y-78138589D01*
D10*
X164045572Y-76045064D02*
X164045572Y-76854588D01*
X164093191Y-76949826D01*
X164140810Y-76997445D01*
X164236048Y-77045064D01*
X164378905Y-77045064D01*
X164474143Y-76997445D01*
X164045572Y-76664111D02*
X164140810Y-76711730D01*
X164331286Y-76711730D01*
X164426524Y-76664111D01*
X164474143Y-76616492D01*
X164521762Y-76521254D01*
X164521762Y-76235540D01*
X164474143Y-76140302D01*
X164426524Y-76092683D01*
X164331286Y-76045064D01*
X164140810Y-76045064D01*
X164045572Y-76092683D01*
X163426524Y-76711730D02*
X163521762Y-76664111D01*
X163569381Y-76568873D01*
X163569381Y-75711730D01*
X162617000Y-76045064D02*
X162617000Y-76711730D01*
X163045572Y-76045064D02*
X163045572Y-76568873D01*
X162997953Y-76664111D01*
X162902715Y-76711730D01*
X162759858Y-76711730D01*
X162664620Y-76664111D01*
X162617000Y-76616492D01*
X161997953Y-76711730D02*
X162093191Y-76664111D01*
X162140810Y-76616492D01*
X162188429Y-76521254D01*
X162188429Y-76235540D01*
X162140810Y-76140302D01*
X162093191Y-76092683D01*
X161997953Y-76045064D01*
X161855096Y-76045064D01*
X161759858Y-76092683D01*
X161712239Y-76140302D01*
X161664620Y-76235540D01*
X161664620Y-76521254D01*
X161712239Y-76616492D01*
X161759858Y-76664111D01*
X161855096Y-76711730D01*
X161997953Y-76711730D01*
X161236048Y-76045064D02*
X161236048Y-76711730D01*
X161236048Y-76140302D02*
X161188429Y-76092683D01*
X161093191Y-76045064D01*
X160950334Y-76045064D01*
X160855096Y-76092683D01*
X160807477Y-76187921D01*
X160807477Y-76711730D01*
X160378905Y-76664111D02*
X160283667Y-76711730D01*
X160093191Y-76711730D01*
X159997953Y-76664111D01*
X159950334Y-76568873D01*
X159950334Y-76521254D01*
X159997953Y-76426016D01*
X160093191Y-76378397D01*
X160236048Y-76378397D01*
X160331286Y-76330778D01*
X160378905Y-76235540D01*
X160378905Y-76187921D01*
X160331286Y-76092683D01*
X160236048Y-76045064D01*
X160093191Y-76045064D01*
X159997953Y-76092683D01*
X159521762Y-76711730D02*
X159521762Y-76045064D01*
X159521762Y-76140302D02*
X159474143Y-76092683D01*
X159378905Y-76045064D01*
X159236048Y-76045064D01*
X159140810Y-76092683D01*
X159093191Y-76187921D01*
X159093191Y-76711730D01*
X159093191Y-76187921D02*
X159045572Y-76092683D01*
X158950334Y-76045064D01*
X158807477Y-76045064D01*
X158712239Y-76092683D01*
X158664620Y-76187921D01*
X158664620Y-76711730D01*
X158283667Y-76711730D02*
X157759858Y-76045064D01*
X158283667Y-76045064D02*
X157759858Y-76711730D01*
D11*
X165185714Y-76276190D02*
X165233333Y-76228571D01*
X165328571Y-76180952D01*
X165423809Y-76180952D01*
X165519047Y-76228571D01*
X165566666Y-76276190D01*
X165614285Y-76371428D01*
X165614285Y-76466666D01*
X165566666Y-76561904D01*
X165519047Y-76609523D01*
X165423809Y-76657142D01*
X165328571Y-76657142D01*
X165233333Y-76609523D01*
X165185714Y-76561904D01*
X165185714Y-76180952D02*
X165185714Y-76561904D01*
X165138095Y-76609523D01*
X165090476Y-76609523D01*
X164995238Y-76561904D01*
X164947619Y-76466666D01*
X164947619Y-76228571D01*
X165042857Y-76085714D01*
X165185714Y-75990476D01*
X165376190Y-75942857D01*
X165566666Y-75990476D01*
X165709523Y-76085714D01*
X165804761Y-76228571D01*
X165852380Y-76419047D01*
X165804761Y-76609523D01*
X165709523Y-76752380D01*
X165566666Y-76847619D01*
X165376190Y-76895238D01*
X165185714Y-76847619D01*
X165042857Y-76752380D01*
%TO.C,Ref\u002A\u002A*%
G36*
X141827619Y-80013208D02*
G01*
X141853359Y-80046655D01*
X141889466Y-80100572D01*
X141937470Y-80177447D01*
X141998902Y-80279765D01*
X142075290Y-80410015D01*
X142168163Y-80570682D01*
X142279053Y-80764255D01*
X142361855Y-80909497D01*
X142896747Y-81849072D01*
X143926035Y-82099431D01*
X144128469Y-82148800D01*
X144318680Y-82195439D01*
X144492650Y-82238345D01*
X144646358Y-82276515D01*
X144775786Y-82308945D01*
X144876913Y-82334633D01*
X144945721Y-82352576D01*
X144978190Y-82361769D01*
X144979951Y-82362461D01*
X144971395Y-82380454D01*
X144935870Y-82427287D01*
X144875241Y-82500802D01*
X144791375Y-82598842D01*
X144686135Y-82719251D01*
X144561388Y-82859872D01*
X144418998Y-83018548D01*
X144276159Y-83176270D01*
X144135061Y-83331599D01*
X144002968Y-83477291D01*
X143882551Y-83610382D01*
X143776480Y-83727909D01*
X143687425Y-83826906D01*
X143618056Y-83904409D01*
X143571043Y-83957454D01*
X143549057Y-83983077D01*
X143547740Y-83984982D01*
X143549269Y-84006966D01*
X143553653Y-84066998D01*
X143560580Y-84160910D01*
X143569742Y-84284535D01*
X143580829Y-84433704D01*
X143593533Y-84604252D01*
X143607543Y-84792009D01*
X143621818Y-84983010D01*
X143640487Y-85233545D01*
X143656054Y-85445114D01*
X143668682Y-85620959D01*
X143678536Y-85764323D01*
X143685780Y-85878445D01*
X143690579Y-85966570D01*
X143693096Y-86031937D01*
X143693496Y-86077788D01*
X143691944Y-86107366D01*
X143688603Y-86123912D01*
X143683639Y-86130667D01*
X143680031Y-86131374D01*
X143658180Y-86122712D01*
X143601552Y-86098184D01*
X143513895Y-86059468D01*
X143398960Y-86008240D01*
X143260497Y-85946177D01*
X143102254Y-85874958D01*
X142927982Y-85796258D01*
X142741430Y-85711755D01*
X142711656Y-85698246D01*
X142522942Y-85612867D01*
X142345383Y-85533054D01*
X142182809Y-85460491D01*
X142039048Y-85396862D01*
X141917929Y-85343852D01*
X141823281Y-85303146D01*
X141758932Y-85276428D01*
X141728712Y-85265383D01*
X141727406Y-85265183D01*
X141702097Y-85272846D01*
X141641512Y-85295128D01*
X141549511Y-85330504D01*
X141429950Y-85377444D01*
X141286689Y-85434423D01*
X141123585Y-85499911D01*
X140944495Y-85572383D01*
X140753279Y-85650311D01*
X140713285Y-85666676D01*
X140520969Y-85745161D01*
X140340724Y-85818203D01*
X140176296Y-85884322D01*
X140031432Y-85942036D01*
X139909878Y-85989862D01*
X139815379Y-86026318D01*
X139751684Y-86049923D01*
X139722536Y-86059195D01*
X139721125Y-86059156D01*
X139721763Y-86037322D01*
X139726563Y-85978326D01*
X139735003Y-85887079D01*
X139746561Y-85768493D01*
X139760717Y-85627480D01*
X139776949Y-85468950D01*
X139794735Y-85297815D01*
X139813555Y-85118986D01*
X139832887Y-84937376D01*
X139852210Y-84757895D01*
X139871002Y-84585456D01*
X139888743Y-84424968D01*
X139904910Y-84281345D01*
X139918983Y-84159497D01*
X139930440Y-84064336D01*
X139938759Y-84000772D01*
X139941522Y-83982713D01*
X139942379Y-83966260D01*
X139938123Y-83946586D01*
X139926588Y-83920889D01*
X139905607Y-83886361D01*
X139873015Y-83840200D01*
X139826645Y-83779600D01*
X139764331Y-83701756D01*
X139683906Y-83603864D01*
X139583205Y-83483119D01*
X139460061Y-83336716D01*
X139312309Y-83161850D01*
X139257764Y-83097401D01*
X139122510Y-82937474D01*
X138995743Y-82787285D01*
X138880062Y-82649937D01*
X138778070Y-82528529D01*
X138692364Y-82426164D01*
X138625545Y-82345941D01*
X138580213Y-82290963D01*
X138558968Y-82264330D01*
X138557700Y-82262404D01*
X138576721Y-82255464D01*
X138633304Y-82240999D01*
X138723516Y-82219877D01*
X138843427Y-82192963D01*
X138989105Y-82161128D01*
X139156619Y-82125238D01*
X139342036Y-82086162D01*
X139541426Y-82044767D01*
X139573700Y-82038123D01*
X139776873Y-81996218D01*
X139968318Y-81956487D01*
X140143855Y-81919816D01*
X140299303Y-81887090D01*
X140430481Y-81859192D01*
X140533208Y-81837009D01*
X140603302Y-81821425D01*
X140636583Y-81813324D01*
X140637866Y-81812911D01*
X140659363Y-81791125D01*
X140701303Y-81734649D01*
X140762555Y-81645213D01*
X140841983Y-81524550D01*
X140938455Y-81374390D01*
X141050836Y-81196465D01*
X141177994Y-80992505D01*
X141228016Y-80911670D01*
X141336920Y-80735631D01*
X141439649Y-80570106D01*
X141533954Y-80418684D01*
X141617585Y-80284952D01*
X141688290Y-80172499D01*
X141743820Y-80084912D01*
X141781926Y-80025779D01*
X141800356Y-79998689D01*
X141801126Y-79997776D01*
X141810718Y-79997744D01*
X141827619Y-80013208D01*
G37*
D12*
X141827619Y-80013208D02*
X141853359Y-80046655D01*
X141889466Y-80100572D01*
X141937470Y-80177447D01*
X141998902Y-80279765D01*
X142075290Y-80410015D01*
X142168163Y-80570682D01*
X142279053Y-80764255D01*
X142361855Y-80909497D01*
X142896747Y-81849072D01*
X143926035Y-82099431D01*
X144128469Y-82148800D01*
X144318680Y-82195439D01*
X144492650Y-82238345D01*
X144646358Y-82276515D01*
X144775786Y-82308945D01*
X144876913Y-82334633D01*
X144945721Y-82352576D01*
X144978190Y-82361769D01*
X144979951Y-82362461D01*
X144971395Y-82380454D01*
X144935870Y-82427287D01*
X144875241Y-82500802D01*
X144791375Y-82598842D01*
X144686135Y-82719251D01*
X144561388Y-82859872D01*
X144418998Y-83018548D01*
X144276159Y-83176270D01*
X144135061Y-83331599D01*
X144002968Y-83477291D01*
X143882551Y-83610382D01*
X143776480Y-83727909D01*
X143687425Y-83826906D01*
X143618056Y-83904409D01*
X143571043Y-83957454D01*
X143549057Y-83983077D01*
X143547740Y-83984982D01*
X143549269Y-84006966D01*
X143553653Y-84066998D01*
X143560580Y-84160910D01*
X143569742Y-84284535D01*
X143580829Y-84433704D01*
X143593533Y-84604252D01*
X143607543Y-84792009D01*
X143621818Y-84983010D01*
X143640487Y-85233545D01*
X143656054Y-85445114D01*
X143668682Y-85620959D01*
X143678536Y-85764323D01*
X143685780Y-85878445D01*
X143690579Y-85966570D01*
X143693096Y-86031937D01*
X143693496Y-86077788D01*
X143691944Y-86107366D01*
X143688603Y-86123912D01*
X143683639Y-86130667D01*
X143680031Y-86131374D01*
X143658180Y-86122712D01*
X143601552Y-86098184D01*
X143513895Y-86059468D01*
X143398960Y-86008240D01*
X143260497Y-85946177D01*
X143102254Y-85874958D01*
X142927982Y-85796258D01*
X142741430Y-85711755D01*
X142711656Y-85698246D01*
X142522942Y-85612867D01*
X142345383Y-85533054D01*
X142182809Y-85460491D01*
X142039048Y-85396862D01*
X141917929Y-85343852D01*
X141823281Y-85303146D01*
X141758932Y-85276428D01*
X141728712Y-85265383D01*
X141727406Y-85265183D01*
X141702097Y-85272846D01*
X141641512Y-85295128D01*
X141549511Y-85330504D01*
X141429950Y-85377444D01*
X141286689Y-85434423D01*
X141123585Y-85499911D01*
X140944495Y-85572383D01*
X140753279Y-85650311D01*
X140713285Y-85666676D01*
X140520969Y-85745161D01*
X140340724Y-85818203D01*
X140176296Y-85884322D01*
X140031432Y-85942036D01*
X139909878Y-85989862D01*
X139815379Y-86026318D01*
X139751684Y-86049923D01*
X139722536Y-86059195D01*
X139721125Y-86059156D01*
X139721763Y-86037322D01*
X139726563Y-85978326D01*
X139735003Y-85887079D01*
X139746561Y-85768493D01*
X139760717Y-85627480D01*
X139776949Y-85468950D01*
X139794735Y-85297815D01*
X139813555Y-85118986D01*
X139832887Y-84937376D01*
X139852210Y-84757895D01*
X139871002Y-84585456D01*
X139888743Y-84424968D01*
X139904910Y-84281345D01*
X139918983Y-84159497D01*
X139930440Y-84064336D01*
X139938759Y-84000772D01*
X139941522Y-83982713D01*
X139942379Y-83966260D01*
X139938123Y-83946586D01*
X139926588Y-83920889D01*
X139905607Y-83886361D01*
X139873015Y-83840200D01*
X139826645Y-83779600D01*
X139764331Y-83701756D01*
X139683906Y-83603864D01*
X139583205Y-83483119D01*
X139460061Y-83336716D01*
X139312309Y-83161850D01*
X139257764Y-83097401D01*
X139122510Y-82937474D01*
X138995743Y-82787285D01*
X138880062Y-82649937D01*
X138778070Y-82528529D01*
X138692364Y-82426164D01*
X138625545Y-82345941D01*
X138580213Y-82290963D01*
X138558968Y-82264330D01*
X138557700Y-82262404D01*
X138576721Y-82255464D01*
X138633304Y-82240999D01*
X138723516Y-82219877D01*
X138843427Y-82192963D01*
X138989105Y-82161128D01*
X139156619Y-82125238D01*
X139342036Y-82086162D01*
X139541426Y-82044767D01*
X139573700Y-82038123D01*
X139776873Y-81996218D01*
X139968318Y-81956487D01*
X140143855Y-81919816D01*
X140299303Y-81887090D01*
X140430481Y-81859192D01*
X140533208Y-81837009D01*
X140603302Y-81821425D01*
X140636583Y-81813324D01*
X140637866Y-81812911D01*
X140659363Y-81791125D01*
X140701303Y-81734649D01*
X140762555Y-81645213D01*
X140841983Y-81524550D01*
X140938455Y-81374390D01*
X141050836Y-81196465D01*
X141177994Y-80992505D01*
X141228016Y-80911670D01*
X141336920Y-80735631D01*
X141439649Y-80570106D01*
X141533954Y-80418684D01*
X141617585Y-80284952D01*
X141688290Y-80172499D01*
X141743820Y-80084912D01*
X141781926Y-80025779D01*
X141800356Y-79998689D01*
X141801126Y-79997776D01*
X141810718Y-79997744D01*
X141827619Y-80013208D01*
G36*
X137363826Y-111999420D02*
G01*
X137401623Y-112046680D01*
X137456831Y-112118217D01*
X137525656Y-112209088D01*
X137604304Y-112314349D01*
X137644255Y-112368299D01*
X137830370Y-112618844D01*
X138022096Y-112874144D01*
X138215953Y-113129717D01*
X138408461Y-113381079D01*
X138596141Y-113623749D01*
X138775513Y-113853244D01*
X138943097Y-114065081D01*
X139095415Y-114254777D01*
X139228987Y-114417851D01*
X139311981Y-114516716D01*
X139465121Y-114696632D01*
X139384472Y-114767257D01*
X139270782Y-114861631D01*
X139141916Y-114960007D01*
X139005573Y-115057264D01*
X138869453Y-115148277D01*
X138741257Y-115227926D01*
X138628682Y-115291088D01*
X138539431Y-115332640D01*
X138528488Y-115336707D01*
X138473311Y-115359565D01*
X138441272Y-115379289D01*
X138437675Y-115387277D01*
X138434451Y-115410868D01*
X138420517Y-115469371D01*
X138397387Y-115557167D01*
X138366577Y-115668637D01*
X138329600Y-115798162D01*
X138296019Y-115912954D01*
X138255323Y-116052886D01*
X138219843Y-116179242D01*
X138191047Y-116286431D01*
X138170402Y-116368860D01*
X138159374Y-116420937D01*
X138158525Y-116437057D01*
X138184548Y-116444282D01*
X138242030Y-116451736D01*
X138320122Y-116458119D01*
X138347846Y-116459732D01*
X138495914Y-116458278D01*
X138647748Y-116437517D01*
X138806106Y-116396010D01*
X138973750Y-116332317D01*
X139153438Y-116245000D01*
X139347932Y-116132621D01*
X139559991Y-115993740D01*
X139792374Y-115826920D01*
X140047843Y-115630721D01*
X140250969Y-115467736D01*
X140274614Y-115445324D01*
X140276809Y-115424118D01*
X140255169Y-115391099D01*
X140231706Y-115362541D01*
X140171656Y-115290576D01*
X140245740Y-115335060D01*
X140443694Y-115448870D01*
X140676970Y-115574206D01*
X140940845Y-115708867D01*
X141230594Y-115850652D01*
X141541494Y-115997359D01*
X141868821Y-116146785D01*
X142207851Y-116296731D01*
X142553861Y-116444994D01*
X142902127Y-116589373D01*
X143156156Y-116691482D01*
X143260886Y-116733513D01*
X143351683Y-116770931D01*
X143421208Y-116800635D01*
X143462124Y-116819526D01*
X143469419Y-116823818D01*
X143460890Y-116841839D01*
X143419365Y-116877874D01*
X143348886Y-116929433D01*
X143253493Y-116994029D01*
X143137229Y-117069173D01*
X143004136Y-117152376D01*
X142858253Y-117241150D01*
X142703624Y-117333006D01*
X142544290Y-117425456D01*
X142384292Y-117516010D01*
X142227671Y-117602182D01*
X142078470Y-117681481D01*
X142066073Y-117687921D01*
X141529079Y-117951092D01*
X141004048Y-118177687D01*
X140492055Y-118367354D01*
X139994178Y-118519740D01*
X139511490Y-118634492D01*
X139045068Y-118711258D01*
X138894122Y-118728272D01*
X138726927Y-118740335D01*
X138538636Y-118746373D01*
X138342588Y-118746519D01*
X138152123Y-118740909D01*
X137980580Y-118729675D01*
X137875073Y-118718016D01*
X137493486Y-118646176D01*
X137134902Y-118538814D01*
X136799220Y-118395883D01*
X136486341Y-118217336D01*
X136196163Y-118003123D01*
X135993149Y-117818814D01*
X135763684Y-117566184D01*
X135574350Y-117301145D01*
X135424406Y-117022304D01*
X135313108Y-116728268D01*
X135239713Y-116417644D01*
X135236874Y-116400734D01*
X135218955Y-116239115D01*
X135212163Y-116050602D01*
X135216053Y-115849021D01*
X135230181Y-115648200D01*
X135254103Y-115461965D01*
X135269745Y-115377932D01*
X135370497Y-114992827D01*
X135512182Y-114599175D01*
X135694434Y-114197712D01*
X135916885Y-113789177D01*
X136179166Y-113374309D01*
X136471850Y-112965791D01*
X136557450Y-112855437D01*
X136653163Y-112736593D01*
X136755226Y-112613491D01*
X136859878Y-112490362D01*
X136963355Y-112371436D01*
X137061896Y-112260943D01*
X137151738Y-112163116D01*
X137229119Y-112082185D01*
X137290277Y-112022381D01*
X137331449Y-111987935D01*
X137347236Y-111981379D01*
X137363826Y-111999420D01*
G37*
X137363826Y-111999420D02*
X137401623Y-112046680D01*
X137456831Y-112118217D01*
X137525656Y-112209088D01*
X137604304Y-112314349D01*
X137644255Y-112368299D01*
X137830370Y-112618844D01*
X138022096Y-112874144D01*
X138215953Y-113129717D01*
X138408461Y-113381079D01*
X138596141Y-113623749D01*
X138775513Y-113853244D01*
X138943097Y-114065081D01*
X139095415Y-114254777D01*
X139228987Y-114417851D01*
X139311981Y-114516716D01*
X139465121Y-114696632D01*
X139384472Y-114767257D01*
X139270782Y-114861631D01*
X139141916Y-114960007D01*
X139005573Y-115057264D01*
X138869453Y-115148277D01*
X138741257Y-115227926D01*
X138628682Y-115291088D01*
X138539431Y-115332640D01*
X138528488Y-115336707D01*
X138473311Y-115359565D01*
X138441272Y-115379289D01*
X138437675Y-115387277D01*
X138434451Y-115410868D01*
X138420517Y-115469371D01*
X138397387Y-115557167D01*
X138366577Y-115668637D01*
X138329600Y-115798162D01*
X138296019Y-115912954D01*
X138255323Y-116052886D01*
X138219843Y-116179242D01*
X138191047Y-116286431D01*
X138170402Y-116368860D01*
X138159374Y-116420937D01*
X138158525Y-116437057D01*
X138184548Y-116444282D01*
X138242030Y-116451736D01*
X138320122Y-116458119D01*
X138347846Y-116459732D01*
X138495914Y-116458278D01*
X138647748Y-116437517D01*
X138806106Y-116396010D01*
X138973750Y-116332317D01*
X139153438Y-116245000D01*
X139347932Y-116132621D01*
X139559991Y-115993740D01*
X139792374Y-115826920D01*
X140047843Y-115630721D01*
X140250969Y-115467736D01*
X140274614Y-115445324D01*
X140276809Y-115424118D01*
X140255169Y-115391099D01*
X140231706Y-115362541D01*
X140171656Y-115290576D01*
X140245740Y-115335060D01*
X140443694Y-115448870D01*
X140676970Y-115574206D01*
X140940845Y-115708867D01*
X141230594Y-115850652D01*
X141541494Y-115997359D01*
X141868821Y-116146785D01*
X142207851Y-116296731D01*
X142553861Y-116444994D01*
X142902127Y-116589373D01*
X143156156Y-116691482D01*
X143260886Y-116733513D01*
X143351683Y-116770931D01*
X143421208Y-116800635D01*
X143462124Y-116819526D01*
X143469419Y-116823818D01*
X143460890Y-116841839D01*
X143419365Y-116877874D01*
X143348886Y-116929433D01*
X143253493Y-116994029D01*
X143137229Y-117069173D01*
X143004136Y-117152376D01*
X142858253Y-117241150D01*
X142703624Y-117333006D01*
X142544290Y-117425456D01*
X142384292Y-117516010D01*
X142227671Y-117602182D01*
X142078470Y-117681481D01*
X142066073Y-117687921D01*
X141529079Y-117951092D01*
X141004048Y-118177687D01*
X140492055Y-118367354D01*
X139994178Y-118519740D01*
X139511490Y-118634492D01*
X139045068Y-118711258D01*
X138894122Y-118728272D01*
X138726927Y-118740335D01*
X138538636Y-118746373D01*
X138342588Y-118746519D01*
X138152123Y-118740909D01*
X137980580Y-118729675D01*
X137875073Y-118718016D01*
X137493486Y-118646176D01*
X137134902Y-118538814D01*
X136799220Y-118395883D01*
X136486341Y-118217336D01*
X136196163Y-118003123D01*
X135993149Y-117818814D01*
X135763684Y-117566184D01*
X135574350Y-117301145D01*
X135424406Y-117022304D01*
X135313108Y-116728268D01*
X135239713Y-116417644D01*
X135236874Y-116400734D01*
X135218955Y-116239115D01*
X135212163Y-116050602D01*
X135216053Y-115849021D01*
X135230181Y-115648200D01*
X135254103Y-115461965D01*
X135269745Y-115377932D01*
X135370497Y-114992827D01*
X135512182Y-114599175D01*
X135694434Y-114197712D01*
X135916885Y-113789177D01*
X136179166Y-113374309D01*
X136471850Y-112965791D01*
X136557450Y-112855437D01*
X136653163Y-112736593D01*
X136755226Y-112613491D01*
X136859878Y-112490362D01*
X136963355Y-112371436D01*
X137061896Y-112260943D01*
X137151738Y-112163116D01*
X137229119Y-112082185D01*
X137290277Y-112022381D01*
X137331449Y-111987935D01*
X137347236Y-111981379D01*
X137363826Y-111999420D01*
G36*
X118218532Y-77967261D02*
G01*
X118693074Y-77966765D01*
X119156606Y-77966209D01*
X119607341Y-77965598D01*
X120043490Y-77964935D01*
X120463265Y-77964227D01*
X120864876Y-77963478D01*
X121246535Y-77962693D01*
X121606454Y-77961877D01*
X121942844Y-77961034D01*
X122253916Y-77960169D01*
X122537882Y-77959288D01*
X122792954Y-77958395D01*
X123017343Y-77957495D01*
X123209259Y-77956592D01*
X123366916Y-77955692D01*
X123488523Y-77954800D01*
X123572293Y-77953920D01*
X123616437Y-77953057D01*
X123623125Y-77952622D01*
X123618972Y-77932381D01*
X123594263Y-77878107D01*
X123550219Y-77792071D01*
X123488062Y-77676542D01*
X123409012Y-77533790D01*
X123314291Y-77366085D01*
X123205120Y-77175696D01*
X123204522Y-77174660D01*
X122760951Y-76406132D01*
X126036230Y-76400773D01*
X126488026Y-76400096D01*
X126899177Y-76399619D01*
X127271368Y-76399353D01*
X127606288Y-76399309D01*
X127905623Y-76399496D01*
X128171061Y-76399927D01*
X128404289Y-76400613D01*
X128606993Y-76401563D01*
X128780861Y-76402788D01*
X128927579Y-76404300D01*
X129048836Y-76406110D01*
X129146318Y-76408228D01*
X129221712Y-76410665D01*
X129276706Y-76413431D01*
X129312985Y-76416538D01*
X129332238Y-76419997D01*
X129336083Y-76421940D01*
X129350663Y-76444475D01*
X129384471Y-76500579D01*
X129435669Y-76587100D01*
X129502419Y-76700889D01*
X129582885Y-76838793D01*
X129675229Y-76997661D01*
X129777613Y-77174343D01*
X129888200Y-77365687D01*
X130005152Y-77568542D01*
X130042716Y-77633799D01*
X130162252Y-77841390D01*
X130276698Y-78039859D01*
X130384119Y-78225869D01*
X130482581Y-78396083D01*
X130570149Y-78547164D01*
X130644888Y-78675775D01*
X130704865Y-78778581D01*
X130748143Y-78852243D01*
X130772789Y-78893426D01*
X130775975Y-78898507D01*
X130827173Y-78977882D01*
X149585831Y-78978069D01*
X168344490Y-78978257D01*
X170730060Y-83110861D01*
X173115630Y-87243466D01*
X170755068Y-87264632D01*
X171698195Y-88896276D01*
X171867007Y-89187439D01*
X172041568Y-89486857D01*
X172219705Y-89790890D01*
X172399245Y-90095898D01*
X172578013Y-90398241D01*
X172753837Y-90694280D01*
X172924542Y-90980374D01*
X173087955Y-91252884D01*
X173241902Y-91508170D01*
X173384211Y-91742592D01*
X173512706Y-91952511D01*
X173625215Y-92134287D01*
X173719565Y-92284280D01*
X173747999Y-92328757D01*
X173778608Y-92376382D01*
X166856594Y-92376382D01*
X165452125Y-89942507D01*
X164047656Y-87508631D01*
X159353948Y-87508340D01*
X158911357Y-87508362D01*
X158480077Y-87508479D01*
X158062010Y-87508687D01*
X157659059Y-87508983D01*
X157273128Y-87509361D01*
X156906120Y-87509818D01*
X156559937Y-87510348D01*
X156236482Y-87510948D01*
X155937658Y-87511613D01*
X155665369Y-87512340D01*
X155421518Y-87513122D01*
X155208007Y-87513957D01*
X155026739Y-87514840D01*
X154879618Y-87515766D01*
X154768546Y-87516731D01*
X154695426Y-87517731D01*
X154662162Y-87518761D01*
X154660240Y-87519078D01*
X154670625Y-87538414D01*
X154700954Y-87592245D01*
X154749987Y-87678415D01*
X154816485Y-87794768D01*
X154899209Y-87939147D01*
X154996920Y-88109395D01*
X155108377Y-88303356D01*
X155232341Y-88518874D01*
X155367574Y-88753792D01*
X155512834Y-89005952D01*
X155666885Y-89273200D01*
X155828484Y-89553378D01*
X155996394Y-89844330D01*
X156046656Y-89931391D01*
X156216183Y-90225097D01*
X156379764Y-90508666D01*
X156536157Y-90779940D01*
X156684125Y-91036762D01*
X156822428Y-91276976D01*
X156949826Y-91498425D01*
X157065080Y-91698951D01*
X157166951Y-91876399D01*
X157254198Y-92028612D01*
X157325583Y-92153431D01*
X157379866Y-92248702D01*
X157415807Y-92312267D01*
X157432168Y-92341969D01*
X157433073Y-92343945D01*
X157412067Y-92344488D01*
X157349697Y-92345026D01*
X157246928Y-92345556D01*
X157104730Y-92346078D01*
X156924070Y-92346592D01*
X156705916Y-92347098D01*
X156451236Y-92347594D01*
X156160998Y-92348080D01*
X155836169Y-92348555D01*
X155477718Y-92349019D01*
X155086612Y-92349471D01*
X154663819Y-92349911D01*
X154210308Y-92350337D01*
X153727045Y-92350750D01*
X153215000Y-92351149D01*
X152675139Y-92351533D01*
X152108430Y-92351901D01*
X151515842Y-92352254D01*
X150898343Y-92352589D01*
X150256899Y-92352908D01*
X149592480Y-92353208D01*
X148906052Y-92353490D01*
X148198585Y-92353753D01*
X147471045Y-92353997D01*
X146724400Y-92354220D01*
X145959619Y-92354422D01*
X145177670Y-92354602D01*
X144379519Y-92354761D01*
X143566135Y-92354897D01*
X142738487Y-92355010D01*
X141897541Y-92355098D01*
X141044265Y-92355163D01*
X140179629Y-92355202D01*
X139304598Y-92355215D01*
X139287909Y-92355216D01*
X121142745Y-92355216D01*
X116990826Y-85163841D01*
X113148669Y-78508990D01*
X113787406Y-78508990D01*
X113797870Y-78528442D01*
X113828765Y-78583256D01*
X113879346Y-78672137D01*
X113948867Y-78793790D01*
X114036583Y-78946923D01*
X114141749Y-79130239D01*
X114263619Y-79342444D01*
X114401448Y-79582245D01*
X114554491Y-79848346D01*
X114722002Y-80139454D01*
X114903236Y-80454273D01*
X115097448Y-80791510D01*
X115303892Y-81149869D01*
X115521823Y-81528057D01*
X115750496Y-81924779D01*
X115989166Y-82338741D01*
X116237086Y-82768648D01*
X116493512Y-83213205D01*
X116757698Y-83671119D01*
X117028899Y-84141094D01*
X117306370Y-84621837D01*
X117589365Y-85112053D01*
X117617403Y-85160615D01*
X121447399Y-91794299D01*
X138973479Y-91799603D01*
X156499558Y-91804908D01*
X156227778Y-91333937D01*
X156179009Y-91249433D01*
X156110928Y-91131479D01*
X156025390Y-90983289D01*
X155924249Y-90808073D01*
X155809359Y-90609046D01*
X155682576Y-90389419D01*
X155545753Y-90152405D01*
X155400744Y-89901215D01*
X155249406Y-89639064D01*
X155093591Y-89369162D01*
X154935154Y-89094723D01*
X154831762Y-88915632D01*
X153707526Y-86968299D01*
X159024960Y-86962966D01*
X159605432Y-86962421D01*
X160144895Y-86961996D01*
X160644677Y-86961696D01*
X161106101Y-86961528D01*
X161530493Y-86961495D01*
X161919179Y-86961603D01*
X162273484Y-86961857D01*
X162594733Y-86962263D01*
X162884251Y-86962826D01*
X163143365Y-86963552D01*
X163373399Y-86964444D01*
X163575678Y-86965509D01*
X163751529Y-86966752D01*
X163902275Y-86968179D01*
X164029244Y-86969793D01*
X164133760Y-86971601D01*
X164217147Y-86973608D01*
X164280733Y-86975820D01*
X164325842Y-86978240D01*
X164353799Y-86980875D01*
X164365930Y-86983731D01*
X164366426Y-86984132D01*
X164379770Y-87005422D01*
X164412955Y-87061217D01*
X164464714Y-87149330D01*
X164533778Y-87267573D01*
X164618877Y-87413756D01*
X164718745Y-87585693D01*
X164832111Y-87781194D01*
X164957707Y-87998073D01*
X165094265Y-88234140D01*
X165240516Y-88487207D01*
X165395191Y-88755086D01*
X165557021Y-89035589D01*
X165724738Y-89326529D01*
X165762395Y-89391882D01*
X165931198Y-89684806D01*
X166094342Y-89967778D01*
X166250560Y-90238610D01*
X166398587Y-90495114D01*
X166537160Y-90735104D01*
X166665012Y-90956390D01*
X166780878Y-91156787D01*
X166883495Y-91334105D01*
X166971596Y-91486158D01*
X167043917Y-91610758D01*
X167099193Y-91705717D01*
X167136159Y-91768848D01*
X167153550Y-91797962D01*
X167154627Y-91799591D01*
X167165551Y-91803519D01*
X167193193Y-91807066D01*
X167239355Y-91810247D01*
X167305837Y-91813080D01*
X167394442Y-91815581D01*
X167506969Y-91817767D01*
X167645220Y-91819655D01*
X167810995Y-91821262D01*
X168006097Y-91822604D01*
X168232325Y-91823699D01*
X168491480Y-91824563D01*
X168785365Y-91825212D01*
X169115779Y-91825665D01*
X169484524Y-91825937D01*
X169893400Y-91826045D01*
X169989932Y-91826049D01*
X172804942Y-91826049D01*
X172773761Y-91778424D01*
X172703895Y-91669132D01*
X172613928Y-91524052D01*
X172504515Y-91344293D01*
X172376310Y-91130962D01*
X172229969Y-90885169D01*
X172066146Y-90608021D01*
X171885496Y-90300627D01*
X171688673Y-89964094D01*
X171476333Y-89599533D01*
X171249129Y-89208049D01*
X171007718Y-88790753D01*
X170960953Y-88709776D01*
X170807109Y-88443210D01*
X170659338Y-88186970D01*
X170519002Y-87943430D01*
X170387467Y-87714966D01*
X170266095Y-87503954D01*
X170156250Y-87312769D01*
X170059297Y-87143787D01*
X169976600Y-86999383D01*
X169909522Y-86881933D01*
X169859427Y-86793813D01*
X169827680Y-86737398D01*
X169815643Y-86715063D01*
X169815573Y-86714817D01*
X169836105Y-86712751D01*
X169895168Y-86710811D01*
X169988955Y-86709030D01*
X170113664Y-86707447D01*
X170265491Y-86706096D01*
X170440633Y-86705014D01*
X170635284Y-86704237D01*
X170845641Y-86703800D01*
X170990323Y-86703716D01*
X171208854Y-86703438D01*
X171414124Y-86702640D01*
X171602336Y-86701373D01*
X171769694Y-86699688D01*
X171912400Y-86697637D01*
X172026659Y-86695271D01*
X172108674Y-86692641D01*
X172154648Y-86689799D01*
X172163404Y-86687841D01*
X172152806Y-86668199D01*
X172122027Y-86613678D01*
X172072085Y-86526046D01*
X172003996Y-86407068D01*
X171918779Y-86258509D01*
X171817449Y-86082135D01*
X171701025Y-85879714D01*
X171570522Y-85653009D01*
X171426958Y-85403788D01*
X171271350Y-85133817D01*
X171104715Y-84844861D01*
X170928070Y-84538686D01*
X170742432Y-84217058D01*
X170548818Y-83881743D01*
X170348245Y-83534508D01*
X170141730Y-83177117D01*
X170094152Y-83094799D01*
X168026568Y-79517632D01*
X149260753Y-79512329D01*
X130494937Y-79507025D01*
X129756164Y-78226454D01*
X129017390Y-76945882D01*
X126363717Y-76945882D01*
X125960319Y-76945957D01*
X125597401Y-76946196D01*
X125273112Y-76946615D01*
X124985600Y-76947235D01*
X124733013Y-76948073D01*
X124513497Y-76949148D01*
X124325202Y-76950478D01*
X124166274Y-76952083D01*
X124034863Y-76953980D01*
X123929115Y-76956189D01*
X123847178Y-76958727D01*
X123787201Y-76961614D01*
X123747330Y-76964867D01*
X123725715Y-76968506D01*
X123720404Y-76972341D01*
X123732957Y-76995927D01*
X123764415Y-77052092D01*
X123812463Y-77136781D01*
X123874784Y-77245943D01*
X123949064Y-77375523D01*
X124032986Y-77521470D01*
X124124235Y-77679730D01*
X124156585Y-77735741D01*
X124249314Y-77896442D01*
X124335084Y-78045508D01*
X124411652Y-78179011D01*
X124476775Y-78293019D01*
X124528210Y-78383603D01*
X124563715Y-78446833D01*
X124581047Y-78478780D01*
X124582406Y-78481866D01*
X124561535Y-78482674D01*
X124500106Y-78483463D01*
X124399892Y-78484230D01*
X124262669Y-78484972D01*
X124090210Y-78485686D01*
X123884292Y-78486369D01*
X123646688Y-78487018D01*
X123379172Y-78487629D01*
X123083520Y-78488201D01*
X122761507Y-78488729D01*
X122414906Y-78489211D01*
X122045492Y-78489644D01*
X121655040Y-78490024D01*
X121245324Y-78490350D01*
X120818120Y-78490617D01*
X120375202Y-78490822D01*
X119918343Y-78490964D01*
X119449320Y-78491038D01*
X119184906Y-78491049D01*
X118709907Y-78491118D01*
X118246091Y-78491322D01*
X117795231Y-78491656D01*
X117359102Y-78492112D01*
X116939479Y-78492685D01*
X116538136Y-78493369D01*
X116156849Y-78494159D01*
X115797391Y-78495048D01*
X115461537Y-78496031D01*
X115151062Y-78497102D01*
X114867740Y-78498254D01*
X114613347Y-78499482D01*
X114389656Y-78500779D01*
X114198442Y-78502141D01*
X114041480Y-78503561D01*
X113920545Y-78505034D01*
X113837411Y-78506552D01*
X113793852Y-78508111D01*
X113787406Y-78508990D01*
X113148669Y-78508990D01*
X112838908Y-77972466D01*
X118218532Y-77967261D01*
G37*
X118218532Y-77967261D02*
X118693074Y-77966765D01*
X119156606Y-77966209D01*
X119607341Y-77965598D01*
X120043490Y-77964935D01*
X120463265Y-77964227D01*
X120864876Y-77963478D01*
X121246535Y-77962693D01*
X121606454Y-77961877D01*
X121942844Y-77961034D01*
X122253916Y-77960169D01*
X122537882Y-77959288D01*
X122792954Y-77958395D01*
X123017343Y-77957495D01*
X123209259Y-77956592D01*
X123366916Y-77955692D01*
X123488523Y-77954800D01*
X123572293Y-77953920D01*
X123616437Y-77953057D01*
X123623125Y-77952622D01*
X123618972Y-77932381D01*
X123594263Y-77878107D01*
X123550219Y-77792071D01*
X123488062Y-77676542D01*
X123409012Y-77533790D01*
X123314291Y-77366085D01*
X123205120Y-77175696D01*
X123204522Y-77174660D01*
X122760951Y-76406132D01*
X126036230Y-76400773D01*
X126488026Y-76400096D01*
X126899177Y-76399619D01*
X127271368Y-76399353D01*
X127606288Y-76399309D01*
X127905623Y-76399496D01*
X128171061Y-76399927D01*
X128404289Y-76400613D01*
X128606993Y-76401563D01*
X128780861Y-76402788D01*
X128927579Y-76404300D01*
X129048836Y-76406110D01*
X129146318Y-76408228D01*
X129221712Y-76410665D01*
X129276706Y-76413431D01*
X129312985Y-76416538D01*
X129332238Y-76419997D01*
X129336083Y-76421940D01*
X129350663Y-76444475D01*
X129384471Y-76500579D01*
X129435669Y-76587100D01*
X129502419Y-76700889D01*
X129582885Y-76838793D01*
X129675229Y-76997661D01*
X129777613Y-77174343D01*
X129888200Y-77365687D01*
X130005152Y-77568542D01*
X130042716Y-77633799D01*
X130162252Y-77841390D01*
X130276698Y-78039859D01*
X130384119Y-78225869D01*
X130482581Y-78396083D01*
X130570149Y-78547164D01*
X130644888Y-78675775D01*
X130704865Y-78778581D01*
X130748143Y-78852243D01*
X130772789Y-78893426D01*
X130775975Y-78898507D01*
X130827173Y-78977882D01*
X149585831Y-78978069D01*
X168344490Y-78978257D01*
X170730060Y-83110861D01*
X173115630Y-87243466D01*
X170755068Y-87264632D01*
X171698195Y-88896276D01*
X171867007Y-89187439D01*
X172041568Y-89486857D01*
X172219705Y-89790890D01*
X172399245Y-90095898D01*
X172578013Y-90398241D01*
X172753837Y-90694280D01*
X172924542Y-90980374D01*
X173087955Y-91252884D01*
X173241902Y-91508170D01*
X173384211Y-91742592D01*
X173512706Y-91952511D01*
X173625215Y-92134287D01*
X173719565Y-92284280D01*
X173747999Y-92328757D01*
X173778608Y-92376382D01*
X166856594Y-92376382D01*
X165452125Y-89942507D01*
X164047656Y-87508631D01*
X159353948Y-87508340D01*
X158911357Y-87508362D01*
X158480077Y-87508479D01*
X158062010Y-87508687D01*
X157659059Y-87508983D01*
X157273128Y-87509361D01*
X156906120Y-87509818D01*
X156559937Y-87510348D01*
X156236482Y-87510948D01*
X155937658Y-87511613D01*
X155665369Y-87512340D01*
X155421518Y-87513122D01*
X155208007Y-87513957D01*
X155026739Y-87514840D01*
X154879618Y-87515766D01*
X154768546Y-87516731D01*
X154695426Y-87517731D01*
X154662162Y-87518761D01*
X154660240Y-87519078D01*
X154670625Y-87538414D01*
X154700954Y-87592245D01*
X154749987Y-87678415D01*
X154816485Y-87794768D01*
X154899209Y-87939147D01*
X154996920Y-88109395D01*
X155108377Y-88303356D01*
X155232341Y-88518874D01*
X155367574Y-88753792D01*
X155512834Y-89005952D01*
X155666885Y-89273200D01*
X155828484Y-89553378D01*
X155996394Y-89844330D01*
X156046656Y-89931391D01*
X156216183Y-90225097D01*
X156379764Y-90508666D01*
X156536157Y-90779940D01*
X156684125Y-91036762D01*
X156822428Y-91276976D01*
X156949826Y-91498425D01*
X157065080Y-91698951D01*
X157166951Y-91876399D01*
X157254198Y-92028612D01*
X157325583Y-92153431D01*
X157379866Y-92248702D01*
X157415807Y-92312267D01*
X157432168Y-92341969D01*
X157433073Y-92343945D01*
X157412067Y-92344488D01*
X157349697Y-92345026D01*
X157246928Y-92345556D01*
X157104730Y-92346078D01*
X156924070Y-92346592D01*
X156705916Y-92347098D01*
X156451236Y-92347594D01*
X156160998Y-92348080D01*
X155836169Y-92348555D01*
X155477718Y-92349019D01*
X155086612Y-92349471D01*
X154663819Y-92349911D01*
X154210308Y-92350337D01*
X153727045Y-92350750D01*
X153215000Y-92351149D01*
X152675139Y-92351533D01*
X152108430Y-92351901D01*
X151515842Y-92352254D01*
X150898343Y-92352589D01*
X150256899Y-92352908D01*
X149592480Y-92353208D01*
X148906052Y-92353490D01*
X148198585Y-92353753D01*
X147471045Y-92353997D01*
X146724400Y-92354220D01*
X145959619Y-92354422D01*
X145177670Y-92354602D01*
X144379519Y-92354761D01*
X143566135Y-92354897D01*
X142738487Y-92355010D01*
X141897541Y-92355098D01*
X141044265Y-92355163D01*
X140179629Y-92355202D01*
X139304598Y-92355215D01*
X139287909Y-92355216D01*
X121142745Y-92355216D01*
X116990826Y-85163841D01*
X113148669Y-78508990D01*
X113787406Y-78508990D01*
X113797870Y-78528442D01*
X113828765Y-78583256D01*
X113879346Y-78672137D01*
X113948867Y-78793790D01*
X114036583Y-78946923D01*
X114141749Y-79130239D01*
X114263619Y-79342444D01*
X114401448Y-79582245D01*
X114554491Y-79848346D01*
X114722002Y-80139454D01*
X114903236Y-80454273D01*
X115097448Y-80791510D01*
X115303892Y-81149869D01*
X115521823Y-81528057D01*
X115750496Y-81924779D01*
X115989166Y-82338741D01*
X116237086Y-82768648D01*
X116493512Y-83213205D01*
X116757698Y-83671119D01*
X117028899Y-84141094D01*
X117306370Y-84621837D01*
X117589365Y-85112053D01*
X117617403Y-85160615D01*
X121447399Y-91794299D01*
X138973479Y-91799603D01*
X156499558Y-91804908D01*
X156227778Y-91333937D01*
X156179009Y-91249433D01*
X156110928Y-91131479D01*
X156025390Y-90983289D01*
X155924249Y-90808073D01*
X155809359Y-90609046D01*
X155682576Y-90389419D01*
X155545753Y-90152405D01*
X155400744Y-89901215D01*
X155249406Y-89639064D01*
X155093591Y-89369162D01*
X154935154Y-89094723D01*
X154831762Y-88915632D01*
X153707526Y-86968299D01*
X159024960Y-86962966D01*
X159605432Y-86962421D01*
X160144895Y-86961996D01*
X160644677Y-86961696D01*
X161106101Y-86961528D01*
X161530493Y-86961495D01*
X161919179Y-86961603D01*
X162273484Y-86961857D01*
X162594733Y-86962263D01*
X162884251Y-86962826D01*
X163143365Y-86963552D01*
X163373399Y-86964444D01*
X163575678Y-86965509D01*
X163751529Y-86966752D01*
X163902275Y-86968179D01*
X164029244Y-86969793D01*
X164133760Y-86971601D01*
X164217147Y-86973608D01*
X164280733Y-86975820D01*
X164325842Y-86978240D01*
X164353799Y-86980875D01*
X164365930Y-86983731D01*
X164366426Y-86984132D01*
X164379770Y-87005422D01*
X164412955Y-87061217D01*
X164464714Y-87149330D01*
X164533778Y-87267573D01*
X164618877Y-87413756D01*
X164718745Y-87585693D01*
X164832111Y-87781194D01*
X164957707Y-87998073D01*
X165094265Y-88234140D01*
X165240516Y-88487207D01*
X165395191Y-88755086D01*
X165557021Y-89035589D01*
X165724738Y-89326529D01*
X165762395Y-89391882D01*
X165931198Y-89684806D01*
X166094342Y-89967778D01*
X166250560Y-90238610D01*
X166398587Y-90495114D01*
X166537160Y-90735104D01*
X166665012Y-90956390D01*
X166780878Y-91156787D01*
X166883495Y-91334105D01*
X166971596Y-91486158D01*
X167043917Y-91610758D01*
X167099193Y-91705717D01*
X167136159Y-91768848D01*
X167153550Y-91797962D01*
X167154627Y-91799591D01*
X167165551Y-91803519D01*
X167193193Y-91807066D01*
X167239355Y-91810247D01*
X167305837Y-91813080D01*
X167394442Y-91815581D01*
X167506969Y-91817767D01*
X167645220Y-91819655D01*
X167810995Y-91821262D01*
X168006097Y-91822604D01*
X168232325Y-91823699D01*
X168491480Y-91824563D01*
X168785365Y-91825212D01*
X169115779Y-91825665D01*
X169484524Y-91825937D01*
X169893400Y-91826045D01*
X169989932Y-91826049D01*
X172804942Y-91826049D01*
X172773761Y-91778424D01*
X172703895Y-91669132D01*
X172613928Y-91524052D01*
X172504515Y-91344293D01*
X172376310Y-91130962D01*
X172229969Y-90885169D01*
X172066146Y-90608021D01*
X171885496Y-90300627D01*
X171688673Y-89964094D01*
X171476333Y-89599533D01*
X171249129Y-89208049D01*
X171007718Y-88790753D01*
X170960953Y-88709776D01*
X170807109Y-88443210D01*
X170659338Y-88186970D01*
X170519002Y-87943430D01*
X170387467Y-87714966D01*
X170266095Y-87503954D01*
X170156250Y-87312769D01*
X170059297Y-87143787D01*
X169976600Y-86999383D01*
X169909522Y-86881933D01*
X169859427Y-86793813D01*
X169827680Y-86737398D01*
X169815643Y-86715063D01*
X169815573Y-86714817D01*
X169836105Y-86712751D01*
X169895168Y-86710811D01*
X169988955Y-86709030D01*
X170113664Y-86707447D01*
X170265491Y-86706096D01*
X170440633Y-86705014D01*
X170635284Y-86704237D01*
X170845641Y-86703800D01*
X170990323Y-86703716D01*
X171208854Y-86703438D01*
X171414124Y-86702640D01*
X171602336Y-86701373D01*
X171769694Y-86699688D01*
X171912400Y-86697637D01*
X172026659Y-86695271D01*
X172108674Y-86692641D01*
X172154648Y-86689799D01*
X172163404Y-86687841D01*
X172152806Y-86668199D01*
X172122027Y-86613678D01*
X172072085Y-86526046D01*
X172003996Y-86407068D01*
X171918779Y-86258509D01*
X171817449Y-86082135D01*
X171701025Y-85879714D01*
X171570522Y-85653009D01*
X171426958Y-85403788D01*
X171271350Y-85133817D01*
X171104715Y-84844861D01*
X170928070Y-84538686D01*
X170742432Y-84217058D01*
X170548818Y-83881743D01*
X170348245Y-83534508D01*
X170141730Y-83177117D01*
X170094152Y-83094799D01*
X168026568Y-79517632D01*
X149260753Y-79512329D01*
X130494937Y-79507025D01*
X129756164Y-78226454D01*
X129017390Y-76945882D01*
X126363717Y-76945882D01*
X125960319Y-76945957D01*
X125597401Y-76946196D01*
X125273112Y-76946615D01*
X124985600Y-76947235D01*
X124733013Y-76948073D01*
X124513497Y-76949148D01*
X124325202Y-76950478D01*
X124166274Y-76952083D01*
X124034863Y-76953980D01*
X123929115Y-76956189D01*
X123847178Y-76958727D01*
X123787201Y-76961614D01*
X123747330Y-76964867D01*
X123725715Y-76968506D01*
X123720404Y-76972341D01*
X123732957Y-76995927D01*
X123764415Y-77052092D01*
X123812463Y-77136781D01*
X123874784Y-77245943D01*
X123949064Y-77375523D01*
X124032986Y-77521470D01*
X124124235Y-77679730D01*
X124156585Y-77735741D01*
X124249314Y-77896442D01*
X124335084Y-78045508D01*
X124411652Y-78179011D01*
X124476775Y-78293019D01*
X124528210Y-78383603D01*
X124563715Y-78446833D01*
X124581047Y-78478780D01*
X124582406Y-78481866D01*
X124561535Y-78482674D01*
X124500106Y-78483463D01*
X124399892Y-78484230D01*
X124262669Y-78484972D01*
X124090210Y-78485686D01*
X123884292Y-78486369D01*
X123646688Y-78487018D01*
X123379172Y-78487629D01*
X123083520Y-78488201D01*
X122761507Y-78488729D01*
X122414906Y-78489211D01*
X122045492Y-78489644D01*
X121655040Y-78490024D01*
X121245324Y-78490350D01*
X120818120Y-78490617D01*
X120375202Y-78490822D01*
X119918343Y-78490964D01*
X119449320Y-78491038D01*
X119184906Y-78491049D01*
X118709907Y-78491118D01*
X118246091Y-78491322D01*
X117795231Y-78491656D01*
X117359102Y-78492112D01*
X116939479Y-78492685D01*
X116538136Y-78493369D01*
X116156849Y-78494159D01*
X115797391Y-78495048D01*
X115461537Y-78496031D01*
X115151062Y-78497102D01*
X114867740Y-78498254D01*
X114613347Y-78499482D01*
X114389656Y-78500779D01*
X114198442Y-78502141D01*
X114041480Y-78503561D01*
X113920545Y-78505034D01*
X113837411Y-78506552D01*
X113793852Y-78508111D01*
X113787406Y-78508990D01*
X113148669Y-78508990D01*
X112838908Y-77972466D01*
X118218532Y-77967261D01*
G36*
X159378351Y-95822928D02*
G01*
X159553228Y-96184520D01*
X159725645Y-96576909D01*
X159891193Y-96988601D01*
X160045462Y-97408105D01*
X160184044Y-97823929D01*
X160302530Y-98224579D01*
X160309516Y-98250132D01*
X160443287Y-98795306D01*
X160542823Y-99320448D01*
X160608161Y-99824999D01*
X160639341Y-100308402D01*
X160636400Y-100770099D01*
X160599377Y-101209531D01*
X160528311Y-101626143D01*
X160423240Y-102019375D01*
X160284204Y-102388670D01*
X160111239Y-102733470D01*
X159985451Y-102936994D01*
X159765098Y-103229911D01*
X159510705Y-103501103D01*
X159225809Y-103748342D01*
X158913945Y-103969403D01*
X158578651Y-104162058D01*
X158223461Y-104324080D01*
X157851913Y-104453242D01*
X157467543Y-104547317D01*
X157411906Y-104557742D01*
X157279803Y-104575910D01*
X157116670Y-104589604D01*
X156933596Y-104598649D01*
X156741664Y-104602869D01*
X156551963Y-104602088D01*
X156375577Y-104596132D01*
X156223592Y-104584825D01*
X156163073Y-104577517D01*
X155723515Y-104496641D01*
X155282285Y-104377954D01*
X154838529Y-104221008D01*
X154391391Y-104025353D01*
X153940015Y-103790541D01*
X153483547Y-103516123D01*
X153021131Y-103201650D01*
X152551912Y-102846674D01*
X152075034Y-102450745D01*
X152023104Y-102405574D01*
X151908511Y-102303008D01*
X151782290Y-102185736D01*
X151647620Y-102057077D01*
X151507680Y-101920348D01*
X151365648Y-101778868D01*
X151224703Y-101635954D01*
X151088026Y-101494926D01*
X150958794Y-101359100D01*
X150840187Y-101231794D01*
X150735384Y-101116328D01*
X150647563Y-101016019D01*
X150579905Y-100934185D01*
X150535588Y-100874143D01*
X150517791Y-100839213D01*
X150517926Y-100834574D01*
X150536581Y-100822146D01*
X150590218Y-100789313D01*
X150677252Y-100737005D01*
X150796101Y-100666153D01*
X150945182Y-100577688D01*
X151122914Y-100472542D01*
X151327712Y-100351644D01*
X151557995Y-100215927D01*
X151812180Y-100066321D01*
X152088683Y-99903757D01*
X152385924Y-99729166D01*
X152702318Y-99543479D01*
X153036283Y-99347627D01*
X153386236Y-99142541D01*
X153750596Y-98929153D01*
X154127778Y-98708392D01*
X154516201Y-98481190D01*
X154914282Y-98248477D01*
X154915606Y-98247704D01*
X159306323Y-95681723D01*
X159378351Y-95822928D01*
G37*
X159378351Y-95822928D02*
X159553228Y-96184520D01*
X159725645Y-96576909D01*
X159891193Y-96988601D01*
X160045462Y-97408105D01*
X160184044Y-97823929D01*
X160302530Y-98224579D01*
X160309516Y-98250132D01*
X160443287Y-98795306D01*
X160542823Y-99320448D01*
X160608161Y-99824999D01*
X160639341Y-100308402D01*
X160636400Y-100770099D01*
X160599377Y-101209531D01*
X160528311Y-101626143D01*
X160423240Y-102019375D01*
X160284204Y-102388670D01*
X160111239Y-102733470D01*
X159985451Y-102936994D01*
X159765098Y-103229911D01*
X159510705Y-103501103D01*
X159225809Y-103748342D01*
X158913945Y-103969403D01*
X158578651Y-104162058D01*
X158223461Y-104324080D01*
X157851913Y-104453242D01*
X157467543Y-104547317D01*
X157411906Y-104557742D01*
X157279803Y-104575910D01*
X157116670Y-104589604D01*
X156933596Y-104598649D01*
X156741664Y-104602869D01*
X156551963Y-104602088D01*
X156375577Y-104596132D01*
X156223592Y-104584825D01*
X156163073Y-104577517D01*
X155723515Y-104496641D01*
X155282285Y-104377954D01*
X154838529Y-104221008D01*
X154391391Y-104025353D01*
X153940015Y-103790541D01*
X153483547Y-103516123D01*
X153021131Y-103201650D01*
X152551912Y-102846674D01*
X152075034Y-102450745D01*
X152023104Y-102405574D01*
X151908511Y-102303008D01*
X151782290Y-102185736D01*
X151647620Y-102057077D01*
X151507680Y-101920348D01*
X151365648Y-101778868D01*
X151224703Y-101635954D01*
X151088026Y-101494926D01*
X150958794Y-101359100D01*
X150840187Y-101231794D01*
X150735384Y-101116328D01*
X150647563Y-101016019D01*
X150579905Y-100934185D01*
X150535588Y-100874143D01*
X150517791Y-100839213D01*
X150517926Y-100834574D01*
X150536581Y-100822146D01*
X150590218Y-100789313D01*
X150677252Y-100737005D01*
X150796101Y-100666153D01*
X150945182Y-100577688D01*
X151122914Y-100472542D01*
X151327712Y-100351644D01*
X151557995Y-100215927D01*
X151812180Y-100066321D01*
X152088683Y-99903757D01*
X152385924Y-99729166D01*
X152702318Y-99543479D01*
X153036283Y-99347627D01*
X153386236Y-99142541D01*
X153750596Y-98929153D01*
X154127778Y-98708392D01*
X154516201Y-98481190D01*
X154914282Y-98248477D01*
X154915606Y-98247704D01*
X159306323Y-95681723D01*
X159378351Y-95822928D01*
G36*
X129261124Y-95971450D02*
G01*
X129316615Y-95989031D01*
X129397584Y-96019130D01*
X129497462Y-96059329D01*
X129589997Y-96098622D01*
X129667989Y-96132489D01*
X129744870Y-96165890D01*
X129824271Y-96200407D01*
X129909822Y-96237621D01*
X130005154Y-96279113D01*
X130113896Y-96326464D01*
X130239679Y-96381255D01*
X130386134Y-96445067D01*
X130556890Y-96519481D01*
X130755578Y-96606078D01*
X130985828Y-96706440D01*
X131249906Y-96821552D01*
X131329922Y-96856417D01*
X131445646Y-96906820D01*
X131593969Y-96971408D01*
X131771782Y-97048827D01*
X131975977Y-97137725D01*
X132203443Y-97236748D01*
X132451072Y-97344543D01*
X132715754Y-97459757D01*
X132994382Y-97581036D01*
X133283844Y-97707028D01*
X133581033Y-97836379D01*
X133882839Y-97967736D01*
X134186153Y-98099747D01*
X134487866Y-98231056D01*
X134784868Y-98360313D01*
X135074051Y-98486162D01*
X135352306Y-98607252D01*
X135616523Y-98722229D01*
X135863593Y-98829739D01*
X136090407Y-98928430D01*
X136293857Y-99016949D01*
X136470832Y-99093941D01*
X136618224Y-99158055D01*
X136732923Y-99207936D01*
X136742656Y-99212168D01*
X136860584Y-99263437D01*
X137009861Y-99328326D01*
X137183006Y-99403586D01*
X137372542Y-99485965D01*
X137570991Y-99572213D01*
X137770874Y-99659080D01*
X137964712Y-99743316D01*
X137965031Y-99743455D01*
X138137107Y-99818784D01*
X138296469Y-99889615D01*
X138439051Y-99954061D01*
X138560788Y-100010236D01*
X138657614Y-100056253D01*
X138725464Y-100090225D01*
X138760272Y-100110267D01*
X138764073Y-100114215D01*
X138752181Y-100140076D01*
X138718956Y-100194761D01*
X138668069Y-100272932D01*
X138603193Y-100369254D01*
X138528002Y-100478392D01*
X138446167Y-100595011D01*
X138361362Y-100713775D01*
X138277260Y-100829348D01*
X138204082Y-100927716D01*
X137804351Y-101436432D01*
X137397226Y-101911865D01*
X136983824Y-102353149D01*
X136565264Y-102759421D01*
X136142665Y-103129815D01*
X135717144Y-103463466D01*
X135289821Y-103759511D01*
X134861813Y-104017086D01*
X134434239Y-104235324D01*
X134008216Y-104413362D01*
X133584865Y-104550336D01*
X133482990Y-104577203D01*
X133236744Y-104629949D01*
X132972044Y-104670158D01*
X132701265Y-104696811D01*
X132436783Y-104708887D01*
X132190972Y-104705366D01*
X132054354Y-104695005D01*
X131637489Y-104630232D01*
X131230002Y-104524179D01*
X130831909Y-104376851D01*
X130583156Y-104261447D01*
X130322262Y-104120886D01*
X130091288Y-103974365D01*
X129877894Y-103813455D01*
X129699884Y-103657928D01*
X129435699Y-103384244D01*
X129201799Y-103081459D01*
X128998282Y-102750146D01*
X128825242Y-102390879D01*
X128682775Y-102004231D01*
X128570977Y-101590778D01*
X128489943Y-101151092D01*
X128439769Y-100685747D01*
X128420550Y-100195317D01*
X128432382Y-99680377D01*
X128475360Y-99141499D01*
X128549581Y-98579258D01*
X128655139Y-97994227D01*
X128712085Y-97727283D01*
X128746511Y-97580120D01*
X128787547Y-97416445D01*
X128833687Y-97241293D01*
X128883427Y-97059700D01*
X128935261Y-96876700D01*
X128987684Y-96697329D01*
X129039192Y-96526622D01*
X129088280Y-96369615D01*
X129133442Y-96231342D01*
X129173174Y-96116840D01*
X129205970Y-96031142D01*
X129230326Y-95979285D01*
X129237676Y-95968808D01*
X129261124Y-95971450D01*
G37*
X129261124Y-95971450D02*
X129316615Y-95989031D01*
X129397584Y-96019130D01*
X129497462Y-96059329D01*
X129589997Y-96098622D01*
X129667989Y-96132489D01*
X129744870Y-96165890D01*
X129824271Y-96200407D01*
X129909822Y-96237621D01*
X130005154Y-96279113D01*
X130113896Y-96326464D01*
X130239679Y-96381255D01*
X130386134Y-96445067D01*
X130556890Y-96519481D01*
X130755578Y-96606078D01*
X130985828Y-96706440D01*
X131249906Y-96821552D01*
X131329922Y-96856417D01*
X131445646Y-96906820D01*
X131593969Y-96971408D01*
X131771782Y-97048827D01*
X131975977Y-97137725D01*
X132203443Y-97236748D01*
X132451072Y-97344543D01*
X132715754Y-97459757D01*
X132994382Y-97581036D01*
X133283844Y-97707028D01*
X133581033Y-97836379D01*
X133882839Y-97967736D01*
X134186153Y-98099747D01*
X134487866Y-98231056D01*
X134784868Y-98360313D01*
X135074051Y-98486162D01*
X135352306Y-98607252D01*
X135616523Y-98722229D01*
X135863593Y-98829739D01*
X136090407Y-98928430D01*
X136293857Y-99016949D01*
X136470832Y-99093941D01*
X136618224Y-99158055D01*
X136732923Y-99207936D01*
X136742656Y-99212168D01*
X136860584Y-99263437D01*
X137009861Y-99328326D01*
X137183006Y-99403586D01*
X137372542Y-99485965D01*
X137570991Y-99572213D01*
X137770874Y-99659080D01*
X137964712Y-99743316D01*
X137965031Y-99743455D01*
X138137107Y-99818784D01*
X138296469Y-99889615D01*
X138439051Y-99954061D01*
X138560788Y-100010236D01*
X138657614Y-100056253D01*
X138725464Y-100090225D01*
X138760272Y-100110267D01*
X138764073Y-100114215D01*
X138752181Y-100140076D01*
X138718956Y-100194761D01*
X138668069Y-100272932D01*
X138603193Y-100369254D01*
X138528002Y-100478392D01*
X138446167Y-100595011D01*
X138361362Y-100713775D01*
X138277260Y-100829348D01*
X138204082Y-100927716D01*
X137804351Y-101436432D01*
X137397226Y-101911865D01*
X136983824Y-102353149D01*
X136565264Y-102759421D01*
X136142665Y-103129815D01*
X135717144Y-103463466D01*
X135289821Y-103759511D01*
X134861813Y-104017086D01*
X134434239Y-104235324D01*
X134008216Y-104413362D01*
X133584865Y-104550336D01*
X133482990Y-104577203D01*
X133236744Y-104629949D01*
X132972044Y-104670158D01*
X132701265Y-104696811D01*
X132436783Y-104708887D01*
X132190972Y-104705366D01*
X132054354Y-104695005D01*
X131637489Y-104630232D01*
X131230002Y-104524179D01*
X130831909Y-104376851D01*
X130583156Y-104261447D01*
X130322262Y-104120886D01*
X130091288Y-103974365D01*
X129877894Y-103813455D01*
X129699884Y-103657928D01*
X129435699Y-103384244D01*
X129201799Y-103081459D01*
X128998282Y-102750146D01*
X128825242Y-102390879D01*
X128682775Y-102004231D01*
X128570977Y-101590778D01*
X128489943Y-101151092D01*
X128439769Y-100685747D01*
X128420550Y-100195317D01*
X128432382Y-99680377D01*
X128475360Y-99141499D01*
X128549581Y-98579258D01*
X128655139Y-97994227D01*
X128712085Y-97727283D01*
X128746511Y-97580120D01*
X128787547Y-97416445D01*
X128833687Y-97241293D01*
X128883427Y-97059700D01*
X128935261Y-96876700D01*
X128987684Y-96697329D01*
X129039192Y-96526622D01*
X129088280Y-96369615D01*
X129133442Y-96231342D01*
X129173174Y-96116840D01*
X129205970Y-96031142D01*
X129230326Y-95979285D01*
X129237676Y-95968808D01*
X129261124Y-95971450D01*
%TD*%
D13*
%TO.C,J2*%
X168000000Y-102500000D03*
%TD*%
%TO.C,J1*%
X168000000Y-98750000D03*
%TD*%
%TO.C,J3*%
X168000000Y-95000000D03*
%TD*%
M02*
